<svg width="45" height="45" viewBox="0 0 45 45" fill="none" xmlns="http://www.w3.org/2000/svg">
<path d="M29.9315 27.1746C29.9314 27.0835 29.9214 26.9926 29.9016 26.9037C29.746 26.2078 29.1933 25.7894 28.4215 25.7887C25.7168 25.7887 23.0117 25.7887 20.3061 25.7887C20.1725 25.7887 20.0586 25.8018 19.9746 25.6339C19.7088 25.1038 19.2531 24.8606 18.6661 24.8577C18.079 24.8548 17.4861 24.8577 16.8691 24.8577V24.6065C16.8691 23.896 16.8793 23.1855 16.864 22.4758C16.8525 22.1119 16.6985 21.7671 16.4351 21.5158C16.1718 21.2644 15.8202 21.1267 15.4561 21.1322C15.0978 21.136 14.7546 21.2778 14.4982 21.5283C14.2418 21.7787 14.0919 22.1183 14.0797 22.4765C14.0797 22.5035 14.0797 22.5313 14.0797 22.5583C14.0797 26.2745 14.0797 29.9902 14.0797 33.7054C14.0771 33.8904 14.1112 34.074 14.18 34.2456C14.2489 34.4172 14.3511 34.5735 14.4807 34.7054C14.6104 34.8373 14.7649 34.9422 14.9353 35.0139C15.1058 35.0857 15.2887 35.1229 15.4737 35.1235C16.2469 35.1235 16.861 34.5065 16.8705 33.7084C16.8771 33.1804 16.8705 32.6518 16.8705 32.1238V31.4083H27.1407C27.1407 32.0844 27.1407 32.7467 27.1407 33.409C27.1316 33.6088 27.1416 33.8091 27.1706 34.007C27.239 34.3405 27.4269 34.6375 27.699 34.8422C27.971 35.0469 28.3084 35.1451 28.6478 35.1184C28.9971 35.0912 29.3233 34.9332 29.5613 34.676C29.7993 34.4188 29.9315 34.0814 29.9315 33.731C29.9366 31.5455 29.933 29.3601 29.9315 27.1746ZM20.1608 26.7204H28.3389C28.8596 26.7204 28.9998 26.8665 29.0005 27.3871V28.1173H20.1608V26.7204ZM16.8749 26.2239C16.8815 25.9647 17.0772 25.7989 17.3517 25.7923C17.8064 25.7816 18.2615 25.7816 18.7172 25.7923C18.9925 25.7982 19.1882 25.9617 19.1955 26.2217C19.2123 26.8467 19.2006 27.4725 19.2006 28.1122H16.8705C16.8734 27.474 16.8625 26.8482 16.8778 26.2239H16.8749ZM15.933 33.6667C15.933 33.98 15.73 34.1947 15.4613 34.1888C15.1925 34.183 15.0071 33.9764 15.0049 33.6777C15.0005 32.9249 15.0049 32.172 15.0049 31.4068H15.9359V31.8106C15.9373 32.4291 15.9403 33.0475 15.9359 33.6667H15.933ZM15.0034 30.4393V22.708C14.9996 22.6261 15.0021 22.5441 15.0107 22.4627C15.0269 22.3488 15.0848 22.2451 15.1732 22.1715C15.2616 22.098 15.3741 22.0599 15.489 22.0647C15.5986 22.0708 15.7026 22.1152 15.7827 22.1902C15.8628 22.2653 15.9139 22.3661 15.9271 22.4751C15.9343 22.5659 15.936 22.6571 15.9322 22.7482V28.3765C15.9322 28.9219 16.0673 29.0592 16.6047 29.0592H28.9903V30.4393H15.0034ZM28.9976 33.6682C28.9976 33.9807 28.7909 34.1954 28.5222 34.1888C28.2535 34.1823 28.0717 33.9764 28.0695 33.6777C28.0651 32.9329 28.0695 32.1874 28.0695 31.4083H29.0005V32.0333C29.002 32.5766 29.0056 33.1228 29.0005 33.6682H28.9976Z" fill="white" stroke="url(#paint0_linear_716_7967)" stroke-width="0.25"/>
<path d="M21.7855 9C21.584 9.11926 21.389 9.24918 21.2014 9.3892C18.2533 11.828 15.3082 14.2696 12.366 16.7138C11.0483 17.8071 9.73051 18.9009 8.41276 19.9953C7.94251 20.3866 7.86584 20.9314 8.23021 21.3658C8.62208 21.8336 9.02685 22.2905 9.44452 22.7364C9.74901 23.0628 10.209 23.1088 10.5975 22.8824L10.8041 22.7656V35.831C10.8041 36.6429 11.1408 36.9839 11.9425 36.9839H32.0615C32.8647 36.9839 33.2057 36.6437 33.2057 35.8361V22.7714C33.9359 23.1606 34.2448 23.1008 34.7822 22.4962C34.9641 22.2917 35.1554 22.096 35.3248 21.8813C35.5592 21.5842 35.776 21.2731 36.0009 20.9679L21.7855 9ZM32.2726 35.6747V36.0398H11.7359V35.736C11.7359 31.2356 11.7344 26.7359 11.7315 22.2369C11.7263 22.1484 11.7433 22.06 11.7809 21.9796C11.8185 21.8993 11.8755 21.8296 11.9469 21.7769C15.2313 19.0591 18.5118 16.3372 21.7884 13.6112C21.9527 13.4739 22.0498 13.4651 22.2185 13.6112C25.4801 16.326 28.7467 19.0355 32.0185 21.7397C32.1041 21.8027 32.1727 21.886 32.218 21.9821C32.2634 22.0782 32.2842 22.1841 32.2784 22.2903C32.2706 26.7503 32.2687 31.2118 32.2726 35.6747ZM33.8994 22.088L32.101 20.5984L22.4281 12.575C22.0805 12.283 21.917 12.2939 21.5467 12.6035C17.7824 15.7253 14.0175 18.8464 10.2521 21.9668C10.2105 22.0011 10.1667 22.0325 10.1061 22.0792L8.94507 20.7649L22.0104 9.93319L35.0677 20.7729L33.8994 22.088Z" fill="white" stroke="url(#paint1_linear_716_7967)" stroke-width="0.25"/>
<path d="M35.3642 19.8103C34.7267 19.2539 34.0703 18.715 33.4109 18.1871C33.3395 18.134 33.2828 18.0637 33.246 17.9827C33.2092 17.9018 33.1936 17.8128 33.2006 17.7241C33.2087 16.1126 33.2057 14.501 33.205 12.8895C33.205 12.1593 32.8399 11.7942 32.1156 11.7942C31.4233 11.7942 30.7282 11.7942 30.0389 11.7942C29.3817 11.7942 29.0049 12.1724 29.0028 12.8274C29.0028 13.3707 29.0028 13.914 29.0028 14.5164C28.6267 14.2068 28.2923 13.9322 27.96 13.6562C26.2363 12.2265 24.5118 10.7975 22.7866 9.36924C22.6062 9.23511 22.4183 9.1115 22.2236 8.99902H21.7855C21.584 9.11828 21.389 9.2482 21.2014 9.38822C18.2533 11.8271 15.3082 14.2686 12.366 16.7128C11.0483 17.8061 9.73051 18.9 8.41276 19.9943C7.94251 20.3857 7.86584 20.9304 8.23021 21.3648C8.62208 21.8327 9.02685 22.2895 9.44452 22.7354C9.74901 23.0618 10.209 23.1078 10.5975 22.8815L10.8041 22.7646V35.83C10.8041 36.642 11.1408 36.983 11.9425 36.983H32.0615C32.8647 36.983 33.2057 36.6427 33.2057 35.8351V22.7705C33.9359 23.1597 34.2448 23.0998 34.7822 22.4952C34.9641 22.2907 35.1554 22.095 35.3248 21.8804C35.5592 21.5832 35.776 21.2721 36.0009 20.9669V20.5288C35.7899 20.2907 35.6037 20.0198 35.3642 19.8103ZM32.2726 35.6745V36.0396H11.7359V35.7358C11.7359 31.2354 11.7344 26.7357 11.7315 22.2367C11.7263 22.1482 11.7433 22.0597 11.7809 21.9794C11.8185 21.8991 11.8755 21.8294 11.9469 21.7767C15.2313 19.0589 18.5118 16.337 21.7884 13.6109C21.9527 13.4737 22.0498 13.4649 22.2185 13.6109C25.4801 16.3258 28.7467 19.0353 32.0185 21.7394C32.1041 21.8024 32.1727 21.8857 32.218 21.9819C32.2634 22.078 32.2842 22.1839 32.2784 22.29C32.2706 26.75 32.2687 31.2115 32.2726 35.6745ZM33.8994 22.0877L32.101 20.5981L22.4281 12.5748C22.0805 12.2827 21.917 12.2937 21.5467 12.6033C17.7824 15.7251 14.0175 18.8462 10.2521 21.9665C10.2105 22.0009 10.1667 22.0322 10.1061 22.079L8.94507 20.7646L22.0104 9.93294L35.0677 20.7727L33.8994 22.0877ZM29.9352 12.8559C29.9388 12.8172 29.9456 12.7788 29.9557 12.7413H32.2477V17.1706C32.1964 17.1491 32.1474 17.1221 32.1017 17.0903C31.4277 16.5339 30.7538 15.9775 30.0864 15.4109C30.0061 15.345 29.9538 15.251 29.9403 15.148C29.9294 14.3857 29.9338 13.6204 29.9352 12.8559Z" fill="url(#paint2_linear_716_7967)" stroke="url(#paint3_linear_716_7967)" stroke-width="0.5"/>
<path d="M29.9315 27.1746C29.9314 27.0835 29.9214 26.9926 29.9016 26.9037C29.746 26.2078 29.1933 25.7894 28.4215 25.7887C25.7168 25.7887 23.0117 25.7887 20.3061 25.7887C20.1725 25.7887 20.0586 25.8018 19.9746 25.6339C19.7088 25.1038 19.2531 24.8606 18.6661 24.8577C18.079 24.8548 17.4861 24.8577 16.8691 24.8577V24.6065C16.8691 23.896 16.8793 23.1855 16.864 22.4758C16.8525 22.1119 16.6985 21.7671 16.4351 21.5158C16.1718 21.2644 15.8202 21.1267 15.4561 21.1322C15.0978 21.136 14.7546 21.2778 14.4982 21.5283C14.2418 21.7787 14.0919 22.1183 14.0797 22.4765C14.0797 22.5035 14.0797 22.5313 14.0797 22.5583C14.0797 26.2745 14.0797 29.9902 14.0797 33.7054C14.0771 33.8904 14.1112 34.074 14.18 34.2456C14.2489 34.4172 14.3511 34.5735 14.4807 34.7054C14.6104 34.8373 14.7649 34.9422 14.9353 35.0139C15.1058 35.0857 15.2887 35.1229 15.4737 35.1235C16.2469 35.1235 16.861 34.5065 16.8705 33.7084C16.8771 33.1804 16.8705 32.6518 16.8705 32.1238V31.4083H27.1407C27.1407 32.0844 27.1407 32.7467 27.1407 33.409C27.1316 33.6088 27.1416 33.8091 27.1706 34.007C27.239 34.3405 27.4269 34.6375 27.699 34.8422C27.971 35.0469 28.3084 35.1451 28.6478 35.1184C28.9971 35.0912 29.3233 34.9332 29.5613 34.676C29.7993 34.4188 29.9315 34.0814 29.9315 33.731C29.9366 31.5455 29.933 29.3601 29.9315 27.1746ZM20.1608 26.7204H28.3389C28.8596 26.7204 28.9998 26.8665 29.0005 27.3871V28.1173H20.1608V26.7204ZM16.8749 26.2239C16.8815 25.9647 17.0772 25.7989 17.3517 25.7923C17.8064 25.7816 18.2615 25.7816 18.7172 25.7923C18.9925 25.7982 19.1882 25.9617 19.1955 26.2217C19.2123 26.8467 19.2006 27.4725 19.2006 28.1122H16.8705C16.8734 27.474 16.8625 26.8482 16.8778 26.2239H16.8749ZM15.933 33.6667C15.933 33.98 15.73 34.1947 15.4613 34.1888C15.1925 34.183 15.0071 33.9764 15.0049 33.6777C15.0005 32.9249 15.0049 32.172 15.0049 31.4068H15.9359V31.8106C15.9373 32.4291 15.9403 33.0475 15.9359 33.6667H15.933ZM15.0034 30.4393V22.708C14.9996 22.6261 15.0021 22.5441 15.0107 22.4627C15.0269 22.3488 15.0848 22.2451 15.1732 22.1715C15.2616 22.098 15.3741 22.0599 15.489 22.0647C15.5986 22.0708 15.7026 22.1152 15.7827 22.1902C15.8628 22.2653 15.9139 22.3661 15.9271 22.4751C15.9343 22.5659 15.936 22.6571 15.9322 22.7482V28.3765C15.9322 28.9219 16.0673 29.0592 16.6047 29.0592H28.9903V30.4393H15.0034ZM28.9976 33.6682C28.9976 33.9807 28.7909 34.1954 28.5222 34.1888C28.2535 34.1823 28.0717 33.9764 28.0695 33.6777C28.0651 32.9329 28.0695 32.1874 28.0695 31.4083H29.0005V32.0333C29.002 32.5766 29.0056 33.1228 29.0005 33.6682H28.9976Z" fill="url(#paint4_linear_716_7967)" stroke="url(#paint5_linear_716_7967)" stroke-width="0.25"/>
<defs>
<linearGradient id="paint0_linear_716_7967" x1="12.4643" y1="37.531" x2="18.5239" y2="21.7196" gradientUnits="userSpaceOnUse">
<stop stop-color="#E83F43"/>
<stop offset="0.51" stop-color="#F35526"/>
<stop offset="1" stop-color="#D92866"/>
</linearGradient>
<linearGradient id="paint1_linear_716_7967" x1="5.14831" y1="41.7991" x2="18.3946" y2="11.2795" gradientUnits="userSpaceOnUse">
<stop stop-color="#E83F43"/>
<stop offset="0.51" stop-color="#F35526"/>
<stop offset="1" stop-color="#D92866"/>
</linearGradient>
<linearGradient id="paint2_linear_716_7967" x1="5.14831" y1="41.7981" x2="18.3946" y2="11.2785" gradientUnits="userSpaceOnUse">
<stop stop-color="#E83F43"/>
<stop offset="0.51" stop-color="#F35526"/>
<stop offset="1" stop-color="#D92866"/>
</linearGradient>
<linearGradient id="paint3_linear_716_7967" x1="5.14831" y1="41.7981" x2="18.3946" y2="11.2785" gradientUnits="userSpaceOnUse">
<stop stop-color="#E83F43"/>
<stop offset="0.51" stop-color="#F35526"/>
<stop offset="1" stop-color="#D92866"/>
</linearGradient>
<linearGradient id="paint4_linear_716_7967" x1="12.4643" y1="37.531" x2="18.5239" y2="21.7196" gradientUnits="userSpaceOnUse">
<stop stop-color="#E83F43"/>
<stop offset="0.51" stop-color="#F35526"/>
<stop offset="1" stop-color="#D92866"/>
</linearGradient>
<linearGradient id="paint5_linear_716_7967" x1="12.4643" y1="37.531" x2="18.5239" y2="21.7196" gradientUnits="userSpaceOnUse">
<stop stop-color="#E83F43"/>
<stop offset="0.51" stop-color="#F35526"/>
<stop offset="1" stop-color="#D92866"/>
</linearGradient>
</defs>
</svg>
