<svg width="24" height="24" viewBox="0 0 24 24" fill="none" xmlns="http://www.w3.org/2000/svg">
<g clip-path="url(#clip0_626_10403)">
<path d="M18.7223 9.65944C18.7223 9.89998 18.4927 10.1667 18.1111 10.1667C13.7281 10.1667 10.1667 13.7281 10.1667 18.1111C10.1667 19.1418 10.3674 20.1288 10.7299 21.0354C10.8455 21.3245 10.8507 21.6416 10.7664 21.8882C10.686 22.1236 10.5376 22.2709 10.3325 22.3271C10.225 22.3566 10.1102 22.3566 10.0002 22.3265C5.19074 21.011 1.61111 16.1707 1.61111 10.9978V6.59758C1.61111 5.86836 2.04328 5.20847 2.71173 4.91703L9.43397 1.98614C9.90121 1.78242 10.4322 1.78242 10.8994 1.98614L11.1436 1.42595L10.8994 1.98614L17.6216 4.91703C18.2901 5.20847 18.7223 5.86836 18.7223 6.59758V9.65944Z" stroke="#676E76" stroke-width="1.22222" stroke-linejoin="round"/>
<path d="M18.1111 13.2222C15.41 13.2222 13.2222 15.41 13.2222 18.1111C13.2222 20.8122 15.41 23 18.1111 23C20.8122 23 23 20.8122 23 18.1111C23 15.41 20.8122 13.2222 18.1111 13.2222ZM18.1111 14.9088C18.8688 14.9088 19.48 15.5322 19.48 16.2777C19.48 17.0233 18.8566 17.6466 18.1111 17.6466C17.3655 17.6466 16.7422 17.0233 16.7422 16.2777C16.7422 15.5322 17.3533 14.9088 18.1111 14.9088ZM18.1111 21.4722C17.2863 21.4722 16.5388 21.1762 15.9572 20.6822C15.5289 20.3185 15.3869 19.6701 15.8491 19.3506C16.4551 18.9317 17.4954 18.7222 18.1111 18.7222C18.7267 18.7222 19.7671 18.9317 20.3731 19.3506C20.8352 19.6701 20.6932 20.3185 20.265 20.6822C19.6833 21.1762 18.9358 21.4722 18.1111 21.4722Z" stroke="#676E76" stroke-width="1.22222" stroke-linejoin="round"/>
</g>
<defs>
<clipPath id="clip0_626_10403">
<rect width="24" height="24" fill="white"/>
</clipPath>
</defs>
</svg>
