<svg width="25" height="25" viewBox="0 0 25 25" fill="none" xmlns="http://www.w3.org/2000/svg">
<path d="M9.65332 10.9307V14.3123V10.9307Z" fill="white"/>
<path d="M9.65332 10.9307V14.3123" stroke="#24292E" stroke-width="1.11111"/>
<path d="M8.54297 16.5311H10.7641V14.3123H8.54297V16.5311Z" stroke="#24292E" stroke-width="1.11111" stroke-linecap="round" stroke-linejoin="round"/>
<mask id="path-4-inside-1_488_21246" fill="white">
<path d="M15.5558 11.9439V12.2217H15.8335L18.0558 12.2222C18.1958 12.2222 18.3119 12.3255 18.3308 12.4605L18.3335 12.5078V17.5C18.3335 17.64 18.2297 17.7561 18.0952 17.775L18.0474 17.7778H15.8335H15.5558V18.0555C15.5558 18.7928 15.1702 19.4822 14.5013 19.9567C14.0008 20.3117 13.3724 20.5233 12.7013 20.5517L12.5397 20.5555H8.61133C7.26799 20.5555 6.17188 19.4955 6.11355 18.1667L6.11133 18.0522V10.8333C6.11133 10.6933 6.21522 10.5772 6.34966 10.5583L6.39688 10.5555H15.278C15.418 10.5555 15.5341 10.6589 15.553 10.7939L15.5558 10.8411V11.9439ZM9.44466 11.3883V11.1105H9.16688L6.94466 11.1111H6.66688V11.3889V18.0555C6.66688 19.0528 7.41744 19.8744 8.38466 19.9867L8.38855 19.9872L8.39299 19.9878L8.48911 19.9961L8.49744 19.9967H8.50522L8.60299 19.9994L8.60744 20H8.61133H12.543C13.1513 20 13.7291 19.8233 14.1797 19.5039C14.6519 19.1689 14.9547 18.6978 14.9952 18.1755L14.9958 18.17L14.9963 18.1644L14.9997 18.0661L15.0002 18.0605V18.0555V11.3889V11.1111H14.7224L10.278 11.1105H10.0002V11.3883M17.778 13.0555V12.7778H17.5002H15.8335H15.5558V13.0555V16.9444V17.2222H15.8335H17.5002H17.778V16.9444V13.0555Z"/>
</mask>
<path d="M15.5558 11.9439V12.2217H15.8335L18.0558 12.2222C18.1958 12.2222 18.3119 12.3255 18.3308 12.4605L18.3335 12.5078V17.5C18.3335 17.64 18.2297 17.7561 18.0952 17.775L18.0474 17.7778H15.8335H15.5558V18.0555C15.5558 18.7928 15.1702 19.4822 14.5013 19.9567C14.0008 20.3117 13.3724 20.5233 12.7013 20.5517L12.5397 20.5555H8.61133C7.26799 20.5555 6.17188 19.4955 6.11355 18.1667L6.11133 18.0522V10.8333C6.11133 10.6933 6.21522 10.5772 6.34966 10.5583L6.39688 10.5555H15.278C15.418 10.5555 15.5341 10.6589 15.553 10.7939L15.5558 10.8411V11.9439ZM9.44466 11.3883V11.1105H9.16688L6.94466 11.1111H6.66688V11.3889V18.0555C6.66688 19.0528 7.41744 19.8744 8.38466 19.9867L8.38855 19.9872L8.39299 19.9878L8.48911 19.9961L8.49744 19.9967H8.50522L8.60299 19.9994L8.60744 20H8.61133H12.543C13.1513 20 13.7291 19.8233 14.1797 19.5039C14.6519 19.1689 14.9547 18.6978 14.9952 18.1755L14.9958 18.17L14.9963 18.1644L14.9997 18.0661L15.0002 18.0605V18.0555V11.3889V11.1111H14.7224L10.278 11.1105H10.0002V11.3883M17.778 13.0555V12.7778H17.5002H15.8335H15.5558V13.0555V16.9444V17.2222H15.8335H17.5002H17.778V16.9444V13.0555Z" fill="#3C3C3C"/>
<path d="M15.5558 12.2217H15.0002V12.7772H15.5558V12.2217ZM15.8335 12.2217L15.8337 11.6661H15.8335V12.2217ZM18.0558 12.2222L18.0556 12.7778H18.0558V12.2222ZM18.3308 12.4605L18.8854 12.4279L18.8841 12.4056L18.881 12.3836L18.3308 12.4605ZM18.3335 12.5078H18.8891V12.4914L18.8881 12.4751L18.3335 12.5078ZM18.0952 17.775L18.1275 18.3296L18.1501 18.3283L18.1725 18.3251L18.0952 17.775ZM18.0474 17.7778V18.3333H18.0636L18.0797 18.3324L18.0474 17.7778ZM15.5558 17.7778V17.2222H15.0002V17.7778H15.5558ZM14.5013 19.9567L14.8227 20.4098L14.8227 20.4098L14.5013 19.9567ZM12.7013 20.5517L12.7147 21.1071L12.7248 21.1067L12.7013 20.5517ZM12.5397 20.5555V21.1113L12.553 21.1109L12.5397 20.5555ZM6.11355 18.1667L5.55793 18.1774L5.55853 18.191L6.11355 18.1667ZM6.11133 18.0522H5.55567L5.55588 18.063L6.11133 18.0522ZM6.34966 10.5583L6.31704 10.0037L6.29461 10.005L6.27237 10.0082L6.34966 10.5583ZM6.39688 10.5555V9.99999H6.38056L6.36426 10.0009L6.39688 10.5555ZM15.553 10.7939L16.1076 10.7612L16.1063 10.739L16.1032 10.7169L15.553 10.7939ZM15.5558 10.8411H16.1113V10.8248L16.1104 10.8085L15.5558 10.8411ZM9.44466 11.1105H10.0002V10.555H9.44466V11.1105ZM9.16688 11.1105V10.555L9.16674 10.555L9.16688 11.1105ZM6.94466 11.1111V11.6667H6.9448L6.94466 11.1111ZM6.66688 11.1111V10.5555H6.11133V11.1111H6.66688ZM8.38466 19.9867L8.46333 19.4367L8.45602 19.4356L8.44869 19.4348L8.38466 19.9867ZM8.38855 19.9872L8.30987 20.5373L8.31968 20.5385L8.38855 19.9872ZM8.39299 19.9878L8.32412 20.539L8.33454 20.5403L8.34501 20.5412L8.39299 19.9878ZM8.48911 19.9961L8.44111 20.5497L8.45217 20.5504L8.48911 19.9961ZM8.49744 19.9967L8.4605 20.551L8.47895 20.5522H8.49744V19.9967ZM8.50522 19.9967L8.521 19.4413L8.51311 19.4411H8.50522V19.9967ZM8.60299 19.9994L8.67187 19.4482L8.64542 19.4449L8.61877 19.4441L8.60299 19.9994ZM8.60744 20L8.53857 20.5513L8.57287 20.5555H8.60744V20ZM14.1797 19.5039L14.501 19.9571L14.5011 19.957L14.1797 19.5039ZM14.9952 18.1755L14.4423 18.1202L14.4413 18.1325L14.9952 18.1755ZM14.9958 18.17L15.5486 18.2253L15.5486 18.2252L14.9958 18.17ZM14.9963 18.1644L15.5491 18.2197L15.5509 18.2015L15.5516 18.1833L14.9963 18.1644ZM14.9997 18.0661L14.4469 18.0108L14.445 18.029L14.4444 18.0473L14.9997 18.0661ZM15.0002 18.0605L15.553 18.1158L15.5558 18.0882V18.0605H15.0002ZM15.0002 11.1111H15.5558V10.5555H15.0002V11.1111ZM14.7224 11.1111L14.7224 11.6667H14.7224V11.1111ZM10.278 11.1105L10.2781 10.555H10.278V11.1105ZM10.0002 11.1105V10.555H9.44466V11.1105H10.0002ZM17.778 12.7778H18.3335V12.2222H17.778V12.7778ZM15.5558 12.7778V12.2222H15.0002V12.7778H15.5558ZM15.5558 17.2222H15.0002V17.7778H15.5558V17.2222ZM17.778 17.2222V17.7778H18.3335V17.2222H17.778ZM15.0002 11.9439V12.2217H16.1113V11.9439H15.0002ZM15.5558 12.7772H15.8335V11.6661H15.5558V12.7772ZM15.8334 12.7772L18.0556 12.7778L18.0559 11.6667L15.8337 11.6661L15.8334 12.7772ZM18.0558 12.7778C17.9166 12.7778 17.7998 12.6749 17.7806 12.5375L18.881 12.3836C18.824 11.9762 18.4749 11.6667 18.0558 11.6667V12.7778ZM17.7762 12.4932L17.779 12.5404L18.8881 12.4751L18.8854 12.4279L17.7762 12.4932ZM17.778 12.5078V17.5H18.8891V12.5078H17.778ZM17.778 17.5C17.778 17.3599 17.8812 17.244 18.0179 17.2248L18.1725 18.3251C18.5781 18.2682 18.8891 17.9201 18.8891 17.5H17.778ZM18.063 17.2204L18.0152 17.2231L18.0797 18.3324L18.1275 18.3296L18.063 17.2204ZM18.0474 17.2222H15.8335V18.3333H18.0474V17.2222ZM15.8335 17.2222H15.5558V18.3333H15.8335V17.2222ZM15.0002 17.7778V18.0555H16.1113V17.7778H15.0002ZM15.0002 18.0555C15.0002 18.5881 14.7232 19.1181 14.1799 19.5035L14.8227 20.4098C15.6172 19.8463 16.1113 18.9974 16.1113 18.0555H15.0002ZM14.1799 19.5035C13.7723 19.7926 13.2488 19.9725 12.6779 19.9966L12.7248 21.1067C13.496 21.0742 14.2293 20.8307 14.8227 20.4098L14.1799 19.5035ZM12.688 19.9963L12.5263 20.0001L12.553 21.1109L12.7147 21.107L12.688 19.9963ZM12.5397 20H8.61133V21.1111H12.5397V20ZM8.61133 20C7.56673 20 6.71393 19.1755 6.66857 18.1423L5.55853 18.191C5.62984 19.8156 6.96926 21.1111 8.61133 21.1111V20ZM6.669 18.1559L6.66678 18.0414L5.55588 18.063L5.5581 18.1774L6.669 18.1559ZM6.66688 18.0522V10.8333H5.55577V18.0522H6.66688ZM6.66688 10.8333C6.66688 10.9734 6.56364 11.0893 6.42696 11.1085L6.27237 10.0082C5.86679 10.0651 5.55577 10.4132 5.55577 10.8333H6.66688ZM6.38229 11.1129L6.42951 11.1101L6.36426 10.0009L6.31704 10.0037L6.38229 11.1129ZM6.39688 11.1111H15.278V9.99999H6.39688V11.1111ZM15.278 11.1111C15.1388 11.1111 15.022 11.0082 15.0028 10.8709L16.1032 10.7169C16.0462 10.3096 15.6972 9.99999 15.278 9.99999V11.1111ZM14.9984 10.8265L15.0012 10.8737L16.1104 10.8085L16.1076 10.7612L14.9984 10.8265ZM15.0002 10.8411V11.9439H16.1113V10.8411H15.0002ZM10.0002 11.3883V11.1105H8.88911V11.3883H10.0002ZM9.44466 10.555H9.16688V11.6661H9.44466V10.555ZM9.16674 10.555L6.94452 10.5555L6.9448 11.6667L9.16702 11.6661L9.16674 10.555ZM6.94466 10.5555H6.66688V11.6667H6.94466V10.5555ZM6.11133 11.1111V11.3889H7.22244V11.1111H6.11133ZM6.11133 11.3889V18.0555H7.22244V11.3889H6.11133ZM6.11133 18.0555C6.11133 19.3381 7.07652 20.3942 8.32063 20.5385L8.44869 19.4348C7.75836 19.3547 7.22244 18.7674 7.22244 18.0555H6.11133ZM8.30599 20.5366L8.30988 20.5372L8.46722 19.4373L8.46333 19.4367L8.30599 20.5366ZM8.31968 20.5385L8.32412 20.539L8.46187 19.4365L8.45742 19.4359L8.31968 20.5385ZM8.34501 20.5412L8.44112 20.5496L8.53709 19.4426L8.44098 19.4343L8.34501 20.5412ZM8.45217 20.5504L8.4605 20.551L8.53437 19.4423L8.52604 19.4418L8.45217 20.5504ZM8.49744 20.5522H8.50522V19.4411H8.49744V20.5522ZM8.48944 20.552L8.58721 20.5548L8.61877 19.4441L8.521 19.4413L8.48944 20.552ZM8.53412 20.5507L8.53857 20.5513L8.67631 19.4487L8.67187 19.4482L8.53412 20.5507ZM8.60744 20.5555H8.61133V19.4444H8.60744V20.5555ZM8.61133 20.5555H12.543V19.4444H8.61133V20.5555ZM12.543 20.5555C13.2558 20.5555 13.9482 20.349 14.501 19.9571L13.8583 19.0507C13.51 19.2976 13.0469 19.4444 12.543 19.4444V20.5555ZM14.5011 19.957C15.0797 19.5465 15.4933 18.9367 15.5491 18.2186L14.4413 18.1325C14.416 18.4588 14.2241 18.7912 13.8582 19.0508L14.5011 19.957ZM15.548 18.2308L15.5486 18.2253L14.443 18.1147L14.4424 18.1202L15.548 18.2308ZM15.5486 18.2252L15.5491 18.2197L14.4435 18.1092L14.443 18.1147L15.5486 18.2252ZM15.5516 18.1833L15.5549 18.0849L14.4444 18.0473L14.4411 18.1456L15.5516 18.1833ZM15.5525 18.1213L15.553 18.1158L14.4474 18.0053L14.4469 18.0108L15.5525 18.1213ZM15.5558 18.0605V18.0555H14.4447V18.0605H15.5558ZM15.5558 18.0555V11.3889H14.4447V18.0555H15.5558ZM15.5558 11.3889V11.1111H14.4447V11.3889H15.5558ZM15.0002 10.5555H14.7224V11.6667H15.0002V10.5555ZM14.7225 10.5555L10.2781 10.555L10.2779 11.6661L14.7224 11.6667L14.7225 10.5555ZM10.278 10.555H10.0002V11.6661H10.278V10.555ZM9.44466 11.1105V11.3883H10.5558V11.1105H9.44466ZM18.3335 13.0555V12.7778H17.2224V13.0555H18.3335ZM17.778 12.2222H17.5002V13.3333H17.778V12.2222ZM17.5002 12.2222H15.8335V13.3333H17.5002V12.2222ZM15.8335 12.2222H15.5558V13.3333H15.8335V12.2222ZM15.0002 12.7778V13.0555H16.1113V12.7778H15.0002ZM15.0002 13.0555V16.9444H16.1113V13.0555H15.0002ZM15.0002 16.9444V17.2222H16.1113V16.9444H15.0002ZM15.5558 17.7778H15.8335V16.6667H15.5558V17.7778ZM15.8335 17.7778H17.5002V16.6667H15.8335V17.7778ZM17.5002 17.7778H17.778V16.6667H17.5002V17.7778ZM18.3335 17.2222V16.9444H17.2224V17.2222H18.3335ZM18.3335 16.9444V13.0555H17.2224V16.9444H18.3335Z" fill="#24292E" mask="url(#path-4-inside-1_488_21246)"/>
<path d="M15.5558 11.9439V12.2217H15.8335L18.0558 12.2222C18.1958 12.2222 18.3119 12.3255 18.3308 12.4605L18.3335 12.5078V17.5C18.3335 17.64 18.2297 17.7561 18.0952 17.775L18.0474 17.7778H15.8335H15.5558V18.0555C15.5558 18.7928 15.1702 19.4822 14.5013 19.9567C14.0008 20.3117 13.3724 20.5233 12.7013 20.5517L12.5397 20.5555H8.61133C7.26799 20.5555 6.17188 19.4955 6.11355 18.1667L6.11133 18.0522V10.8333C6.11133 10.6933 6.21522 10.5772 6.34966 10.5583L6.39688 10.5555H15.278C15.418 10.5555 15.5341 10.6589 15.553 10.7939L15.5558 10.8411V11.9439ZM9.44466 11.3883V11.1105H9.16688L6.94466 11.1111H6.66688V11.3889V18.0555C6.66688 19.0528 7.41744 19.8744 8.38466 19.9867L8.38855 19.9872L8.39299 19.9878L8.48911 19.9961L8.49744 19.9967H8.50522L8.60299 19.9994L8.60744 20H8.61133H12.543C13.1513 20 13.7291 19.8233 14.1797 19.5039C14.6519 19.1689 14.9547 18.6978 14.9952 18.1755L14.9958 18.17L14.9963 18.1644L14.9997 18.0661L15.0002 18.0605V18.0555V11.3889V11.1111H14.7224L10.278 11.1105H10.0002V11.3883M17.778 13.0555V12.7778H17.5002H15.8335H15.5558V13.0555V16.9444V17.2222H15.8335H17.5002H17.778V16.9444V13.0555Z" fill="#24292E"/>
<path d="M9.44466 11.3883V11.1105H9.16688L6.94466 11.1111H6.66688V11.3889V18.0555C6.66688 19.0528 7.41744 19.8744 8.38466 19.9867L8.38855 19.9872L8.39299 19.9878L8.48911 19.9961L8.49744 19.9967H8.50522L8.60299 19.9994L8.60744 20H8.61133H12.543C13.1513 20 13.7291 19.8233 14.1797 19.5039C14.6519 19.1689 14.9547 18.6978 14.9952 18.1755L14.9958 18.17L14.9963 18.1644L14.9997 18.0661L15.0002 18.0605V18.0555V11.3889V11.1111H14.7224L10.278 11.1105H10.0002V11.3883M15.5558 11.9439V12.2217H15.8335L18.0558 12.2222C18.1958 12.2222 18.3119 12.3255 18.3308 12.4605L18.3335 12.5078V17.5C18.3335 17.64 18.2297 17.7561 18.0952 17.775L18.0474 17.7778H15.8335H15.5558V18.0555C15.5558 18.7928 15.1702 19.4822 14.5013 19.9567C14.0008 20.3117 13.3724 20.5233 12.7013 20.5517L12.5397 20.5555H8.61133C7.26799 20.5555 6.17188 19.4955 6.11355 18.1667L6.11133 18.0522V10.8333C6.11133 10.6933 6.21522 10.5772 6.34966 10.5583L6.39688 10.5555H15.278C15.418 10.5555 15.5341 10.6589 15.553 10.7939L15.5558 10.8411V11.9439ZM17.778 13.0555V12.7778H17.5002H15.8335H15.5558V13.0555V16.9444V17.2222H15.8335H17.5002H17.778V16.9444V13.0555Z" stroke="#3C3C3C" stroke-width="0.555556"/>
<mask id="mask0_488_21246" style="mask-type:alpha" maskUnits="userSpaceOnUse" x="7" y="3" width="10" height="8">
<path d="M10.2058 3.75C10.2058 3.75 10.2058 5.90278 8.95576 7.08333C7.77298 8.20056 8.12243 9.93056 8.12243 9.93056" fill="#24292E"/>
<path d="M10.2058 3.75C10.2058 3.75 10.2058 5.90278 8.95576 7.08333C7.77298 8.20056 8.12243 9.93056 8.12243 9.93056" stroke="#FF0000" stroke-width="1.55556"/>
<path d="M13.2673 3.75C13.2673 3.75 13.2673 5.90278 12.0173 7.08333C10.8345 8.20056 11.1839 9.93056 11.1839 9.93056" stroke="#FF0000" stroke-width="1.55556"/>
<path d="M16.1921 3.75C16.1921 3.75 16.1921 5.90278 14.9421 7.08333C13.7593 8.20056 14.1088 9.93056 14.1088 9.93056" stroke="#FF0000" stroke-width="1.55556"/>
</mask>
<g mask="url(#mask0_488_21246)">
<path d="M12.0683 7.53779L12.0661 7.54112L11.8744 7.84835L11.8728 7.85112C11.5044 8.45946 11.2867 8.92724 11.1839 9.4439L10.6161 9.44446C10.7167 8.83724 10.9506 8.30224 11.3933 7.57112L11.5967 7.24335L11.7083 7.06946C11.7083 7.06946 11.7083 7.06946 11.7089 7.06946C12.0989 6.46668 12.3672 6.0039 12.5361 5.55946C12.6767 5.19057 12.7456 4.84168 12.7661 4.44446L13.3228 4.44501C13.2844 5.31835 13.0539 5.9389 12.4889 6.87224L12.285 7.19946L12.0683 7.53779ZM14.8461 7.53779L14.8439 7.54112L14.6522 7.84835L14.6506 7.85112C14.2822 8.45946 14.065 8.92724 13.9617 9.4439L13.3939 9.44446C13.4944 8.83724 13.7283 8.30224 14.1711 7.57112L14.3744 7.24335L14.4861 7.06946C14.4861 7.06946 14.4861 7.06946 14.4867 7.06946C14.8767 6.46668 15.145 6.0039 15.3139 5.55946C15.4544 5.19057 15.5233 4.84168 15.5439 4.44446L16.1006 4.44501C16.0622 5.31835 15.8317 5.9389 15.2667 6.87224L15.0628 7.19946L14.8461 7.53779ZM9.53056 6.59557C9.53056 6.59557 9.53056 6.59612 9.53 6.59612L9.39612 6.80279V6.80335C9.00723 7.3989 8.73834 7.86112 8.56945 8.3089C8.42834 8.68168 8.35889 9.03779 8.33834 9.4439L7.78223 9.44446C7.80167 8.9889 7.87167 8.60724 8.00445 8.22612C8.16556 7.76557 8.42223 7.29279 8.815 6.67835L8.95112 6.46835C8.95167 6.46835 8.95167 6.46779 8.95167 6.46779C9.49167 5.64001 9.79389 5.07946 9.92167 4.44446H10.4894C10.375 5.12724 10.0911 5.71946 9.53056 6.59557Z" fill="#3C3C3C"/>
<path d="M12.0683 7.53779L12.0661 7.54112L11.8744 7.84835L11.8728 7.85112C11.5044 8.45946 11.2867 8.92724 11.1839 9.4439L10.6161 9.44446C10.7167 8.83724 10.9506 8.30224 11.3933 7.57112L11.5967 7.24335L11.7083 7.06946C11.7083 7.06946 11.7083 7.06946 11.7089 7.06946C12.0989 6.46668 12.3672 6.0039 12.5361 5.55946C12.6767 5.19057 12.7456 4.84168 12.7661 4.44446L13.3228 4.44501C13.2844 5.31835 13.0539 5.9389 12.4889 6.87224L12.285 7.19946L12.0683 7.53779ZM14.8461 7.53779L14.8439 7.54112L14.6522 7.84835L14.6506 7.85112C14.2822 8.45946 14.065 8.92724 13.9617 9.4439L13.3939 9.44446C13.4944 8.83724 13.7283 8.30224 14.1711 7.57112L14.3744 7.24335L14.4861 7.06946C14.4861 7.06946 14.4861 7.06946 14.4867 7.06946C14.8767 6.46668 15.145 6.0039 15.3139 5.55946C15.4544 5.19057 15.5233 4.84168 15.5439 4.44446L16.1006 4.44501C16.0622 5.31835 15.8317 5.9389 15.2667 6.87224L15.0628 7.19946L14.8461 7.53779ZM9.53056 6.59557C9.53056 6.59557 9.53056 6.59612 9.53 6.59612L9.39612 6.80279V6.80335C9.00723 7.3989 8.73834 7.86112 8.56945 8.3089C8.42834 8.68168 8.35889 9.03779 8.33834 9.4439L7.78223 9.44446C7.80167 8.9889 7.87167 8.60724 8.00445 8.22612C8.16556 7.76557 8.42223 7.29279 8.815 6.67835L8.95112 6.46835C8.95167 6.46835 8.95167 6.46779 8.95167 6.46779C9.49167 5.64001 9.79389 5.07946 9.92167 4.44446H10.4894C10.375 5.12724 10.0911 5.71946 9.53056 6.59557Z" stroke="#3C3C3C" stroke-width="0.555556"/>
</g>
</svg>
