<svg width="20" height="21" viewBox="0 0 20 21" fill="none" xmlns="http://www.w3.org/2000/svg">
<g clip-path="url(#clip0_575_23727)">
<path d="M18.0846 13.4368C18.2775 13.4368 18.4339 13.2804 18.4339 13.0875C18.4339 12.8947 18.2775 12.7383 18.0846 12.7383C17.8917 12.7383 17.7354 12.8947 17.7354 13.0875C17.7354 13.2804 17.8917 13.4368 18.0846 13.4368Z" fill="#07C8B9"/>
<path d="M1.38735 13.4368C1.58024 13.4368 1.73661 13.2804 1.73661 13.0875C1.73661 12.8947 1.58024 12.7383 1.38735 12.7383C1.19446 12.7383 1.03809 12.8947 1.03809 13.0875C1.03809 13.2804 1.19446 13.4368 1.38735 13.4368Z" fill="#07C8B9"/>
<path d="M19.0234 8.53938H17.1506C17.07 8.53938 16.9927 8.5714 16.9357 8.62841C16.8787 8.68541 16.8466 8.76273 16.8466 8.84335V9.78565C16.6244 9.53686 16.3521 9.33784 16.0476 9.20164C15.7431 9.06544 15.4133 8.99514 15.0797 8.99533H5.40462C5.33145 8.47655 5.07363 8.00155 4.67848 7.65754C4.28332 7.31353 3.77734 7.12359 3.25342 7.12258H2.62816V4.80055C2.62816 4.71993 2.59613 4.64262 2.53913 4.58561C2.48212 4.52861 2.40481 4.49658 2.32419 4.49658H0.451431C0.370813 4.49658 0.293497 4.52861 0.236492 4.58561C0.179486 4.64262 0.147461 4.71993 0.147461 4.80055V16.5408C0.147461 16.6214 0.179486 16.6987 0.236492 16.7557C0.293497 16.8127 0.370813 16.8447 0.451431 16.8447H2.32419C2.36411 16.8447 2.40363 16.8369 2.44051 16.8216C2.47739 16.8063 2.5109 16.7839 2.53913 16.7557C2.56735 16.7275 2.58974 16.694 2.60502 16.6571C2.62029 16.6202 2.62816 16.5807 2.62816 16.5408V14.4315H16.8466V16.5408C16.8466 16.6214 16.8787 16.6987 16.9357 16.7557C16.9927 16.8127 17.07 16.8447 17.1506 16.8447H19.0234C19.104 16.8447 19.1813 16.8127 19.2383 16.7557C19.2953 16.6987 19.3273 16.6214 19.3273 16.5408V8.84335C19.3273 8.76273 19.2953 8.68541 19.2383 8.62841C19.1813 8.5714 19.104 8.53938 19.0234 8.53938ZM16.8466 11.3678V11.8624H2.62816V9.60327H15.0797C15.5479 9.60367 15.9968 9.78972 16.328 10.1206C16.6593 10.4515 16.8458 10.9002 16.8466 11.3684V11.3678ZM3.25342 7.73052C3.61626 7.73116 3.96765 7.85756 4.24776 8.08817C4.52787 8.31879 4.71938 8.63938 4.78969 8.99533H2.62816V7.73052H3.25342ZM2.02022 16.2368H0.7554V5.10452H2.02022V16.2368ZM2.62816 13.8236V12.4709H16.8466V13.8236H2.62816ZM18.7194 16.2368H17.4546V9.14732H18.7194V16.2368Z" fill="#07C8B9"/>
</g>
<defs>
<clipPath id="clip0_575_23727">
<rect width="19.4541" height="19.4541" fill="white" transform="translate(0 0.849121)"/>
</clipPath>
</defs>
</svg>
