<svg width="47" height="34" viewBox="0 0 47 34" fill="none" xmlns="http://www.w3.org/2000/svg">
<path d="M9.35682 32.1537H37.643C38.5611 32.1537 39.4415 31.789 40.0907 31.1398L43.3285 27.9021C43.56 27.6705 43.6841 27.3556 43.6589 27.0292C43.0912 19.6677 38.38 5.61523 23.4999 5.61523C8.61989 5.61523 3.90868 19.6677 3.34094 27.0292C3.31576 27.3556 3.43985 27.6705 3.67137 27.9021L6.90914 31.1398C7.5583 31.789 8.43876 32.1537 9.35682 32.1537Z" stroke="#24292E" stroke-width="1.73077"/>
<path d="M1 27.5383H46" stroke="#24292E" stroke-width="2" stroke-linecap="round"/>
<path d="M26.9614 5.61535C26.9614 5.70589 26.9532 5.7584 26.9461 5.78627C26.9117 5.79491 26.8289 5.80939 26.6588 5.80502C26.4575 5.79984 26.2209 5.77368 25.9172 5.74009C25.8245 5.72984 25.7255 5.71889 25.6194 5.70764C25.1825 5.66133 24.6642 5.61535 24.0768 5.61535C23.4894 5.61535 22.9711 5.66133 22.5341 5.70764C22.428 5.71889 22.3291 5.72984 22.2364 5.74009C21.9326 5.77368 21.696 5.79984 21.4948 5.80502C21.3247 5.80939 21.2418 5.79491 21.2075 5.78627C21.2004 5.7584 21.1922 5.70589 21.1922 5.61535C21.1922 5.13338 21.4387 4.39485 21.9534 3.77531C22.4554 3.17101 23.1688 2.73073 24.0768 2.73073C24.9847 2.73073 25.6981 3.17101 26.2002 3.77531C26.7149 4.39485 26.9614 5.13338 26.9614 5.61535ZM26.9361 5.81317C26.9359 5.81288 26.937 5.81021 26.9399 5.80602C26.9378 5.81135 26.9363 5.81345 26.9361 5.81317ZM21.2174 5.81317C21.2172 5.81345 21.2158 5.81135 21.2136 5.80602C21.2166 5.81021 21.2176 5.81288 21.2174 5.81317Z" fill="#24292E" stroke="#24292E" stroke-width="1.15385"/>
<path d="M40.2329 1.35802C40.0487 3.07499 40.8332 4.54887 41.9172 5.52992C43.4185 6.88871 43.3107 7.74083 43.5935 8.86846" stroke="#24292E" stroke-width="1.62051" stroke-linecap="round" stroke-linejoin="round"/>
<path d="M36.3883 2.32266C36.4146 5.23989 38.087 6.90863 38.087 6.90863" stroke="#24292E" stroke-width="1.62051" stroke-linecap="round" stroke-linejoin="round"/>
<path d="M7.17338 1.35802C7.35751 3.07499 6.573 4.54887 5.48906 5.52992C3.98777 6.88871 4.09552 7.74083 3.81277 8.86846" stroke="#24292E" stroke-width="1.62051" stroke-linecap="round" stroke-linejoin="round"/>
<path d="M11.018 2.32266C10.9917 5.23989 9.31923 6.90863 9.31923 6.90863" stroke="#24292E" stroke-width="1.62051" stroke-linecap="round" stroke-linejoin="round"/>
</svg>
