<svg width="46" height="45" viewBox="0 0 46 45" fill="none" xmlns="http://www.w3.org/2000/svg">
<path d="M37.4048 34.6537C37.2784 34.3752 37.1279 34.1069 36.9964 33.8305C36.7962 33.4121 36.4747 33.2144 35.999 33.2187C34.7407 33.2288 33.4832 33.2187 32.2249 33.2187H31.9187C31.9136 33.104 31.9063 33.0239 31.9063 32.9446C31.9063 29.0929 31.9046 25.2407 31.9012 21.388C31.9012 21.2069 31.967 21.1268 32.1204 21.041C32.3409 20.928 32.5245 20.7557 32.6499 20.544C32.7753 20.3324 32.8375 20.0899 32.8292 19.8448C32.8354 19.5996 32.7712 19.3576 32.644 19.1469C32.5167 18.9363 32.3316 18.7655 32.1102 18.6544C32.0411 18.6257 31.9833 18.5757 31.9456 18.5118C31.9079 18.4479 31.8923 18.3736 31.9012 18.3001C31.9107 17.6255 31.9078 16.9502 31.9012 16.2757C31.9012 15.9084 31.7229 15.7064 31.4248 15.7108C31.1383 15.7108 30.9732 15.9106 30.9688 16.2641C30.9644 16.6177 30.9688 16.9856 30.9688 17.3463V18.474C30.6086 18.474 30.2805 18.4509 29.9575 18.4798C29.5257 18.5194 29.2524 18.3607 29.0171 17.9942C28.3843 17.0065 27.7091 16.0462 27.0559 15.0701C26.6438 14.4554 26.0848 14.06 25.3534 13.8984C24.8126 13.7808 24.2887 13.8609 23.7604 14.0629C23.6304 13.5341 23.3366 13.156 22.8222 12.9807C21.9454 12.6755 21.0729 12.3675 20.1917 12.0789C19.4273 11.8278 18.6871 12.1921 18.4051 12.9446C18.2655 13.3148 18.1464 13.6928 18.0017 14.0615C17.9747 14.13 17.8746 14.1733 17.8037 14.2231C17.6642 14.3212 17.4749 14.3876 17.3916 14.5189C17.2842 14.687 17.3609 14.8796 17.5041 15.0347C17.5335 15.0711 17.5545 15.1134 17.5656 15.1587C17.5767 15.2039 17.5777 15.251 17.5684 15.2966C17.4223 15.7504 17.2542 16.197 17.1015 16.6479C17.0599 16.7706 16.997 16.8103 16.8648 16.85C16.7113 16.8961 16.5191 17.026 16.4753 17.1616C16.4315 17.2973 16.5484 17.4834 16.6039 17.6436C16.6193 17.6862 16.677 17.7157 16.704 17.741C16.5228 18.4141 16.1436 19.0144 16.1859 19.7185C16.1516 19.7351 16.1275 19.7488 16.1026 19.7589C15.4633 20.0201 15.1155 20.5086 15.1345 21.1182C15.1527 21.7127 15.529 22.1881 16.1611 22.4089C16.8129 22.6369 17.4632 22.8707 18.1201 23.0835C18.7339 23.2819 19.3243 23.5986 20.0331 23.4724C19.9147 24.2869 19.7693 25.074 19.6962 25.8684C19.6444 26.4246 19.42 26.8784 19.0927 27.3113C18.1778 28.5234 17.2922 29.7564 16.3635 30.9583C15.8279 31.6524 15.6635 32.3638 16.0427 33.1704C16.0486 33.1812 16.0332 33.2021 16.023 33.2295H15.7307C14.1444 33.2295 12.5587 33.2295 10.9724 33.2295C10.5339 33.2295 10.2249 33.4114 10.0334 33.7995C9.85805 34.1537 9.67829 34.5051 9.5 34.8586V35.2915C9.71921 35.8167 10.1123 36.0007 10.6823 36C19.232 35.9899 27.7812 35.9877 36.33 35.9935C36.4031 35.9935 36.4761 35.9935 36.5492 35.9935C37.2762 35.9639 37.7008 35.3059 37.4048 34.6537ZM23.2796 15.811C23.5339 15.1805 24.0205 14.8349 24.6906 14.7765C25.3409 14.7202 25.867 14.9842 26.2331 15.5196C26.9368 16.5477 27.639 17.5772 28.3222 18.6219C28.6781 19.1637 29.1537 19.4242 29.807 19.404C30.3185 19.3874 30.83 19.3989 31.3415 19.404C31.6915 19.404 31.9005 19.575 31.9048 19.8535C31.9092 20.1319 31.6915 20.3217 31.3283 20.3231C30.8088 20.3231 30.2893 20.3231 29.7697 20.3231H28.2652C28.0225 20.3305 27.7818 20.2771 27.5656 20.1679C27.3494 20.0586 27.1647 19.8971 27.0289 19.6983C26.4633 18.9141 25.8948 18.1327 25.3314 17.3471C25.1992 17.1631 25.0391 17.0476 24.8031 17.0924C24.475 17.1537 24.3296 17.5173 24.5247 17.8139C24.7096 18.0916 24.904 18.3643 25.1093 18.627C25.1561 18.6805 25.1866 18.7461 25.197 18.8161C25.2075 18.8862 25.1976 18.9577 25.1685 19.0223C24.8404 19.9739 24.5284 20.9321 24.2003 21.8837C24.0015 22.4609 24.1097 22.9572 24.5174 23.4074C25.3987 24.3792 26.2711 25.3605 27.1538 26.3301C27.5186 26.715 27.7181 27.2244 27.7106 27.7514C27.7067 29.2179 27.7067 30.6849 27.7106 32.1524C27.7106 32.485 27.6178 32.7757 27.3569 32.9943C27.0778 33.2288 26.7607 33.3053 26.4165 33.1567C26.0599 33.003 25.851 32.7296 25.8473 32.34C25.8393 31.4403 25.8334 30.5363 25.8473 29.6402C25.8612 29.2309 25.7926 28.8229 25.6454 28.4399C25.4983 28.057 25.2756 27.7067 24.9902 27.4094C23.9292 26.2702 22.9033 25.1007 21.8482 23.9529C21.1905 23.2314 21.0071 22.4248 21.3162 21.5056C21.8416 19.9458 22.3633 18.3853 22.8931 16.8276C23.0085 16.4777 23.1452 16.1444 23.2796 15.811ZM28.6393 31.4266C28.6393 30.2116 28.6342 28.9967 28.6393 27.7817C28.656 27.0087 28.3663 26.2597 27.8319 25.6945C26.955 24.7407 26.1016 23.7696 25.2299 22.8129C25.0465 22.6109 24.9895 22.4118 25.0837 22.1492C25.338 21.4277 25.5755 20.7019 25.8203 19.9775C25.8422 19.9126 25.8736 19.8513 25.9175 19.7496C26.0439 19.9234 26.1491 20.0663 26.2528 20.2099C26.7502 20.8967 27.4264 21.2394 28.2813 21.238H30.9535V33.2093H28.3704C28.7036 32.6336 28.6386 32.0254 28.6393 31.4266ZM24.9127 31.8465C24.9252 32.2967 24.996 32.7454 25.0421 33.205H19.3689C19.4303 33.1148 19.4756 33.0412 19.5282 32.9741C20.5672 31.6423 21.5983 30.3047 22.6527 28.9851C23.0845 28.444 23.4148 27.8741 23.4623 27.1028C23.8561 27.5429 24.2113 27.9166 24.5393 28.312C24.8214 28.6525 24.9047 29.0659 24.9047 29.5003C24.904 30.2823 24.8915 31.0651 24.9127 31.8465ZM19.2863 13.2513C19.3974 12.9627 19.6173 12.8573 19.9191 12.9583C20.7706 13.244 21.6197 13.535 22.4663 13.8313C22.8112 13.9518 22.9128 14.1646 22.7886 14.5081C22.6424 14.9034 22.4824 15.2916 22.3114 15.7245L18.8318 14.534C18.9918 14.0795 19.1314 13.6625 19.2863 13.2498V13.2513ZM18.5264 15.4056L22.0067 16.5982C21.8087 17.1797 21.6158 17.7439 21.4127 18.342L17.9141 17.1458C18.1238 16.5491 18.3196 15.9914 18.5264 15.4056ZM19.4376 22.5395C18.4402 22.2047 17.4449 21.8606 16.449 21.5201C16.2057 21.4371 16.0646 21.2675 16.0836 21.015C16.0975 20.7943 16.2473 20.6543 16.468 20.6204C16.5668 20.6083 16.667 20.6199 16.7603 20.6543C17.3332 20.852 17.9038 21.0569 18.4745 21.2603C18.5476 21.2877 18.625 21.3231 18.7032 21.3462C18.9641 21.4234 19.1972 21.3231 19.2922 21.098C19.3175 21.0421 19.331 20.9817 19.3318 20.9205C19.3326 20.8592 19.3206 20.7985 19.2966 20.742C19.2726 20.6855 19.2372 20.6345 19.1924 20.5921C19.1477 20.5497 19.0946 20.5169 19.0364 20.4956C18.4933 20.2647 17.9467 20.0432 17.3967 19.8311C17.1651 19.7416 17.0832 19.58 17.1497 19.3657C17.2871 18.9213 17.4486 18.4848 17.6094 18.0173L21.0948 19.2085C21.078 19.2806 21.0692 19.3369 21.0502 19.3924C20.736 20.3202 20.4209 21.2473 20.1047 22.1737C19.9805 22.5272 19.7664 22.6499 19.4376 22.5395ZM16.962 31.7274C17.9272 30.4071 18.8764 29.0746 19.8789 27.7831C20.3298 27.2047 20.6019 26.51 20.6622 25.7825C20.7119 25.2861 20.7981 24.7941 20.8756 24.2472C21.4733 24.9074 22.0323 25.5213 22.5825 26.1432C22.6302 26.2144 22.6483 26.301 22.6329 26.3849C22.5759 26.7673 22.5197 27.1511 22.4327 27.527C22.3915 27.7097 22.3118 27.8818 22.1989 28.0321C20.9538 29.64 19.7021 31.2431 18.4438 32.8414C18.3684 32.9376 18.2745 33.0181 18.1675 33.0783C18.0605 33.1385 17.9425 33.1772 17.8202 33.1922C17.698 33.2073 17.574 33.1983 17.4553 33.1658C17.3365 33.1333 17.2255 33.078 17.1285 33.003C16.7201 32.6928 16.647 32.1603 16.962 31.7274ZM10.4375 35.0563C10.5902 34.7562 10.7298 34.4791 10.8759 34.2079C10.8949 34.1725 10.9636 34.153 11.0118 34.1465C11.0847 34.1398 11.158 34.1386 11.231 34.1429C19.4149 34.1429 27.5988 34.141 35.7827 34.1372C36.0384 34.1372 36.1824 34.2021 36.2701 34.4416C36.3597 34.6517 36.4607 34.8569 36.5726 35.0563H10.4375Z" fill="#676E76" stroke="#676E76" stroke-width="0.25"/>
<path d="M28.4226 8.14734C28.2479 8.09169 28.0692 8.04859 27.8929 8H27.0716C27.0089 8.02038 26.9478 8.04702 26.8843 8.06113C26.1306 8.21918 25.4665 8.66104 25.0296 9.2952C24.5927 9.92937 24.4163 10.7073 24.5371 11.4679C24.6454 12.1742 25.0036 12.8183 25.5465 13.2829C26.0894 13.7476 26.781 14.002 27.4956 14C28.2103 14.0013 28.902 13.7474 29.4462 13.2841C29.9904 12.8207 30.3514 12.1784 30.4641 11.4726C30.5742 10.7662 30.4292 10.0436 30.0551 9.43438C29.6811 8.82512 29.1024 8.36888 28.4226 8.14734ZM27.5097 12.9992C27.2451 13.0013 26.9828 12.9509 26.7379 12.8509C26.493 12.7509 26.2703 12.6034 26.0828 12.4168C25.8953 12.2302 25.7466 12.0083 25.6454 11.7639C25.5442 11.5195 25.4925 11.2575 25.4932 10.9929C25.499 10.4639 25.7126 9.95828 26.088 9.58539C26.4634 9.2125 26.9704 9.00223 27.4995 9C27.7615 9.0002 28.021 9.05204 28.2631 9.15256C28.5051 9.25307 28.725 9.40028 28.9101 9.58579C29.0953 9.7713 29.2421 9.99147 29.3421 10.2337C29.4421 10.476 29.4935 10.7355 29.4932 10.9976C29.4953 11.2596 29.4456 11.5194 29.347 11.762C29.2483 12.0046 29.1025 12.2254 28.9181 12.4114C28.7338 12.5975 28.5144 12.7452 28.2726 12.8461C28.0309 12.947 27.7716 12.999 27.5097 12.9992Z" fill="#676E76" stroke="#676E76" stroke-width="0.25"/>
</svg>
