<svg width="24" height="24" viewBox="0 0 24 24" fill="none" xmlns="http://www.w3.org/2000/svg">
<g clip-path="url(#clip0_747_7660)">
<path d="M4 2.5H20C20.8239 2.5 21.5 3.17614 21.5 4V16C21.5 16.8239 20.8239 17.5 20 17.5H6.41421C6.01639 17.5 5.63486 17.658 5.35355 17.9393L3.35355 19.9393C3.03857 20.2543 2.5 20.0312 2.5 19.5858V4C2.5 3.17614 3.17614 2.5 4 2.5Z" stroke="#676E76" stroke-linejoin="round"/>
</g>
<g clip-path="url(#clip1_747_7660)">
<path d="M7.33333 10.0001C7.33333 10.3683 7.63181 10.6667 8 10.6667H16C16.3682 10.6667 16.6667 10.3683 16.6667 10.0001C16.6667 9.63189 16.3682 9.33341 16 9.33341H8C7.63181 9.33341 7.33333 9.63189 7.33333 10.0001ZM6 12.6667C6 13.0349 6.29848 13.3334 6.66667 13.3334H14.6667C15.0349 13.3334 15.3333 13.0349 15.3333 12.6667C15.3333 12.2986 15.0349 12.0001 14.6667 12.0001H6.66667C6.29848 12.0001 6 12.2986 6 12.6667ZM9.33333 6.66675C8.96514 6.66675 8.66667 6.96522 8.66667 7.33341C8.66667 7.7016 8.96514 8.00008 9.33333 8.00008H17.3333C17.7015 8.00008 18 7.7016 18 7.33341C18 6.96522 17.7015 6.66675 17.3333 6.66675H9.33333Z" fill="#676E76"/>
</g>
<defs>
<clipPath id="clip0_747_7660">
<rect width="24" height="24" fill="white"/>
</clipPath>
<clipPath id="clip1_747_7660">
<rect width="16" height="16" fill="white" transform="translate(4 2)"/>
</clipPath>
</defs>
</svg>
