<svg width="49" height="49" viewBox="0 0 49 49" fill="none" xmlns="http://www.w3.org/2000/svg">
<g clip-path="url(#clip0_434_19656)">
<path d="M48.0528 20.7346C48.0528 20.6848 48.0453 20.6369 48.0342 20.5906V15.2716C48.034 15.2338 48.0302 15.1962 48.023 15.1591C48.0153 15.1156 48.003 15.073 47.9864 15.0321C47.985 15.0288 47.983 15.0257 47.9816 15.0225C47.9727 15.0015 47.9626 14.9811 47.9514 14.9613L43.8301 7.8382V6.53536C43.8301 5.60393 43.0723 4.84619 42.1409 4.84619H29.0092C28.0778 4.84619 27.3202 5.60393 27.3202 6.53536V7.83968L23.1998 14.9613C23.1891 14.9804 23.1794 15.0001 23.1708 15.0201C23.1688 15.0245 23.1664 15.0285 23.1645 15.0328C23.1513 15.0653 23.1409 15.0989 23.1333 15.1332C23.1312 15.1422 23.1296 15.1512 23.1279 15.1603C23.121 15.1964 23.1173 15.2331 23.1168 15.2699V30.3161H20.5846V25.0465C20.5846 23.6421 20.0466 22.3132 19.0696 21.3044C18.3199 20.5301 17.9853 19.9087 17.916 19.1196H17.9191C18.0826 19.1196 18.2394 19.0547 18.355 18.9391C18.4705 18.8235 18.5355 18.6667 18.5355 18.5033V16.1525C18.5355 15.3324 17.8682 14.6651 17.0481 14.6651H12.6737C11.8536 14.6651 11.1864 15.3324 11.1864 16.1525V18.5033C11.1864 18.6667 11.2513 18.8235 11.3669 18.9391C11.4825 19.0547 11.6393 19.1196 11.8027 19.1196H11.8631C11.794 19.9087 11.4594 20.5301 10.7094 21.3043C9.73241 22.3132 9.19446 23.6421 9.19446 25.0465V30.3161H6.82706C4.40012 30.3161 2.42583 32.2905 2.42583 34.7173V41.1392H2.38281C1.12398 41.1391 0.0996094 42.1634 0.0996094 43.4224V44.447C0.0996094 44.6105 0.164546 44.7672 0.280134 44.8828C0.395722 44.9984 0.552493 45.0633 0.715959 45.0633H31.83V45.0759H47.4177C47.5812 45.0759 47.738 45.011 47.8535 44.8954C47.9691 44.7798 48.0341 44.623 48.0341 44.4596V39.1119C48.0453 39.0655 48.0527 39.0177 48.0527 38.9679V20.7346H48.0528ZM24.3497 15.8864H38.3934V20.1183H24.3497V15.8864ZM43.2139 9.23448L46.3492 14.6537H40.0785L43.2139 9.23448ZM39.6261 21.3509H46.8014V38.3516H39.6261V21.3509ZM39.6261 20.1182V15.8862H46.8014V20.1182H39.6261ZM28.5529 6.53536C28.553 6.41436 28.6011 6.29835 28.6867 6.21277C28.7722 6.1272 28.8882 6.07905 29.0092 6.07889H42.1409C42.2619 6.07902 42.378 6.12715 42.4635 6.21273C42.5491 6.29831 42.5973 6.41434 42.5974 6.53536V7.38876H28.5529V6.53536ZM28.292 8.62158H42.1442L38.6542 14.6537H24.8021L28.292 8.62158ZM24.3497 21.3509H38.3934V38.3516H30.4855V34.8471C30.778 34.8988 31.0745 34.9249 31.3716 34.925C34.1692 34.925 36.4454 32.649 36.4454 29.8512C36.4454 27.0535 34.1692 24.7774 31.3716 24.7774C28.574 24.7774 26.2978 27.0535 26.2978 29.8512C26.2978 30.0091 26.3078 30.1662 26.3222 30.3226C26.2429 30.3183 26.1635 30.3161 26.0842 30.316H24.3496L24.3497 21.3509ZM26.0843 31.5487C27.8314 31.5487 29.2528 32.9701 29.2528 34.7172V41.1391H21.3465V34.7172C21.3465 33.4736 20.8273 32.3499 19.9954 31.5487H26.0843ZM27.5305 29.8512C27.5305 27.7332 29.2537 26.0101 31.3716 26.0101C33.4895 26.0101 35.2127 27.7333 35.2127 29.8512C35.2127 31.9691 33.4895 33.6923 31.3716 33.6923C31.0148 33.6923 30.6645 33.6412 30.3259 33.5455C29.9472 32.1765 28.9231 31.0728 27.6022 30.586C27.555 30.344 27.5309 30.0979 27.5305 29.8512ZM12.419 16.1524C12.419 16.0119 12.5332 15.8977 12.6736 15.8977H17.048C17.1885 15.8977 17.3027 16.012 17.3027 16.1524V17.8868H12.419V16.1524ZM11.5949 22.1618C12.3255 21.4072 13.0047 20.5153 13.098 19.1195H16.681C16.7743 20.5153 17.4535 21.4072 18.1842 22.1618C18.9371 22.9395 19.3519 23.964 19.3519 25.0464V30.316H10.427V25.0464C10.4249 23.9693 10.844 22.934 11.5949 22.1618ZM3.65853 34.7172C3.65853 32.9701 5.07996 31.5487 6.82706 31.5487H16.9453C18.6924 31.5487 20.1138 32.9701 20.1138 34.7172V41.1391H3.65853V34.7172ZM31.2137 43.8308H1.33231V43.4225C1.33231 42.8431 1.80357 42.3719 2.38281 42.3719H30.163C30.7423 42.3719 31.2135 42.8431 31.2135 43.4225V43.8308H31.2137ZM30.4855 41.1646V39.5843H38.3934V43.8432H32.4464V43.4224C32.4464 42.2731 31.592 41.322 30.4855 41.1646ZM39.6261 43.8432V39.5843H46.8014V43.8432H39.6261Z" fill="#24292E"/>
</g>
<defs>
<clipPath id="clip0_434_19656">
<rect width="47.9532" height="47.9532" fill="white" transform="translate(0.0996094 0.984375)"/>
</clipPath>
</defs>
</svg>
