<svg width="32" height="30" viewBox="0 0 32 30" fill="none" xmlns="http://www.w3.org/2000/svg">
<g clip-path="url(#clip0_527_24143)">
<path d="M12.0576 16.8345C11.3454 17.0476 10.7429 16.8982 10.1395 16.6703C9.48449 16.4221 8.81653 16.209 8.15596 15.9728C6.92337 15.5309 6.32369 14.3232 6.74808 13.0842C7.60179 10.595 8.46564 8.10985 9.33965 5.62868C9.77142 4.40532 10.9726 3.82132 12.1997 4.22173C13.03 4.49113 13.8521 4.78636 14.6759 5.07605C15.2268 5.26747 15.6825 5.66405 15.9482 6.18316L17.3321 5.72187C16.7425 5.07605 16.3707 4.30015 16.3689 3.37294C16.3605 2.92856 16.4428 2.48714 16.6108 2.07565C16.7788 1.66417 17.0289 1.29126 17.3459 0.979731C17.856 0.464155 18.5203 0.129001 19.2381 0.0251069C19.9558 -0.0787874 20.6879 0.0542474 21.3232 0.404033C22.6038 1.08583 23.2459 2.55091 22.9359 4.08426C22.6139 5.67666 21.4745 6.53098 19.4107 6.70996C19.4455 6.78038 19.4843 6.84876 19.5269 6.91478C20.5086 8.26361 21.4967 9.60783 22.4691 10.9631C22.5276 11.0591 22.6124 11.1362 22.7135 11.1853C22.8146 11.2343 22.9277 11.2533 23.0393 11.2399C23.4083 11.2187 23.7718 11.2344 24.1851 11.2344V9.49066C24.1851 9.30614 24.1787 9.12162 24.1851 8.93711C24.2017 8.55976 24.425 8.33373 24.7608 8.3448C25.0791 8.35587 25.283 8.57822 25.2867 8.94541C25.2922 9.62444 25.2867 10.3035 25.2867 10.9825C25.2867 11.0498 25.295 11.1172 25.2996 11.1799C26.6567 11.5905 27.1383 12.121 27.0784 13.1257C27.0276 13.9772 26.4141 14.5677 25.3079 14.7624C25.2341 19.4445 25.3005 24.1424 25.2895 28.8781H25.6926C27.2241 28.8781 28.7553 28.8781 30.2862 28.8781C30.4347 28.8724 30.5831 28.8914 30.7254 28.9343C30.8371 28.9697 30.9326 29.0438 30.9947 29.1432C31.0567 29.2426 31.0813 29.3609 31.064 29.4768C31.0602 29.5996 31.0122 29.7169 30.9288 29.8071C30.8454 29.8973 30.7322 29.9543 30.6101 29.9676C30.4842 29.9817 30.3574 29.986 30.2309 29.9806H0.988323C0.420005 29.9806 0.157989 29.809 0.153376 29.4381C0.148763 29.0672 0.430155 28.8762 0.978176 28.8762H7.93362C7.89621 28.8122 7.85492 28.7506 7.80999 28.6917C7.04792 27.8042 6.97965 26.7072 7.64945 25.7394C8.71413 24.1959 9.78157 22.6542 10.8675 21.1264C11.1615 20.7312 11.3621 20.2744 11.4542 19.7905C11.624 18.8338 11.8426 17.8715 12.0576 16.8345ZM22.9968 13.634C23.7672 13.634 24.5385 13.6405 25.3098 13.634C25.7425 13.6294 25.9999 13.372 25.9925 12.9818C25.9851 12.5915 25.7286 12.3562 25.2784 12.3562C24.4148 12.3479 23.5513 12.3387 22.6887 12.3562C22.5124 12.371 22.3355 12.3371 22.1772 12.2582C22.0189 12.1793 21.8853 12.0584 21.791 11.9088C20.7761 10.4852 19.729 9.0838 18.7104 7.66485C18.3294 7.13436 17.8607 6.81514 17.1928 6.92678C16.558 7.03287 16.2213 7.46003 16.0183 8.05326C15.224 10.3791 14.425 12.7041 13.5956 15.0188C13.233 16.0282 13.3908 16.888 14.0707 17.7128C15.4389 19.3735 16.7702 21.0646 18.1301 22.7345C18.3151 22.9543 18.4112 23.2354 18.3995 23.5224C18.3885 24.8343 18.3765 26.1463 18.4078 27.4573C18.4223 27.7864 18.5225 28.106 18.6984 28.3845C18.9964 28.8458 19.5943 28.9878 20.1146 28.8135C20.3792 28.7257 20.6084 28.555 20.7683 28.3266C20.9282 28.0983 21.0102 27.8245 21.0022 27.5458C21.0077 25.8427 20.9902 24.1396 21.0114 22.4365C21.0315 21.8246 20.8124 21.2289 20.4006 20.7758C19.2889 19.5008 18.2085 18.199 17.1033 16.9194C16.9872 16.8013 16.9066 16.653 16.8707 16.4913C16.8349 16.3297 16.8451 16.1612 16.9003 16.0051C17.2454 14.8251 17.5572 13.6359 17.8986 12.455C17.9788 12.1782 17.965 11.9641 17.7777 11.727C17.4723 11.3386 17.1974 10.9262 16.928 10.5111C16.8483 10.3959 16.8169 10.2542 16.8406 10.1162C16.8642 9.97825 16.941 9.85502 17.0544 9.77298C17.1716 9.68711 17.3179 9.65078 17.4617 9.67184C17.6055 9.6929 17.7352 9.76965 17.8229 9.88553C17.8893 9.96487 17.9456 10.0525 18.0074 10.1374C18.7667 11.2205 19.5288 12.3018 20.2789 13.3914C20.3262 13.4747 20.3963 13.5428 20.4809 13.5877C20.5656 13.6326 20.6612 13.6525 20.7568 13.6451C21.5004 13.6257 22.2486 13.635 22.9968 13.634ZM24.1713 28.8808V14.7402H23.7773C22.661 14.7402 21.5437 14.7264 20.4274 14.7467C20.039 14.7541 19.7733 14.6341 19.5703 14.3011C19.3544 13.9486 19.0979 13.6193 18.8258 13.2309C18.5601 14.1848 18.3239 15.0613 18.0692 15.9313C18.0348 16.0257 18.0281 16.1281 18.05 16.2262C18.0719 16.3243 18.1215 16.414 18.1929 16.4848C19.2585 17.7239 20.3093 18.9759 21.373 20.2158C21.8631 20.7747 22.1264 21.4968 22.1111 22.24C22.1056 23.3102 22.1388 24.3823 22.1019 25.4506C22.0613 26.5946 22.3353 27.77 21.7651 28.8781L24.1713 28.8808ZM9.51494 8.59298C9.48357 8.6345 9.46328 8.6511 9.45682 8.6714C8.89219 10.2841 8.31741 11.894 7.77031 13.5132C7.56642 14.1165 7.88656 14.7033 8.49363 14.9229C9.27046 15.1997 10.0519 15.4718 10.8333 15.7403C11.6148 16.0088 12.1775 15.7256 12.4543 14.9395C12.6825 14.29 12.9089 13.6402 13.1334 12.9901C13.4489 12.0832 13.7635 11.1772 14.0864 10.2463L9.51494 8.59298ZM12.9424 18.0459C12.7385 18.9685 12.5733 19.7988 12.3639 20.619C12.2949 20.8947 12.1778 21.1561 12.0179 21.3912C10.885 23.0399 9.73821 24.6784 8.59235 26.3179C8.37369 26.6315 8.24176 26.9637 8.32664 27.353C8.43551 27.8457 8.73443 28.1833 9.21971 28.3061C9.7622 28.4417 10.2106 28.2572 10.5584 27.8134C11.7098 26.3492 12.8197 24.8491 14.0375 23.4421C14.7497 22.6192 14.8909 21.6957 14.9407 20.7002C14.946 20.6215 14.9249 20.5432 14.8807 20.4778C14.2552 19.6863 13.6242 18.8993 12.9424 18.0459ZM11.1239 28.8707H17.6744C17.2131 28.176 17.2933 27.4324 17.2915 26.7007C17.2915 25.7117 17.2915 24.7227 17.2915 23.7337C17.2915 23.623 17.2915 23.4837 17.2361 23.4052C16.8394 22.8877 16.4261 22.3821 16.0368 21.8977C15.8578 22.3682 15.7332 22.8517 15.497 23.2724C15.2516 23.7088 14.9047 24.0898 14.592 24.4874C13.4443 25.9424 12.2966 27.3945 11.1239 28.8707ZM21.9183 3.33973C21.9172 3.04841 21.8588 2.76015 21.7463 2.49142C21.6338 2.2227 21.4694 1.97876 21.2627 1.77353C21.0559 1.56831 20.8108 1.40582 20.5412 1.29534C20.2716 1.18486 19.9829 1.12856 19.6916 1.12965C19.4003 1.13074 19.112 1.1892 18.8433 1.30169C18.5746 1.41418 18.3306 1.57851 18.1254 1.78527C17.9202 1.99204 17.7577 2.2372 17.6472 2.50676C17.5368 2.77633 17.4805 3.06501 17.4815 3.35633C17.486 3.94294 17.7196 4.50457 18.1324 4.92136C18.5452 5.33814 19.1046 5.57707 19.6912 5.58717C20.9044 5.59916 21.9155 4.57877 21.9155 3.34342L21.9183 3.33973ZM14.4527 9.19635L14.9785 7.69714C15.0044 7.62149 15.033 7.54583 15.0514 7.46741C15.1824 6.9074 14.9195 6.35015 14.3761 6.14718C13.5052 5.82243 12.6269 5.51797 11.7412 5.23381C11.267 5.07974 10.7143 5.29286 10.5058 5.74677C10.2466 6.31417 10.063 6.91662 9.83693 7.5283L14.4527 9.19635Z" fill="#07C8B9"/>
</g>
<defs>
<clipPath id="clip0_527_24143">
<rect width="30.9235" height="30" fill="white" transform="translate(0.15332)"/>
</clipPath>
</defs>
</svg>
