<svg width="24" height="24" viewBox="0 0 24 24" fill="none" xmlns="http://www.w3.org/2000/svg">
<path fill-rule="evenodd" clip-rule="evenodd" d="M10.0803 18.5928H3.7793C3.3653 18.5928 3.0293 18.2568 3.0293 17.8428C3.0293 17.4288 3.3653 17.0928 3.7793 17.0928H10.0803C10.4943 17.0928 10.8303 17.4288 10.8303 17.8428C10.8303 18.2568 10.4943 18.5928 10.0803 18.5928Z" fill="#1A1D1F"/>
<path d="M10.0803 18.5928H3.7793C3.3653 18.5928 3.0293 18.2568 3.0293 17.8428C3.0293 17.4288 3.3653 17.0928 3.7793 17.0928H10.0803C10.4943 17.0928 10.8303 17.4288 10.8303 17.8428C10.8303 18.2568 10.4943 18.5928 10.0803 18.5928" stroke="#1A1D1F" stroke-width="0.5"/>
<path fill-rule="evenodd" clip-rule="evenodd" d="M19.1911 8.90039H12.8911C12.4771 8.90039 12.1411 8.56439 12.1411 8.15039C12.1411 7.73639 12.4771 7.40039 12.8911 7.40039H19.1911C19.6051 7.40039 19.9411 7.73639 19.9411 8.15039C19.9411 8.56439 19.6051 8.90039 19.1911 8.90039Z" fill="#1A1D1F"/>
<path d="M19.1911 8.90039H12.8911C12.4771 8.90039 12.1411 8.56439 12.1411 8.15039C12.1411 7.73639 12.4771 7.40039 12.8911 7.40039H19.1911C19.6051 7.40039 19.9411 7.73639 19.9411 8.15039C19.9411 8.56439 19.6051 8.90039 19.1911 8.90039" stroke="#1A1D1F" stroke-width="0.5"/>
<mask id="mask0_747_709" style="mask-type:luminance" maskUnits="userSpaceOnUse" x="2" y="4" width="8" height="8">
<path fill-rule="evenodd" clip-rule="evenodd" d="M3 5.00049H9.2258V11.1921H3V5.00049Z" fill="white" stroke="white" stroke-width="0.5"/>
</mask>
<g mask="url(#mask0_747_709)">
<path fill-rule="evenodd" clip-rule="evenodd" d="M6.113 6.5C5.224 6.5 4.5 7.216 4.5 8.097C4.5 8.977 5.224 9.692 6.113 9.692C7.003 9.692 7.726 8.977 7.726 8.097C7.726 7.216 7.003 6.5 6.113 6.5ZM6.113 11.192C4.397 11.192 3 9.804 3 8.097C3 6.39 4.397 5 6.113 5C7.83 5 9.226 6.39 9.226 8.097C9.226 9.804 7.83 11.192 6.113 11.192Z" fill="#1A1D1F"/>
<path d="M6.113 6.25C5.08837 6.25 4.25 7.0755 4.25 8.097H4.75C4.75 7.3565 5.35963 6.75 6.113 6.75V6.25ZM4.25 8.097C4.25 9.1178 5.08868 9.942 6.113 9.942V9.442C5.35932 9.442 4.75 8.8362 4.75 8.097H4.25ZM6.113 9.942C7.13843 9.942 7.976 9.1177 7.976 8.097H7.476C7.476 8.8363 6.86757 9.442 6.113 9.442V9.942ZM7.976 8.097C7.976 7.0756 7.13873 6.25 6.113 6.25V6.75C6.86727 6.75 7.476 7.3564 7.476 8.097H7.976ZM6.113 10.942C4.53365 10.942 3.25 9.66452 3.25 8.097H2.75C2.75 9.94348 4.26035 11.442 6.113 11.442V10.942ZM3.25 8.097C3.25 6.52927 4.53386 5.25 6.113 5.25V4.75C4.26014 4.75 2.75 6.25073 2.75 8.097H3.25ZM6.113 5.25C7.69308 5.25 8.976 6.52922 8.976 8.097H9.476C9.476 6.25078 7.96692 4.75 6.113 4.75V5.25ZM8.976 8.097C8.976 9.66457 7.69329 10.942 6.113 10.942V11.442C7.96671 11.442 9.476 9.94343 9.476 8.097H8.976Z" fill="#1A1D1F"/>
</g>
<path fill-rule="evenodd" clip-rule="evenodd" d="M17.3879 16.208C16.4979 16.208 15.7739 16.924 15.7739 17.804C15.7739 18.685 16.4979 19.4 17.3879 19.4C18.2769 19.4 18.9999 18.685 18.9999 17.804C18.9999 16.924 18.2769 16.208 17.3879 16.208ZM17.3879 20.9C15.6709 20.9 14.2739 19.511 14.2739 17.804C14.2739 16.097 15.6709 14.708 17.3879 14.708C19.1039 14.708 20.4999 16.097 20.4999 17.804C20.4999 19.511 19.1039 20.9 17.3879 20.9Z" fill="#1A1D1F"/>
<path d="M17.3879 15.958C16.3625 15.958 15.5239 16.7833 15.5239 17.804H16.0239C16.0239 17.0647 16.6334 16.458 17.3879 16.458V15.958ZM15.5239 17.804C15.5239 18.8258 16.3626 19.65 17.3879 19.65V19.15C16.6333 19.15 16.0239 18.5442 16.0239 17.804H15.5239ZM17.3879 19.65C18.4126 19.65 19.2499 18.8255 19.2499 17.804H18.7499C18.7499 18.5445 18.1413 19.15 17.3879 19.15V19.65ZM19.2499 17.804C19.2499 16.7836 18.4127 15.958 17.3879 15.958V16.458C18.1412 16.458 18.7499 17.0644 18.7499 17.804H19.2499ZM17.3879 20.65C15.8076 20.65 14.5239 19.3716 14.5239 17.804H14.0239C14.0239 19.6504 15.5342 21.15 17.3879 21.15V20.65ZM14.5239 17.804C14.5239 16.2364 15.8076 14.958 17.3879 14.958V14.458C15.5342 14.458 14.0239 15.9576 14.0239 17.804H14.5239ZM17.3879 14.958C18.9671 14.958 20.2499 16.2363 20.2499 17.804H20.7499C20.7499 15.9577 19.2408 14.458 17.3879 14.458V14.958ZM20.2499 17.804C20.2499 19.3717 18.9671 20.65 17.3879 20.65V21.15C19.2408 21.15 20.7499 19.6503 20.7499 17.804H20.2499Z" fill="#1A1D1F"/>
</svg>
