<svg width="20" height="20" viewBox="0 0 20 20" fill="none" xmlns="http://www.w3.org/2000/svg">
<g clip-path="url(#clip0_488_21249)">
<path d="M10 19.3403L10.0003 19.3403C12.4766 19.3374 14.8505 18.3524 16.6015 16.6015C18.3524 14.8505 19.3374 12.4765 19.3403 10.0003V10C19.3403 8.15267 18.7925 6.34682 17.7662 4.81082C16.7398 3.27482 15.2811 2.07765 13.5744 1.37071C11.8677 0.663765 9.98964 0.478796 8.17781 0.839193C6.36597 1.19959 4.70169 2.08917 3.39543 3.39543C2.08917 4.70169 1.19959 6.36597 0.839197 8.1778C0.478801 9.98964 0.663769 11.8677 1.37071 13.5744C2.07766 15.2811 3.27482 16.7398 4.81082 17.7662C6.34683 18.7925 8.15267 19.3403 10 19.3403ZM4.77224 2.1761C6.31963 1.14217 8.13885 0.590306 9.99986 0.590278C12.4947 0.593052 14.8865 1.58534 16.6506 3.34943C18.4146 5.11349 19.4069 7.50525 19.4097 10C19.4097 11.8611 18.8579 13.6803 17.8239 15.2278C16.79 16.7752 15.3204 17.9813 13.601 18.6935C11.8815 19.4057 9.98957 19.592 8.16426 19.2289C6.33895 18.8658 4.6623 17.9697 3.34633 16.6537C2.03035 15.3377 1.13416 13.6611 0.771087 11.8357C0.408011 10.0104 0.594355 8.11846 1.30655 6.39906C2.01875 4.67965 3.22482 3.21006 4.77224 2.1761Z" fill="white" stroke="#24292E" stroke-width="0.555556"/>
<path d="M14.375 13.0903L14.3753 13.0903C14.8631 13.0897 15.3308 12.8957 15.6757 12.5507C16.0207 12.2058 16.2147 11.7381 16.2153 11.2503V11.25C16.2153 10.886 16.1073 10.5302 15.9051 10.2276C15.7029 9.92496 15.4155 9.68909 15.0792 9.5498C14.743 9.41052 14.373 9.37408 14.016 9.44508C13.659 9.51609 13.3311 9.69136 13.0737 9.94873C12.8164 10.2061 12.6411 10.534 12.5701 10.891C12.4991 11.248 12.5355 11.618 12.6748 11.9542C12.8141 12.2905 13.05 12.5779 13.3526 12.7801C13.6552 12.9823 14.011 13.0903 14.375 13.0903ZM13.314 9.66212C13.628 9.45231 13.9972 9.34031 14.3748 9.34028C14.8811 9.34098 15.3665 9.54242 15.7246 9.90044C16.0826 10.2585 16.2841 10.744 16.2847 11.2504C16.2847 11.6279 16.1727 11.997 15.9629 12.311C15.753 12.625 15.4548 12.8698 15.1058 13.0144C14.7569 13.1589 14.3729 13.1967 14.0024 13.123C13.632 13.0493 13.2917 12.8675 13.0246 12.6004C12.7575 12.3333 12.5757 11.993 12.502 11.6226C12.4283 11.2521 12.4661 10.8681 12.6106 10.5192C12.7552 10.1702 13 9.87197 13.314 9.66212Z" fill="#24292E" stroke="#24292E" stroke-width="0.555556"/>
<mask id="path-3-inside-1_488_21249" fill="white">
<path d="M10.4925 1.59381C10.4391 1.61895 10.3939 1.65872 10.3622 1.70849C10.3304 1.75827 10.3134 1.81602 10.3132 1.87506V2.50912C9.19531 2.46412 8.08151 2.66906 7.0529 3.109C6.02429 3.54895 5.10678 4.21282 4.36721 5.05224C4.1634 5.10796 3.97754 5.21564 3.82784 5.36474L3.7444 5.44881C2.54728 6.66069 1.87598 8.29551 1.87598 9.99896C1.87598 11.7024 2.54728 13.3372 3.7444 14.5491L3.82815 14.6338C3.97771 14.7828 4.16333 14.8905 4.3669 14.9463C5.02061 15.6914 5.81563 16.2995 6.70594 16.7353C7.59624 17.1711 8.56415 17.426 9.55363 17.4851C10.5431 17.5443 11.5345 17.4066 12.4704 17.08C13.4063 16.7535 14.2681 16.2445 15.006 15.5826C15.061 15.5529 15.1166 15.5247 15.1703 15.4932L15.9638 15.0244C16.6131 14.659 17.1548 14.129 17.5343 13.4878C17.9138 12.8465 18.1178 12.1167 18.1257 11.3716C18.1205 10.747 17.976 10.1313 17.7026 9.56965C17.4292 9.00798 17.0338 8.51444 16.5453 8.12506H17.8132C17.8775 8.12507 17.9403 8.10522 17.9929 8.06822C18.0455 8.03121 18.0855 7.97887 18.1073 7.91832C18.129 7.85778 18.1316 7.79199 18.1146 7.72994C18.0976 7.66788 18.0618 7.61259 18.0122 7.57162L10.8247 1.63412C10.7789 1.5966 10.7233 1.57289 10.6645 1.56575C10.6057 1.55862 10.546 1.56834 10.4925 1.59381ZM10.3132 3.13849V7.81256C10.3132 7.89544 10.3461 7.97492 10.4047 8.03353C10.4633 8.09213 10.5428 8.12506 10.6257 8.12506H11.3785C11.0945 8.49304 10.9398 8.94433 10.9382 9.40912C10.9371 9.62096 10.8917 9.83023 10.805 10.0235C10.7182 10.2168 10.592 10.3897 10.4344 10.5313L9.62565 11.2813C9.30434 11.5789 9.05905 11.9491 8.91034 12.361C8.37967 11.6367 8.10842 10.7547 8.14034 9.85735C8.17226 8.95999 8.50548 8.09954 9.08628 7.41474L9.39346 7.05349C9.59429 6.81446 9.69893 6.50922 9.68697 6.19725C9.67501 5.88528 9.54732 5.58895 9.32878 5.36599C9.21456 5.24966 9.07822 5.15735 8.92779 5.09451C8.77736 5.03166 8.61587 4.99955 8.45284 5.00006C8.29 4.99968 8.12872 5.03183 7.97846 5.09462C7.82821 5.1574 7.692 5.24956 7.57784 5.36568L7.50909 5.43474C7.48971 5.41193 7.47378 5.38693 7.45253 5.36537C7.3384 5.2493 7.20225 5.15719 7.05204 5.09446C6.90184 5.03173 6.74062 4.99963 6.57784 5.00006C6.415 4.99968 6.25372 5.03183 6.10346 5.09462C5.95321 5.1574 5.817 5.24956 5.70284 5.36568L5.63409 5.43474C5.61471 5.41193 5.59878 5.38693 5.57753 5.36537C5.46491 5.25153 5.33116 5.16077 5.18378 5.09818C6.46824 3.83382 8.1983 3.12513 10.0007 3.12506C10.1044 3.12506 10.2088 3.13381 10.3132 3.13849ZM7.51659 12.9479L7.20971 12.5866C6.59712 11.864 6.26089 10.9474 6.26089 10.0001C6.26089 9.05271 6.59712 8.13612 7.20971 7.41349L7.5169 7.05224C7.63226 6.91447 7.71647 6.75338 7.76378 6.58003C7.81108 6.40667 7.82035 6.22514 7.79096 6.04787C7.83971 5.99474 7.88721 5.94099 7.93815 5.88974L8.02159 5.80537C8.07783 5.74818 8.14491 5.70278 8.2189 5.67182C8.29289 5.64086 8.37232 5.62496 8.45253 5.62506C8.53269 5.62499 8.61205 5.6409 8.68599 5.67186C8.75993 5.70282 8.82696 5.7482 8.88315 5.80537C8.99196 5.91683 9.05542 6.06478 9.0612 6.22044C9.06698 6.37609 9.01465 6.52834 8.9144 6.64756L8.60784 7.00881C7.899 7.84449 7.50991 8.90471 7.50991 10.0005C7.50991 11.0963 7.899 12.1566 8.60784 12.9922L8.75315 13.1619C8.75315 13.1872 8.74909 13.2122 8.74909 13.2376C8.75082 13.5473 8.80819 13.8543 8.91846 14.1438C8.90534 14.1601 8.89659 14.1791 8.8819 14.1941C8.82594 14.2512 8.7592 14.2966 8.68554 14.3277C8.61188 14.3587 8.53278 14.3748 8.45284 14.3751C8.3727 14.3752 8.29335 14.3593 8.21941 14.3284C8.14547 14.2975 8.07843 14.2522 8.02221 14.1951L7.93815 14.1097C7.88753 14.0588 7.84003 14.0051 7.79128 13.9535C7.82079 13.776 7.81152 13.5942 7.7641 13.4206C7.71669 13.247 7.63225 13.0857 7.51659 12.9479ZM5.64159 12.9479L5.33471 12.5866C4.72212 11.864 4.38589 10.9474 4.38589 10.0001C4.38589 9.05271 4.72212 8.13612 5.33471 7.41349L5.6419 7.05224C5.75726 6.91447 5.84147 6.75338 5.88877 6.58003C5.93608 6.40667 5.94535 6.22514 5.91596 6.04787C5.96471 5.99474 6.01221 5.94099 6.06315 5.88974L6.14659 5.80537C6.20283 5.74818 6.26991 5.70278 6.3439 5.67182C6.41789 5.64086 6.49732 5.62496 6.57753 5.62506C6.65769 5.62499 6.73705 5.6409 6.81099 5.67186C6.88493 5.70282 6.95196 5.7482 7.00815 5.80537C7.11696 5.91683 7.18042 6.06478 7.1862 6.22044C7.19198 6.37609 7.13965 6.52834 7.0394 6.64756L6.73284 7.00881C6.02425 7.84442 5.63531 8.90445 5.63531 10.0001C5.63531 11.0957 6.02425 12.1557 6.73284 12.9913L7.03909 13.3526C7.13985 13.4718 7.19249 13.6244 7.18671 13.7805C7.18093 13.9365 7.11715 14.0848 7.00784 14.1963C6.95159 14.2531 6.88461 14.2982 6.81079 14.3289C6.73697 14.3595 6.65778 14.3752 6.57784 14.3751C6.4977 14.3752 6.41835 14.3593 6.34441 14.3284C6.27047 14.2975 6.20343 14.2522 6.14721 14.1951L6.06315 14.1097C6.01253 14.0588 5.96503 14.0051 5.91628 13.9535C5.94579 13.776 5.93652 13.5942 5.8891 13.4206C5.84169 13.247 5.75725 13.0857 5.64159 12.9479ZM4.18815 14.1101C3.10753 13.0153 2.50162 11.5389 2.50162 10.0007C2.50162 8.46242 3.10753 6.98607 4.18815 5.89131L4.27159 5.80693C4.3277 5.74946 4.39472 5.70377 4.46872 5.67254C4.54272 5.64131 4.62221 5.62517 4.70253 5.62506C4.78269 5.62499 4.86205 5.6409 4.93599 5.67186C5.00993 5.70282 5.07696 5.7482 5.13315 5.80537C5.24196 5.91683 5.30542 6.06478 5.3112 6.22044C5.31698 6.37609 5.26465 6.52834 5.1644 6.64756L4.85784 7.00881C4.14925 7.84442 3.76031 8.90445 3.76031 10.0001C3.76031 11.0957 4.14925 12.1557 4.85784 12.9913L5.16409 13.3526C5.26485 13.4718 5.31749 13.6244 5.31171 13.7805C5.30593 13.9365 5.24215 14.0848 5.13284 14.1963C5.07659 14.2531 5.00961 14.2982 4.93579 14.3289C4.86197 14.3595 4.78278 14.3752 4.70284 14.3751C4.6227 14.3752 4.54335 14.3593 4.46941 14.3284C4.39547 14.2975 4.32843 14.2522 4.27221 14.1951L4.18815 14.1101ZM10.0007 16.8751C8.19819 16.8751 6.468 16.1664 5.18346 14.9019C5.33085 14.8393 5.4646 14.7486 5.57721 14.6347C5.59846 14.6132 5.6144 14.5879 5.63409 14.5651L5.70284 14.6347C5.81698 14.7508 5.95315 14.8429 6.10334 14.9056C6.25354 14.9683 6.41475 15.0004 6.57753 15.0001C6.74036 15.0005 6.90164 14.9684 7.0519 14.9057C7.20216 14.843 7.33837 14.7509 7.45253 14.6347C7.47378 14.6132 7.48971 14.5879 7.5094 14.5651L7.57815 14.6347C7.69226 14.7507 7.82837 14.8428 7.97851 14.9055C8.12866 14.9683 8.28981 15.0004 8.45253 15.0001C8.73257 14.999 9.00365 14.9013 9.22003 14.7235C9.33635 14.8953 9.47168 15.0533 9.62346 15.1947C10.3729 15.881 11.3543 16.258 12.3703 16.2501C12.5547 16.2501 12.7378 16.2379 12.92 16.2188C12.0071 16.6498 11.0102 16.8739 10.0007 16.8751ZM17.5007 11.3716C17.4925 12.0083 17.3168 12.6316 16.9912 13.1789C16.6656 13.7261 16.2017 14.1779 15.646 14.4888L14.8525 14.9576C14.0995 15.3974 13.2425 15.6279 12.3703 15.6251C11.5127 15.6281 10.6847 15.3112 10.0482 14.7363C9.83655 14.5481 9.66719 14.3172 9.55121 14.0589C9.43524 13.8006 9.37528 13.5206 9.37528 13.2374C9.37528 12.9542 9.43524 12.6742 9.55121 12.4159C9.66719 12.1575 9.83655 11.9267 10.0482 11.7385L10.8585 10.9885C11.0781 10.7877 11.254 10.5439 11.3752 10.2722C11.4964 10.0004 11.5604 9.70665 11.5632 9.40912C11.5849 8.96586 11.7812 8.54921 12.109 8.2501C12.4369 7.95099 12.8698 7.7937 13.3132 7.81256H13.8944C14.8428 7.81215 15.7532 8.1855 16.4282 8.8517C17.1033 9.5179 17.4886 10.4233 17.5007 11.3716ZM10.9382 2.53849L16.9444 7.50006H15.49C14.9832 7.29436 14.4414 7.18826 13.8944 7.18756H13.3132C12.8903 7.18703 12.4743 7.29461 12.1047 7.50006H10.9382V2.53849Z"/>
</mask>
<path d="M10.4925 1.59381C10.4391 1.61895 10.3939 1.65872 10.3622 1.70849C10.3304 1.75827 10.3134 1.81602 10.3132 1.87506V2.50912C9.19531 2.46412 8.08151 2.66906 7.0529 3.109C6.02429 3.54895 5.10678 4.21282 4.36721 5.05224C4.1634 5.10796 3.97754 5.21564 3.82784 5.36474L3.7444 5.44881C2.54728 6.66069 1.87598 8.29551 1.87598 9.99896C1.87598 11.7024 2.54728 13.3372 3.7444 14.5491L3.82815 14.6338C3.97771 14.7828 4.16333 14.8905 4.3669 14.9463C5.02061 15.6914 5.81563 16.2995 6.70594 16.7353C7.59624 17.1711 8.56415 17.426 9.55363 17.4851C10.5431 17.5443 11.5345 17.4066 12.4704 17.08C13.4063 16.7535 14.2681 16.2445 15.006 15.5826C15.061 15.5529 15.1166 15.5247 15.1703 15.4932L15.9638 15.0244C16.6131 14.659 17.1548 14.129 17.5343 13.4878C17.9138 12.8465 18.1178 12.1167 18.1257 11.3716C18.1205 10.747 17.976 10.1313 17.7026 9.56965C17.4292 9.00798 17.0338 8.51444 16.5453 8.12506H17.8132C17.8775 8.12507 17.9403 8.10522 17.9929 8.06822C18.0455 8.03121 18.0855 7.97887 18.1073 7.91832C18.129 7.85778 18.1316 7.79199 18.1146 7.72994C18.0976 7.66788 18.0618 7.61259 18.0122 7.57162L10.8247 1.63412C10.7789 1.5966 10.7233 1.57289 10.6645 1.56575C10.6057 1.55862 10.546 1.56834 10.4925 1.59381ZM10.3132 3.13849V7.81256C10.3132 7.89544 10.3461 7.97492 10.4047 8.03353C10.4633 8.09213 10.5428 8.12506 10.6257 8.12506H11.3785C11.0945 8.49304 10.9398 8.94433 10.9382 9.40912C10.9371 9.62096 10.8917 9.83023 10.805 10.0235C10.7182 10.2168 10.592 10.3897 10.4344 10.5313L9.62565 11.2813C9.30434 11.5789 9.05905 11.9491 8.91034 12.361C8.37967 11.6367 8.10842 10.7547 8.14034 9.85735C8.17226 8.95999 8.50548 8.09954 9.08628 7.41474L9.39346 7.05349C9.59429 6.81446 9.69893 6.50922 9.68697 6.19725C9.67501 5.88528 9.54732 5.58895 9.32878 5.36599C9.21456 5.24966 9.07822 5.15735 8.92779 5.09451C8.77736 5.03166 8.61587 4.99955 8.45284 5.00006C8.29 4.99968 8.12872 5.03183 7.97846 5.09462C7.82821 5.1574 7.692 5.24956 7.57784 5.36568L7.50909 5.43474C7.48971 5.41193 7.47378 5.38693 7.45253 5.36537C7.3384 5.2493 7.20225 5.15719 7.05204 5.09446C6.90184 5.03173 6.74062 4.99963 6.57784 5.00006C6.415 4.99968 6.25372 5.03183 6.10346 5.09462C5.95321 5.1574 5.817 5.24956 5.70284 5.36568L5.63409 5.43474C5.61471 5.41193 5.59878 5.38693 5.57753 5.36537C5.46491 5.25153 5.33116 5.16077 5.18378 5.09818C6.46824 3.83382 8.1983 3.12513 10.0007 3.12506C10.1044 3.12506 10.2088 3.13381 10.3132 3.13849ZM7.51659 12.9479L7.20971 12.5866C6.59712 11.864 6.26089 10.9474 6.26089 10.0001C6.26089 9.05271 6.59712 8.13612 7.20971 7.41349L7.5169 7.05224C7.63226 6.91447 7.71647 6.75338 7.76378 6.58003C7.81108 6.40667 7.82035 6.22514 7.79096 6.04787C7.83971 5.99474 7.88721 5.94099 7.93815 5.88974L8.02159 5.80537C8.07783 5.74818 8.14491 5.70278 8.2189 5.67182C8.29289 5.64086 8.37232 5.62496 8.45253 5.62506C8.53269 5.62499 8.61205 5.6409 8.68599 5.67186C8.75993 5.70282 8.82696 5.7482 8.88315 5.80537C8.99196 5.91683 9.05542 6.06478 9.0612 6.22044C9.06698 6.37609 9.01465 6.52834 8.9144 6.64756L8.60784 7.00881C7.899 7.84449 7.50991 8.90471 7.50991 10.0005C7.50991 11.0963 7.899 12.1566 8.60784 12.9922L8.75315 13.1619C8.75315 13.1872 8.74909 13.2122 8.74909 13.2376C8.75082 13.5473 8.80819 13.8543 8.91846 14.1438C8.90534 14.1601 8.89659 14.1791 8.8819 14.1941C8.82594 14.2512 8.7592 14.2966 8.68554 14.3277C8.61188 14.3587 8.53278 14.3748 8.45284 14.3751C8.3727 14.3752 8.29335 14.3593 8.21941 14.3284C8.14547 14.2975 8.07843 14.2522 8.02221 14.1951L7.93815 14.1097C7.88753 14.0588 7.84003 14.0051 7.79128 13.9535C7.82079 13.776 7.81152 13.5942 7.7641 13.4206C7.71669 13.247 7.63225 13.0857 7.51659 12.9479ZM5.64159 12.9479L5.33471 12.5866C4.72212 11.864 4.38589 10.9474 4.38589 10.0001C4.38589 9.05271 4.72212 8.13612 5.33471 7.41349L5.6419 7.05224C5.75726 6.91447 5.84147 6.75338 5.88877 6.58003C5.93608 6.40667 5.94535 6.22514 5.91596 6.04787C5.96471 5.99474 6.01221 5.94099 6.06315 5.88974L6.14659 5.80537C6.20283 5.74818 6.26991 5.70278 6.3439 5.67182C6.41789 5.64086 6.49732 5.62496 6.57753 5.62506C6.65769 5.62499 6.73705 5.6409 6.81099 5.67186C6.88493 5.70282 6.95196 5.7482 7.00815 5.80537C7.11696 5.91683 7.18042 6.06478 7.1862 6.22044C7.19198 6.37609 7.13965 6.52834 7.0394 6.64756L6.73284 7.00881C6.02425 7.84442 5.63531 8.90445 5.63531 10.0001C5.63531 11.0957 6.02425 12.1557 6.73284 12.9913L7.03909 13.3526C7.13985 13.4718 7.19249 13.6244 7.18671 13.7805C7.18093 13.9365 7.11715 14.0848 7.00784 14.1963C6.95159 14.2531 6.88461 14.2982 6.81079 14.3289C6.73697 14.3595 6.65778 14.3752 6.57784 14.3751C6.4977 14.3752 6.41835 14.3593 6.34441 14.3284C6.27047 14.2975 6.20343 14.2522 6.14721 14.1951L6.06315 14.1097C6.01253 14.0588 5.96503 14.0051 5.91628 13.9535C5.94579 13.776 5.93652 13.5942 5.8891 13.4206C5.84169 13.247 5.75725 13.0857 5.64159 12.9479ZM4.18815 14.1101C3.10753 13.0153 2.50162 11.5389 2.50162 10.0007C2.50162 8.46242 3.10753 6.98607 4.18815 5.89131L4.27159 5.80693C4.3277 5.74946 4.39472 5.70377 4.46872 5.67254C4.54272 5.64131 4.62221 5.62517 4.70253 5.62506C4.78269 5.62499 4.86205 5.6409 4.93599 5.67186C5.00993 5.70282 5.07696 5.7482 5.13315 5.80537C5.24196 5.91683 5.30542 6.06478 5.3112 6.22044C5.31698 6.37609 5.26465 6.52834 5.1644 6.64756L4.85784 7.00881C4.14925 7.84442 3.76031 8.90445 3.76031 10.0001C3.76031 11.0957 4.14925 12.1557 4.85784 12.9913L5.16409 13.3526C5.26485 13.4718 5.31749 13.6244 5.31171 13.7805C5.30593 13.9365 5.24215 14.0848 5.13284 14.1963C5.07659 14.2531 5.00961 14.2982 4.93579 14.3289C4.86197 14.3595 4.78278 14.3752 4.70284 14.3751C4.6227 14.3752 4.54335 14.3593 4.46941 14.3284C4.39547 14.2975 4.32843 14.2522 4.27221 14.1951L4.18815 14.1101ZM10.0007 16.8751C8.19819 16.8751 6.468 16.1664 5.18346 14.9019C5.33085 14.8393 5.4646 14.7486 5.57721 14.6347C5.59846 14.6132 5.6144 14.5879 5.63409 14.5651L5.70284 14.6347C5.81698 14.7508 5.95315 14.8429 6.10334 14.9056C6.25354 14.9683 6.41475 15.0004 6.57753 15.0001C6.74036 15.0005 6.90164 14.9684 7.0519 14.9057C7.20216 14.843 7.33837 14.7509 7.45253 14.6347C7.47378 14.6132 7.48971 14.5879 7.5094 14.5651L7.57815 14.6347C7.69226 14.7507 7.82837 14.8428 7.97851 14.9055C8.12866 14.9683 8.28981 15.0004 8.45253 15.0001C8.73257 14.999 9.00365 14.9013 9.22003 14.7235C9.33635 14.8953 9.47168 15.0533 9.62346 15.1947C10.3729 15.881 11.3543 16.258 12.3703 16.2501C12.5547 16.2501 12.7378 16.2379 12.92 16.2188C12.0071 16.6498 11.0102 16.8739 10.0007 16.8751ZM17.5007 11.3716C17.4925 12.0083 17.3168 12.6316 16.9912 13.1789C16.6656 13.7261 16.2017 14.1779 15.646 14.4888L14.8525 14.9576C14.0995 15.3974 13.2425 15.6279 12.3703 15.6251C11.5127 15.6281 10.6847 15.3112 10.0482 14.7363C9.83655 14.5481 9.66719 14.3172 9.55121 14.0589C9.43524 13.8006 9.37528 13.5206 9.37528 13.2374C9.37528 12.9542 9.43524 12.6742 9.55121 12.4159C9.66719 12.1575 9.83655 11.9267 10.0482 11.7385L10.8585 10.9885C11.0781 10.7877 11.254 10.5439 11.3752 10.2722C11.4964 10.0004 11.5604 9.70665 11.5632 9.40912C11.5849 8.96586 11.7812 8.54921 12.109 8.2501C12.4369 7.95099 12.8698 7.7937 13.3132 7.81256H13.8944C14.8428 7.81215 15.7532 8.1855 16.4282 8.8517C17.1033 9.5179 17.4886 10.4233 17.5007 11.3716ZM10.9382 2.53849L16.9444 7.50006H15.49C14.9832 7.29436 14.4414 7.18826 13.8944 7.18756H13.3132C12.8903 7.18703 12.4743 7.29461 12.1047 7.50006H10.9382V2.53849Z" fill="#24292E" stroke="#24292E" stroke-width="1.11111" mask="url(#path-3-inside-1_488_21249)"/>
<path d="M12.1875 4.375H11.5625V5H12.1875V4.375Z" fill="#24292E"/>
<path d="M13.4375 5.625H12.8125V6.25H13.4375V5.625Z" fill="#24292E"/>
<path d="M12.1875 6.25H11.5625V6.875H12.1875V6.25Z" fill="#24292E"/>
</g>
<defs>
<clipPath id="clip0_488_21249">
<rect width="20" height="20" fill="white"/>
</clipPath>
</defs>
</svg>
