<svg width="388" height="288" viewBox="0 0 388 288" fill="none" xmlns="http://www.w3.org/2000/svg">
<g clip-path="url(#clip0_344_16095)">
<path d="M387.231 253.094H0.767578V253.288H387.231V253.094Z" fill="#EBEBEB"/>
<path d="M244.758 258.359H225.079V258.552H244.758V258.359Z" fill="#EBEBEB"/>
<path d="M352.79 262.54H306.16V262.733H352.79V262.54Z" fill="#EBEBEB"/>
<path d="M220.89 258.451H172.713V258.644H220.89V258.451Z" fill="#EBEBEB"/>
<path d="M141.472 264.233H131.393V264.426H141.472V264.233Z" fill="#EBEBEB"/>
<path d="M197.161 264.233H151.265V264.426H197.161V264.233Z" fill="#EBEBEB"/>
<path d="M71.0344 260.971H41.3154V261.164H71.0344V260.971Z" fill="#EBEBEB"/>
<path d="M183.952 218.622H34.7079C33.5388 218.62 32.4182 218.154 31.5922 217.327C30.7662 216.499 30.3022 215.378 30.3022 214.209V4.41321C30.3124 3.25075 30.7808 2.13925 31.6057 1.32013C32.4306 0.501016 33.5454 0.0404435 34.7079 0.0384521H183.952C185.123 0.0384521 186.245 0.503435 187.073 1.33111C187.901 2.15878 188.366 3.28135 188.366 4.45186V214.209C188.366 215.379 187.901 216.502 187.073 217.329C186.245 218.157 185.123 218.622 183.952 218.622ZM34.7079 0.193038C33.59 0.195085 32.5186 0.640612 31.7288 1.43183C30.939 2.22304 30.4955 3.29529 30.4955 4.41321V214.209C30.4955 215.326 30.939 216.399 31.7288 217.19C32.5186 217.981 33.59 218.427 34.7079 218.429H183.952C185.071 218.427 186.143 217.981 186.934 217.19C187.725 216.399 188.17 215.327 188.172 214.209V4.41321C188.17 3.29458 187.725 2.22235 186.934 1.43135C186.143 0.640361 185.071 0.195081 183.952 0.193038H34.7079Z" fill="#EBEBEB"/>
<path d="M351.143 218.622H201.891C200.721 218.62 199.6 218.154 198.772 217.327C197.945 216.5 197.48 215.378 197.478 214.209V4.41321C197.49 3.25005 197.96 2.13855 198.786 1.31965C199.612 0.500746 200.728 0.0404218 201.891 0.0384521H351.143C352.304 0.0424748 353.417 0.503946 354.24 1.32284C355.063 2.14174 355.531 3.25209 355.541 4.41321V214.209C355.541 215.376 355.078 216.497 354.254 217.324C353.429 218.151 352.311 218.618 351.143 218.622ZM201.891 0.193038C200.772 0.195081 199.7 0.640361 198.909 1.43135C198.118 2.22235 197.673 3.29458 197.671 4.41321V214.209C197.673 215.327 198.118 216.399 198.909 217.19C199.7 217.981 200.772 218.427 201.891 218.429H351.143C352.262 218.427 353.334 217.981 354.125 217.19C354.916 216.399 355.361 215.327 355.363 214.209V4.41321C355.361 3.29458 354.916 2.22235 354.125 1.43135C353.334 0.640361 352.262 0.195081 351.143 0.193038H201.891Z" fill="#EBEBEB"/>
<path d="M152.231 186.051H100.908L97.7935 150.11H149.116L152.231 186.051Z" fill="#E6E6E6"/>
<path d="M154.89 186.051H103.568L100.453 150.11H151.775L154.89 186.051Z" fill="#F0F0F0"/>
<path d="M110.586 178.337L108.87 157.831H144.757L146.472 178.337H110.586Z" fill="white"/>
<path d="M163.771 186.051H157.75V253.087H163.771V186.051Z" fill="#E6E6E6"/>
<path d="M165.672 186.051H161.491V253.087H165.672V186.051Z" fill="#F0F0F0"/>
<path d="M107.386 193.448H165.672V186.052H107.386V193.448Z" fill="#F0F0F0"/>
<path d="M109.442 193.456H103.42V253.095H109.442V193.456Z" fill="#E6E6E6"/>
<path d="M111.343 193.456H107.162V253.095H111.343V193.456Z" fill="#F0F0F0"/>
<path d="M66.5831 193.456H60.562V253.095H66.5831V193.456Z" fill="#E6E6E6"/>
<path d="M68.4848 193.456H64.3032V253.095H68.4848V193.456Z" fill="#F0F0F0"/>
<path d="M125.665 193.456H119.644V253.095H125.665V193.456Z" fill="#E6E6E6"/>
<path d="M127.559 193.456H123.377V253.095H127.559V193.456Z" fill="#F0F0F0"/>
<path d="M107.386 186.051H60.562V193.448H107.386V186.051Z" fill="#E6E6E6"/>
<path d="M281.989 18.9054H100.87V119.741H281.989V18.9054Z" fill="#E0E0E0"/>
<path d="M291.938 18.9054H101.782V119.741H291.938V18.9054Z" fill="#F5F5F5"/>
<path d="M288.831 116.634V22.0127L104.89 22.0127V116.634L288.831 116.634Z" fill="white"/>
<path d="M179.368 116.634L214.095 22.0127H156.783L122.055 116.634H179.368Z" fill="#F5F5F5"/>
<path d="M234.533 116.634L269.26 22.0127H226.023L191.295 116.634H234.533Z" fill="#F5F5F5"/>
<path d="M339.396 156.788H323.999V253.095H339.396V156.788Z" fill="#E6E6E6"/>
<path d="M335.346 253.095H339.396V245.675H331.103L335.346 253.095Z" fill="#FAFAFA"/>
<path d="M197.44 156.788H182.043V253.095H197.44V156.788Z" fill="#E6E6E6"/>
<path d="M339.395 156.788H193.907V251.093H339.395V156.788Z" fill="#FAFAFA"/>
<path d="M336.644 187.218H196.667V160.583H336.644V187.218ZM197.44 186.445H335.871V161.356H197.44V186.445Z" fill="#E6E6E6"/>
<path d="M312.002 173.514H224.02C219.939 173.514 216.005 170.222 213.199 164.471L212.937 163.922H323.078L322.816 164.471C319.987 170.222 316.122 173.514 312.002 173.514ZM214.204 164.672C216.817 169.797 220.388 172.718 224.02 172.718H312.002C315.651 172.718 319.206 169.797 321.819 164.672H214.204Z" fill="#E6E6E6"/>
<path d="M197.957 253.095H193.907V245.675H202.201L197.957 253.095Z" fill="#FAFAFA"/>
<path d="M336.644 217.231H196.667V190.627H336.644V217.231ZM197.44 216.458H335.871V191.4H197.44V216.458Z" fill="#E6E6E6"/>
<path d="M312.002 203.558H224.02C219.939 203.558 216.005 200.257 213.199 194.514L212.937 193.958H323.078L322.816 194.514C319.987 200.226 316.122 203.558 312.002 203.558ZM214.204 194.731C216.817 199.855 220.388 202.785 224.02 202.785H312.002C315.651 202.785 319.206 199.855 321.819 194.731H214.204Z" fill="#E6E6E6"/>
<path d="M336.644 247.297H196.667V220.662H336.644V247.297ZM197.44 246.524H335.871V221.435H197.44V246.524Z" fill="#E6E6E6"/>
<path d="M312.002 233.594H224.02C219.939 233.594 216.005 230.301 213.199 224.558L212.937 224.002H323.078L322.816 224.558C319.987 230.301 316.122 233.594 312.002 233.594ZM214.204 224.775C216.817 229.899 220.388 232.821 224.02 232.821H312.002C315.651 232.821 319.206 229.899 321.819 224.775H214.204Z" fill="#E6E6E6"/>
<path d="M94.2772 169.526V171.396H93.0869L92.0975 186.051H77.5356L76.554 171.396H75.356V169.526H94.2772Z" fill="#E6E6E6"/>
<path d="M89.4846 133.144C88.2943 124.41 76.5072 121.921 61.5511 121.596C47.3215 121.295 42.7612 116.263 42.7612 116.263C42.7612 116.263 42.8076 136.645 63.3133 144.034C82.7833 151.037 90.6826 141.893 89.4846 133.144Z" fill="#E6E6E6"/>
<path d="M82.2186 152.939C82.4659 149.353 88.201 142.752 101.998 145.751C111.969 147.923 115.679 142.752 115.679 142.752C115.679 142.752 114.751 157.345 99.7563 161.727C85.5112 165.893 81.778 159.262 82.2186 152.939Z" fill="#E6E6E6"/>
<path d="M85.3659 175.029C85.4436 175.03 85.5205 175.014 85.5912 174.982C85.662 174.95 85.7249 174.903 85.7755 174.844C86.7726 173.661 85.9533 170.832 84.8248 166.914C83.3717 161.889 81.5631 155.629 83.0935 151.092C83.9418 148.695 84.9329 146.352 86.0615 144.074C88.2257 139.498 90.0962 135.571 88.5349 131.413C88.5105 131.347 88.4733 131.286 88.4254 131.235C88.3774 131.183 88.3197 131.141 88.2555 131.112C88.1914 131.083 88.1221 131.067 88.0516 131.064C87.9811 131.062 87.9109 131.074 87.845 131.099C87.7791 131.124 87.7189 131.162 87.6677 131.21C87.6165 131.259 87.5754 131.317 87.5469 131.381C87.5183 131.446 87.5028 131.515 87.5012 131.586C87.4997 131.656 87.5121 131.726 87.5378 131.792C88.9368 135.494 87.2441 139.08 85.0954 143.625C83.9524 145.94 82.9459 148.319 82.081 150.752C80.4501 155.606 82.3051 162.044 83.7969 167.207C84.678 170.299 85.59 173.391 84.964 174.164C84.9143 174.217 84.8762 174.28 84.8523 174.349C84.8283 174.418 84.8189 174.491 84.8247 174.564C84.8305 174.636 84.8514 174.707 84.886 174.771C84.9207 174.835 84.9683 174.892 85.0258 174.936C85.1245 175.007 85.2451 175.04 85.3659 175.029Z" fill="#E6E6E6"/>
<path d="M194 288C276.767 288 343.862 284.083 343.862 279.251C343.862 274.418 276.767 270.501 194 270.501C111.233 270.501 44.1372 274.418 44.1372 279.251C44.1372 284.083 111.233 288 194 288Z" fill="#F5F5F5"/>
<path d="M193.97 236.593H84.2141L78.2085 60.08H187.964L193.97 236.593Z" fill="#F55420"/>
<path d="M199.45 231.112H89.694L83.6807 54.5991H193.436L199.45 231.112Z" fill="#F55420"/>
<path opacity="0.3" d="M199.45 231.112H89.694L83.6807 54.5991H193.436L199.45 231.112Z" fill="white"/>
<path d="M162.676 127.226C174.428 115.272 173.928 95.7244 161.559 83.5657C149.191 71.407 129.637 71.2414 117.886 83.1959C106.134 95.1503 106.634 114.698 119.002 126.857C131.371 139.015 150.924 139.181 162.676 127.226Z" fill="#F55420"/>
<path d="M165.765 105.226C165.923 109.432 165.005 113.609 163.098 117.361C161.04 121.405 157.896 124.795 154.019 127.152C150.141 129.508 145.684 130.737 141.147 130.702C136.503 130.677 131.948 129.431 127.938 127.09C123.928 124.748 120.604 121.393 118.299 117.361C116.151 113.667 114.951 109.498 114.806 105.226C114.663 101.914 115.196 98.608 116.37 95.5082C117.545 92.4083 119.338 89.5796 121.639 87.194C123.941 84.8084 126.704 82.9157 129.76 81.6308C132.816 80.3459 136.101 79.6957 139.416 79.7198C146.245 79.7681 152.793 82.4452 157.7 87.1951C162.606 91.945 165.495 98.4025 165.765 105.226Z" fill="white"/>
<path opacity="0.6" d="M163.083 117.361C161.025 121.405 157.881 124.795 154.004 127.151C150.126 129.508 145.669 130.737 141.132 130.702C136.488 130.677 131.933 129.431 127.923 127.09C123.912 124.748 120.588 121.393 118.284 117.361C124.821 112.905 132.556 110.536 140.467 110.567C148.506 110.585 156.365 112.946 163.083 117.361Z" fill="#F55420"/>
<path opacity="0.6" d="M148.221 104.591C152.542 100.195 152.359 93.007 147.811 88.5362C143.263 84.0653 136.073 84.0045 131.752 88.4002C127.43 92.796 127.614 99.9838 132.162 104.455C136.71 108.926 143.9 108.986 148.221 104.591Z" fill="#F55420"/>
<path d="M177.397 167.192H107.386L106.914 153.279H176.926L177.397 167.192Z" fill="white"/>
<path d="M178.248 192.057H108.228L107.757 178.144H177.776L178.248 192.057Z" fill="white"/>
<path d="M151.227 180.061L134.354 182.379C134.193 182.398 134.038 182.449 133.898 182.531C133.758 182.612 133.636 182.721 133.54 182.852C133.444 182.983 133.376 183.132 133.341 183.29C133.306 183.448 133.303 183.612 133.334 183.771L135.552 195.079C135.625 195.41 135.819 195.703 136.097 195.899C136.374 196.095 136.715 196.18 137.052 196.137L153.925 193.819C154.085 193.798 154.24 193.745 154.379 193.663C154.519 193.58 154.64 193.47 154.734 193.339C154.829 193.208 154.896 193.058 154.931 192.9C154.966 192.742 154.968 192.579 154.937 192.42L152.727 181.112C152.654 180.78 152.46 180.489 152.182 180.294C151.904 180.099 151.564 180.016 151.227 180.061ZM146.381 191.515L143.289 191.925L142.988 188.277C142.669 188.139 142.389 187.927 142.169 187.658C141.95 187.389 141.799 187.071 141.728 186.731C141.671 186.468 141.67 186.195 141.725 185.932C141.78 185.668 141.89 185.419 142.047 185.201C142.205 184.982 142.406 184.799 142.639 184.663C142.871 184.527 143.13 184.442 143.398 184.412C143.947 184.342 144.502 184.479 144.954 184.799C145.407 185.118 145.723 185.595 145.84 186.136C145.907 186.463 145.887 186.801 145.781 187.117C145.675 187.434 145.487 187.716 145.237 187.937L146.381 191.515Z" fill="#F55420"/>
<path d="M149.557 179.45C149.259 179.488 148.957 179.413 148.711 179.24C148.465 179.067 148.292 178.808 148.227 178.515L148.011 177.409C147.702 175.901 146.857 174.556 145.631 173.623C144.406 172.691 142.885 172.235 141.348 172.339C140.573 172.383 139.817 172.594 139.13 172.956C138.443 173.319 137.843 173.825 137.369 174.44C136.896 175.055 136.56 175.765 136.385 176.521C136.21 177.278 136.2 178.063 136.355 178.824L136.603 180.099C136.631 180.24 136.63 180.386 136.6 180.527C136.569 180.668 136.509 180.801 136.424 180.917C136.339 181.034 136.23 181.131 136.105 181.203C135.98 181.275 135.842 181.32 135.698 181.336C135.399 181.377 135.096 181.304 134.849 181.13C134.602 180.957 134.431 180.696 134.369 180.401L134.16 179.326C133.948 178.322 133.941 177.285 134.139 176.279C134.338 175.272 134.738 174.315 135.316 173.467C135.893 172.619 136.636 171.896 137.5 171.342C138.365 170.788 139.332 170.415 140.344 170.244C142.538 169.876 144.79 170.366 146.632 171.614C148.474 172.862 149.765 174.771 150.237 176.946L150.484 178.213C150.513 178.356 150.512 178.504 150.479 178.646C150.447 178.789 150.385 178.923 150.298 179.039C150.21 179.156 150.099 179.253 149.971 179.324C149.843 179.395 149.702 179.438 149.557 179.45Z" fill="#F55420"/>
<path d="M166.692 211.542H121.112L120.811 202.484H166.383L166.692 211.542Z" fill="#F55420"/>
<path d="M144.703 160.235C144.716 160.565 144.663 160.895 144.545 161.204C144.427 161.513 144.248 161.795 144.018 162.033C143.789 162.271 143.513 162.459 143.208 162.587C142.903 162.715 142.575 162.78 142.245 162.778C141.563 162.773 140.91 162.506 140.419 162.032C139.929 161.559 139.639 160.916 139.609 160.235C139.595 159.904 139.649 159.575 139.767 159.266C139.884 158.957 140.063 158.675 140.293 158.437C140.523 158.199 140.799 158.01 141.104 157.882C141.409 157.754 141.736 157.69 142.067 157.692C142.749 157.695 143.404 157.962 143.894 158.435C144.385 158.909 144.675 159.553 144.703 160.235Z" fill="#263238"/>
<path d="M133.712 160.235C133.727 160.566 133.674 160.896 133.557 161.205C133.44 161.515 133.261 161.797 133.031 162.035C132.801 162.273 132.525 162.462 132.219 162.59C131.914 162.717 131.586 162.781 131.255 162.778C130.574 162.772 129.921 162.505 129.432 162.032C128.943 161.559 128.654 160.915 128.627 160.235C128.613 159.904 128.667 159.575 128.784 159.266C128.902 158.957 129.081 158.675 129.311 158.437C129.541 158.199 129.816 158.01 130.121 157.882C130.426 157.754 130.754 157.69 131.084 157.692C131.766 157.695 132.419 157.962 132.909 158.436C133.399 158.909 133.687 159.554 133.712 160.235Z" fill="#263238"/>
<path d="M122.791 160.235C122.805 160.565 122.751 160.895 122.633 161.204C122.516 161.513 122.337 161.795 122.107 162.033C121.877 162.271 121.601 162.459 121.296 162.587C120.992 162.715 120.664 162.78 120.333 162.778C119.652 162.774 118.998 162.508 118.509 162.034C118.019 161.56 117.731 160.916 117.705 160.235C117.692 159.904 117.745 159.575 117.863 159.266C117.98 158.957 118.16 158.675 118.389 158.437C118.619 158.199 118.895 158.01 119.2 157.882C119.505 157.754 119.832 157.69 120.163 157.692C120.844 157.695 121.498 157.962 121.988 158.436C122.477 158.909 122.765 159.554 122.791 160.235Z" fill="#263238"/>
<path d="M155.655 160.235C155.668 160.566 155.615 160.895 155.497 161.204C155.38 161.514 155.2 161.796 154.971 162.033C154.741 162.271 154.465 162.46 154.16 162.588C153.855 162.716 153.528 162.781 153.197 162.778C152.515 162.775 151.862 162.508 151.372 162.034C150.883 161.561 150.595 160.916 150.569 160.235C150.557 159.906 150.613 159.578 150.732 159.27C150.851 158.963 151.031 158.683 151.262 158.447C151.492 158.212 151.768 158.025 152.073 157.9C152.378 157.774 152.705 157.711 153.035 157.716C153.711 157.721 154.359 157.985 154.846 158.454C155.334 158.922 155.623 159.56 155.655 160.235Z" fill="#263238"/>
<path d="M166.607 160.235C166.622 160.566 166.569 160.896 166.452 161.205C166.334 161.515 166.155 161.797 165.925 162.035C165.695 162.273 165.419 162.462 165.114 162.59C164.808 162.717 164.48 162.781 164.149 162.778C163.468 162.772 162.816 162.505 162.326 162.032C161.837 161.559 161.549 160.915 161.521 160.235C161.508 159.904 161.561 159.575 161.679 159.266C161.796 158.957 161.975 158.675 162.205 158.437C162.435 158.199 162.711 158.01 163.016 157.882C163.321 157.754 163.648 157.69 163.979 157.692C164.66 157.695 165.314 157.962 165.804 158.436C166.293 158.909 166.581 159.554 166.607 160.235Z" fill="#263238"/>
<path d="M258.857 92.2336C259.885 93.8877 260.743 95.4645 261.624 97.1108C262.505 98.7571 263.301 100.411 264.082 102.104C265.674 105.531 266.993 109.08 268.024 112.716C268.163 113.172 268.263 113.659 268.379 114.131L268.549 114.849L268.634 115.205L268.735 115.792C268.909 117.125 268.828 118.479 268.495 119.781C267.961 121.802 267.15 123.74 266.083 125.539C264.176 128.808 261.871 131.827 259.22 134.528L255.966 132.07C257.599 129.068 259.052 125.97 260.317 122.795C260.881 121.396 261.278 119.935 261.5 118.444C261.571 117.988 261.55 117.523 261.438 117.075L261.129 116.133C261.005 115.746 260.889 115.36 260.743 114.965C259.567 111.777 258.207 108.659 256.669 105.628C255.123 102.537 253.462 99.445 251.8 96.4925L258.857 92.2336Z" fill="#FF8B7B"/>
<path d="M256.792 130.995L253.237 132.873L257.318 137.65C257.318 137.65 259.869 135.927 259.984 133.299L256.792 130.995Z" fill="#FF8B7B"/>
<path d="M248.469 135.819L252.836 139.289L257.319 137.651L253.238 132.874L248.469 135.819Z" fill="#FF8B7B"/>
<path d="M233.535 66.9434C233.45 67.3762 233.149 67.6776 232.87 67.6235C232.592 67.5694 232.43 67.1675 232.515 66.7424C232.6 66.3173 232.901 65.9695 233.187 66.0622C233.473 66.155 233.62 66.5105 233.535 66.9434Z" fill="#263238"/>
<path d="M233.188 67.6852C232.41 68.8958 231.468 69.9934 230.39 70.9469C230.645 71.2108 230.953 71.4165 231.295 71.5499C231.636 71.6833 232.003 71.7413 232.369 71.7199L233.188 67.6852Z" fill="#FF5652"/>
<path d="M231.796 82.8501V77.7797L238.505 78.5526C238.505 78.5526 238.397 82.9119 234.641 84.195L231.796 82.8501Z" fill="#FF8B7B"/>
<path d="M233.729 74.1312L238.451 75.4916L238.536 78.591L231.827 77.7794L233.729 74.1312Z" fill="#FF8B7B"/>
<path opacity="0.2" d="M238.451 75.4916L233.728 74.1312L232.809 75.8935C232.859 77.2821 233.293 78.6296 234.062 79.7866C234.832 80.9436 235.907 81.8647 237.168 82.4479C237.979 81.3145 238.454 79.9747 238.536 78.5833L238.451 75.4916Z" fill="black"/>
<path d="M235.592 64.8796C235.641 64.8783 235.689 64.863 235.73 64.8355C235.772 64.8079 235.804 64.7693 235.824 64.7241C235.845 64.6788 235.852 64.6288 235.845 64.5797C235.838 64.5306 235.817 64.4846 235.785 64.4468C235.513 64.1402 235.172 63.903 234.79 63.7551C234.409 63.6072 233.997 63.5529 233.59 63.5966C233.523 63.6079 233.464 63.6452 233.425 63.7003C233.385 63.7553 233.37 63.8237 233.381 63.8903C233.392 63.9574 233.429 64.0174 233.484 64.0578C233.539 64.0981 233.607 64.1157 233.675 64.1067C233.997 64.0751 234.323 64.121 234.624 64.2406C234.925 64.3603 235.193 64.5502 235.406 64.7946C235.43 64.8204 235.458 64.8413 235.49 64.8559C235.522 64.8705 235.556 64.8785 235.592 64.8796Z" fill="#263238"/>
<path d="M245.47 74.7654C244.697 78.746 244.217 84.2569 247.015 86.9081C247.015 86.9081 245.933 90.9427 238.513 90.9427C230.39 90.9427 234.61 87.4027 234.61 87.4027C237.988 86.3515 237.957 82.5101 237.184 79.4184L245.47 74.7654Z" fill="#FF8B7B"/>
<path d="M248.522 89.5664C249.249 88.5461 249.218 85.3076 248.445 84.7356C247.201 83.8158 241.86 83.5994 234.672 85.2535C235.445 88.3915 233.791 90.0301 233.791 90.0301L248.522 89.5664Z" fill="#F55420"/>
<path d="M272.684 273.067C272.463 273.144 272.229 273.178 271.996 273.164C271.762 273.151 271.534 273.092 271.323 272.989C271.244 272.915 271.189 272.818 271.167 272.712C271.145 272.605 271.156 272.494 271.2 272.394C271.224 272.311 271.266 272.233 271.324 272.168C271.381 272.103 271.452 272.051 271.532 272.016C272.266 271.66 273.951 272.348 274.029 272.379C274.052 272.388 274.071 272.404 274.085 272.425C274.099 272.446 274.106 272.47 274.106 272.495C274.106 272.52 274.099 272.544 274.087 272.566C274.075 272.587 274.057 272.605 274.036 272.618C273.6 272.81 273.148 272.96 272.684 273.067ZM271.795 272.193C271.744 272.205 271.695 272.224 271.648 272.247C271.6 272.265 271.556 272.294 271.521 272.331C271.487 272.369 271.461 272.414 271.447 272.464C271.377 272.696 271.447 272.773 271.493 272.796C271.787 273.044 272.869 272.796 273.634 272.51C273.052 272.269 272.424 272.161 271.795 272.193Z" fill="#F55420"/>
<path d="M274.006 272.627H273.944C273.326 272.449 272.012 271.513 271.997 270.903C271.996 270.806 272.029 270.711 272.089 270.636C272.15 270.56 272.234 270.507 272.329 270.485C272.421 270.451 272.519 270.438 272.616 270.446C272.714 270.454 272.808 270.483 272.893 270.532C273.62 270.903 274.083 272.402 274.099 272.472C274.11 272.491 274.116 272.512 274.116 272.534C274.116 272.555 274.11 272.577 274.099 272.596C274.087 272.608 274.072 272.617 274.056 272.622C274.04 272.627 274.023 272.629 274.006 272.627ZM272.46 270.702H272.399C272.244 270.756 272.244 270.833 272.244 270.872C272.244 271.235 273.125 271.97 273.79 272.263C273.627 271.83 273.272 270.972 272.8 270.717C272.696 270.67 272.577 270.664 272.468 270.702H272.46Z" fill="#F55420"/>
<path d="M232.539 273.979C231.844 273.979 231.171 273.879 230.947 273.57C230.888 273.487 230.857 273.389 230.857 273.287C230.857 273.186 230.888 273.088 230.947 273.005C230.991 272.93 231.05 272.864 231.121 272.812C231.191 272.761 231.271 272.724 231.357 272.704C232.261 272.457 234.162 273.539 234.24 273.585C234.263 273.597 234.282 273.616 234.294 273.64C234.305 273.664 234.308 273.691 234.301 273.716C234.299 273.743 234.287 273.768 234.269 273.787C234.251 273.807 234.227 273.82 234.201 273.825C233.653 273.925 233.097 273.977 232.539 273.979ZM231.681 272.92C231.599 272.907 231.516 272.907 231.434 272.92C231.382 272.931 231.332 272.952 231.288 272.983C231.244 273.014 231.207 273.053 231.179 273.098C231.086 273.26 231.125 273.338 231.179 273.384C231.434 273.74 232.802 273.747 233.815 273.601C233.154 273.239 232.429 273.008 231.681 272.92Z" fill="#F55420"/>
<path d="M234.192 273.824H234.138C233.481 273.531 232.183 272.356 232.283 271.737C232.283 271.59 232.407 271.413 232.763 271.382C232.89 271.367 233.018 271.378 233.141 271.416C233.263 271.453 233.376 271.515 233.474 271.598C233.969 272.19 234.266 272.923 234.324 273.693C234.324 273.715 234.319 273.737 234.309 273.757C234.3 273.777 234.287 273.794 234.27 273.809C234.246 273.821 234.219 273.826 234.192 273.824ZM232.863 271.621H232.786C232.554 271.621 232.538 271.73 232.538 271.761C232.477 272.132 233.358 273.059 234.03 273.461C233.971 272.841 233.72 272.254 233.311 271.784C233.184 271.676 233.022 271.618 232.855 271.621H232.863Z" fill="#F55420"/>
<path d="M240.16 273.694H234.726L234.185 261.103H239.619L240.16 273.694Z" fill="#FF8B7B"/>
<path d="M280.066 271.181L274.756 272.333L269.415 260.6L274.733 259.456L280.066 271.181Z" fill="#FF8B7B"/>
<path d="M274.238 271.8L280.213 270.509C280.317 270.487 280.426 270.501 280.521 270.549C280.617 270.597 280.693 270.675 280.738 270.772L282.81 275.271C282.865 275.379 282.893 275.5 282.893 275.622C282.893 275.744 282.863 275.864 282.808 275.973C282.752 276.081 282.671 276.175 282.572 276.247C282.473 276.318 282.358 276.365 282.238 276.384C280.151 276.793 279.107 276.894 276.487 277.458C274.872 277.813 271.223 278.702 268.99 279.182C266.756 279.661 265.991 277.52 266.864 277.126C270.767 275.34 272.391 273.771 273.45 272.31C273.641 272.049 273.922 271.868 274.238 271.8Z" fill="#263238"/>
<path d="M234.765 273.067H240.701C240.809 273.068 240.913 273.105 240.997 273.172C241.081 273.24 241.14 273.333 241.165 273.438L242.239 278.269C242.27 278.386 242.274 278.508 242.25 278.627C242.225 278.745 242.173 278.856 242.098 278.951C242.023 279.046 241.927 279.122 241.817 279.172C241.707 279.223 241.587 279.247 241.466 279.243C239.325 279.204 236.233 279.081 233.544 279.081C230.39 279.081 227.677 279.251 223.982 279.251C221.749 279.251 221.13 276.994 222.066 276.785C226.317 275.858 229.795 275.757 233.466 273.493C233.852 273.234 234.301 273.087 234.765 273.067Z" fill="#263238"/>
<path d="M256.739 88.1527C261.833 89.3198 266.015 102.328 266.015 102.328L255.835 110.112C253.193 107.286 251.329 103.824 250.425 100.063C248.624 93.2463 251.53 86.9469 256.739 88.1527Z" fill="#F55420"/>
<path opacity="0.4" d="M256.739 88.1527C261.833 89.3198 266.015 102.328 266.015 102.328L255.835 110.112C253.193 107.286 251.329 103.824 250.425 100.063C248.624 93.2463 251.53 86.9469 256.739 88.1527Z" fill="black"/>
<path d="M229.941 103.665C228.674 105.033 227.406 106.254 226.077 107.53C225.42 108.148 224.755 108.766 224.075 109.362L223.047 110.266L222.792 110.49L222.351 110.846C221.898 111.208 221.396 111.505 220.859 111.727C220.263 111.98 219.622 112.111 218.974 112.113C218.42 112.116 217.87 112.019 217.35 111.827C216.774 111.608 216.248 111.274 215.805 110.846C215.238 110.292 214.823 109.603 214.599 108.844C214.481 108.469 214.406 108.083 214.375 107.692C214.334 107.234 214.334 106.774 214.375 106.316C214.413 105.945 214.46 105.621 214.521 105.319C214.733 104.265 215.033 103.231 215.418 102.228C215.766 101.274 216.166 100.339 216.616 99.4295C217.111 98.4479 217.582 97.7291 218.054 96.9098C219.969 93.7726 222.154 90.8088 224.585 88.052C226.991 85.3116 229.643 82.7968 232.507 80.5392L235.352 83.4686C233.358 86.1429 231.394 89.0105 229.578 91.8316C227.77 94.6368 226.119 97.5397 224.631 100.527C224.299 101.254 223.858 102.073 223.65 102.66C223.373 103.343 223.133 104.039 222.931 104.747C222.736 105.385 222.589 106.036 222.49 106.695C222.485 106.798 222.485 106.901 222.49 107.004C222.49 107.066 222.49 107.097 222.49 106.935C222.478 106.761 222.444 106.59 222.39 106.424C222.223 105.877 221.916 105.381 221.501 104.987C221.131 104.647 220.698 104.384 220.226 104.214C219.811 104.057 219.371 103.976 218.927 103.974C218.5 103.969 218.077 104.051 217.683 104.214C217.549 104.268 217.42 104.333 217.296 104.407L217.59 104.137L218.525 103.286L220.373 101.555C221.594 100.403 222.823 99.1744 223.982 98.0305L229.941 103.665Z" fill="#FF8B7B"/>
<path opacity="0.2" d="M252.371 97.7061C255.138 100.442 256.043 105.435 256.236 109.764L255.788 110.112C253.145 107.287 251.281 103.824 250.377 100.063C250.277 99.6616 250.184 99.2906 250.114 98.85L252.371 97.7061Z" fill="black"/>
<path d="M224.538 93.5628C223.425 99.437 222.729 111.502 225.952 135.386H255.061C255.261 130.926 252.456 109.145 256.761 88.1136C253.544 87.496 250.291 87.0855 247.022 86.8847C242.903 86.6485 238.774 86.6485 234.655 86.8847C233.295 87.0083 231.95 87.2093 230.791 87.418C229.249 87.6885 227.825 88.4208 226.709 89.5181C225.592 90.6153 224.835 92.0258 224.538 93.5628Z" fill="#F55420"/>
<path opacity="0.4" d="M224.538 93.5628C223.425 99.437 222.729 111.502 225.952 135.386H255.061C255.261 130.926 252.456 109.145 256.761 88.1136C253.544 87.496 250.291 87.0855 247.022 86.8847C242.903 86.6485 238.774 86.6485 234.655 86.8847C233.295 87.0083 231.95 87.2093 230.791 87.418C229.249 87.6885 227.825 88.4208 226.709 89.5181C225.592 90.6153 224.835 92.0258 224.538 93.5628Z" fill="black"/>
<path opacity="0.2" d="M228.991 102.274L223.735 101.014C223.573 104.198 223.558 108.14 223.789 113.018C226.209 110.266 229.3 105.968 228.991 102.274Z" fill="black"/>
<path opacity="0.2" d="M234.185 261.109L234.463 267.594H239.905L239.626 261.109H234.185Z" fill="black"/>
<path opacity="0.2" d="M274.733 259.456L269.415 260.607L272.167 266.652L277.484 265.5L274.733 259.456Z" fill="black"/>
<path d="M248.052 68.9526C246.661 74.1622 246.104 77.2848 242.889 79.449C238.058 82.7416 232.029 78.9698 231.874 73.4665C231.704 68.4966 234.015 60.806 239.604 59.7548C240.832 59.5243 242.098 59.6104 243.284 60.0048C244.469 60.3992 245.535 61.0891 246.38 62.0093C247.225 62.9295 247.822 64.0498 248.115 65.2646C248.407 66.4793 248.386 67.7486 248.052 68.9526Z" fill="#FF8B7B"/>
<path d="M235.854 69.1462C235.591 68.4506 234.393 63.0633 235.521 61.6643C236.65 60.2653 249.519 61.2779 251.42 63.1483C254.582 66.24 252.387 69.0226 248.932 72.6012C246.335 75.291 246.234 78.3209 244.92 78.7846C242.601 79.5576 239.061 78.831 238.35 76.3808C237.639 73.9307 235.854 69.1462 235.854 69.1462Z" fill="#263238"/>
<path d="M249.859 57.0186C245.314 55.0863 236.789 57.2273 232.182 56.1143C232.124 57.8272 232.687 59.5035 233.768 60.8333C234.849 62.1632 236.376 63.0567 238.064 63.3488C241.886 64.0771 245.768 64.4369 249.658 64.4232C254.713 64.1913 253.724 58.6649 249.859 57.0186Z" fill="#263238"/>
<path d="M250.571 63.3107C252.231 63.474 253.903 63.1546 255.386 62.3909C256.236 64.4469 251.56 65.0111 250.571 63.3107Z" fill="#263238"/>
<path d="M238.327 69.3625C238.223 70.7029 237.68 71.9716 236.781 72.9721C235.591 74.2783 234.354 73.459 234.146 71.8745C233.96 70.4369 234.347 68.0099 235.8 67.3142C237.253 66.6186 238.428 67.7471 238.327 69.3625Z" fill="#FF8B7B"/>
<path d="M236.272 135.409C236.272 135.409 242.456 176.954 245.834 192.521C249.536 209.564 269.431 265.949 269.431 265.949L279.162 263.839C279.162 263.839 265.249 217.88 262.158 194.051C259.762 175.748 255.055 135.394 255.055 135.394L236.272 135.409Z" fill="#F55420"/>
<path d="M267.096 262.71C267.057 262.71 268.912 266.234 268.912 266.234L279.857 263.861L278.937 260.569L267.096 262.71Z" fill="#263238"/>
<path opacity="0.3" d="M240.175 150.21C247.309 151.609 246.552 178.214 245.694 191.902C243.638 182.225 240.623 163.613 238.567 150.404C239.066 150.158 239.633 150.09 240.175 150.21Z" fill="black"/>
<path d="M225.953 135.409C225.953 135.409 225.181 176.057 225.799 192.606C226.417 209.849 232.438 266.312 232.438 266.312H241.652C241.652 266.312 241.984 210.854 242.424 193.919C242.873 175.462 245.099 135.378 245.099 135.378L225.953 135.409Z" fill="#F55420"/>
<path d="M230.667 262.679C230.621 262.679 231.185 266.497 231.185 266.497H242.385L242.694 263.088L230.667 262.679Z" fill="#263238"/>
<path d="M235.931 95.3715C238.536 102.397 223.224 110.675 223.224 110.675L216.592 102.173C216.592 102.173 221.052 93.3465 226.463 89.3736C233.148 84.4733 233.944 90.0229 235.931 95.3715Z" fill="#F55420"/>
<path opacity="0.4" d="M235.931 95.3715C238.536 102.397 223.224 110.675 223.224 110.675L216.592 102.173C216.592 102.173 221.052 93.3465 226.463 89.3736C233.148 84.4733 233.944 90.0229 235.931 95.3715Z" fill="black"/>
<path d="M295.926 42.0314C311.332 42.0314 323.821 34.0722 323.821 24.2541C323.821 14.436 311.332 6.47681 295.926 6.47681C280.52 6.47681 268.031 14.436 268.031 24.2541C268.031 34.0722 280.52 42.0314 295.926 42.0314Z" fill="#F55420"/>
<path d="M285.862 33.205C284.025 33.1991 282.248 32.5457 280.844 31.3597C279.441 30.1737 278.5 28.531 278.187 26.7202C277.88 24.7587 278.322 22.7533 279.426 21.1033C280.531 19.4534 282.216 18.2797 284.146 17.816C285.731 17.451 287.389 17.5917 288.89 18.2184C290.39 18.845 291.656 19.9261 292.509 21.3097L310.418 17.6151C311.106 17.4644 311.826 17.5788 312.434 17.9356C313.041 18.2924 313.492 18.8652 313.695 19.5397C313.789 19.8943 313.809 20.2643 313.755 20.627C313.701 20.9898 313.574 21.3377 313.381 21.6495C313.187 21.9613 312.933 22.2305 312.632 22.4405C312.331 22.6505 311.991 22.797 311.632 22.871L311.168 22.9637C311.099 22.9761 311.034 23.0041 310.978 23.0457C310.921 23.0872 310.875 23.1412 310.843 23.2033C310.815 23.2665 310.8 23.335 310.8 23.4043C310.8 23.4736 310.815 23.5421 310.843 23.6053L311.16 24.4246C311.266 24.6901 311.277 24.9844 311.189 25.2567C311.102 25.529 310.922 25.7623 310.681 25.9163C310.491 26.0337 310.33 26.1929 310.211 26.3817C310.092 26.5706 310.017 26.7841 309.993 27.0061C309.97 27.2609 309.868 27.502 309.7 27.695C309.532 27.8879 309.307 28.0229 309.058 28.0805L308.695 28.1578C308.443 28.2043 308.183 28.1695 307.952 28.0583C307.721 27.9471 307.532 27.7654 307.411 27.5395C307.251 27.2699 307.01 27.0571 306.723 26.9307C306.436 26.8043 306.117 26.7707 305.81 26.8345C305.502 26.8983 305.223 27.0564 305.01 27.2867C304.797 27.517 304.661 27.808 304.621 28.1192C304.6 28.3723 304.498 28.6121 304.331 28.8038C304.165 28.9956 303.941 29.1293 303.694 29.1858L303.33 29.2631C303.079 29.3084 302.819 29.273 302.589 29.1619C302.358 29.0509 302.169 28.8699 302.047 28.6447C301.932 28.453 301.776 28.2888 301.59 28.1633C301.405 28.0379 301.194 27.9542 300.973 27.9182C300.676 27.8824 300.402 27.7394 300.203 27.516C300.003 27.2925 299.892 27.0041 299.891 26.7047V25.8236C299.888 25.7546 299.87 25.6872 299.838 25.6258C299.807 25.5645 299.762 25.5107 299.708 25.4682C299.653 25.4256 299.591 25.3953 299.523 25.3792C299.456 25.3632 299.387 25.3618 299.319 25.3753L293.607 26.5501C293.374 28.1326 292.659 29.6048 291.56 30.7665C290.46 31.9282 289.029 32.723 287.462 33.0427C286.936 33.1503 286.4 33.2047 285.862 33.205ZM284.316 18.5194C282.563 18.9289 281.03 19.9874 280.027 21.4818C279.023 22.9762 278.622 24.7955 278.906 26.5733C279.21 28.2273 280.096 29.7178 281.403 30.7753C282.711 31.8329 284.354 32.3875 286.035 32.339C287.716 32.2904 289.324 31.6418 290.568 30.5106C291.812 29.3793 292.611 27.8401 292.819 26.1714V25.8931L299.118 24.6178C299.299 24.5741 299.487 24.5712 299.669 24.6092C299.851 24.6473 300.022 24.7254 300.17 24.8379C300.318 24.9504 300.439 25.0945 300.525 25.2596C300.61 25.4247 300.658 25.6068 300.664 25.7926V26.6738C300.666 26.7787 300.703 26.8798 300.771 26.96C300.839 27.0403 300.932 27.0948 301.035 27.1143C301.373 27.1628 301.695 27.2874 301.978 27.4789C302.26 27.6704 302.496 27.9237 302.666 28.2196C302.707 28.303 302.773 28.3717 302.854 28.416C302.936 28.4603 303.029 28.4781 303.122 28.467L303.477 28.3897C303.567 28.3665 303.648 28.3149 303.706 28.2425C303.765 28.1701 303.798 28.0807 303.802 27.9878C303.851 27.5066 304.051 27.0534 304.374 26.6936C304.697 26.3339 305.127 26.0862 305.6 25.9864C306.073 25.8866 306.566 25.9398 307.007 26.1384C307.448 26.337 307.814 26.6707 308.053 27.0912C308.093 27.174 308.157 27.2423 308.237 27.2866C308.318 27.331 308.41 27.3491 308.501 27.3385L308.872 27.2612C308.961 27.2366 309.04 27.1844 309.096 27.1121C309.153 27.0398 309.186 26.9513 309.189 26.8593C309.227 26.5199 309.343 26.1938 309.526 25.9058C309.71 25.6178 309.957 25.3755 310.248 25.1975C310.333 25.1361 310.395 25.0479 310.425 24.9471C310.454 24.8463 310.449 24.7386 310.41 24.641L310.094 23.8217C310.028 23.6528 310 23.4716 310.012 23.2908C310.024 23.11 310.075 22.934 310.162 22.775C310.248 22.616 310.369 22.4779 310.515 22.3703C310.661 22.2627 310.828 22.1883 311.006 22.1522L311.477 22.0517C311.732 21.9973 311.974 21.892 312.187 21.742C312.401 21.5921 312.582 21.4007 312.72 21.1791C312.858 20.9576 312.949 20.7106 312.989 20.4528C313.03 20.195 313.017 19.9317 312.953 19.6788C312.802 19.1924 312.473 18.781 312.032 18.5273C311.59 18.2735 311.069 18.1962 310.573 18.3107L292.162 22.1367L292.022 21.8971C291.283 20.5802 290.134 19.5399 288.751 18.9334C287.368 18.3268 285.825 18.1869 284.355 18.5349L284.316 18.5194ZM285.862 30.3297C284.902 30.3404 283.96 30.0719 283.149 29.5568C282.191 28.9276 281.48 27.9854 281.139 26.8908C280.797 25.7963 280.846 24.6173 281.277 23.5546C281.707 22.492 282.493 21.6116 283.5 21.0634C284.507 20.5153 285.673 20.3335 286.799 20.5489C287.925 20.7643 288.942 21.3636 289.676 22.2447C290.409 23.1257 290.815 24.234 290.823 25.3805C290.831 26.527 290.441 27.6408 289.719 28.5321C288.998 29.4233 287.99 30.0368 286.867 30.2679C286.538 30.3274 286.204 30.3533 285.87 30.3452L285.862 30.3297ZM285.862 21.2015C285.574 21.2031 285.287 21.2316 285.004 21.2865C284.466 21.4012 283.955 21.6208 283.502 21.9328C283.048 22.2449 282.66 22.6432 282.361 23.105C282.061 23.5669 281.855 24.0833 281.755 24.6246C281.655 25.166 281.663 25.7218 281.777 26.2603C281.892 26.7987 282.112 27.3093 282.424 27.7629C282.736 28.2165 283.134 28.6042 283.596 28.9039C284.058 29.2035 284.574 29.4093 285.115 29.5093C285.657 29.6094 286.213 29.6019 286.751 29.4872C287.559 29.3189 288.3 28.9151 288.879 28.3267C289.458 27.7382 289.85 26.9914 290.006 26.1805C290.161 25.3696 290.073 24.5308 289.752 23.7699C289.432 23.009 288.893 22.36 288.204 21.9048C287.52 21.4497 286.715 21.2101 285.893 21.2169L285.862 21.2015Z" fill="white"/>
<path opacity="0.6" d="M273.225 52.4581C278.288 52.4581 282.392 49.842 282.392 46.6148C282.392 43.3876 278.288 40.7715 273.225 40.7715C268.162 40.7715 264.058 43.3876 264.058 46.6148C264.058 49.842 268.162 52.4581 273.225 52.4581Z" fill="#F55420"/>
<path opacity="0.3" d="M258.639 54.8466C260.718 54.8466 262.403 53.7738 262.403 52.4505C262.403 51.1272 260.718 50.0544 258.639 50.0544C256.56 50.0544 254.875 51.1272 254.875 52.4505C254.875 53.7738 256.56 54.8466 258.639 54.8466Z" fill="#F55420"/>
</g>
<defs>
<clipPath id="clip0_344_16095">
<rect width="386.463" height="288" fill="white" transform="translate(0.767578)"/>
</clipPath>
</defs>
</svg>
