<svg width="36" height="36" viewBox="0 0 36 36" fill="none" xmlns="http://www.w3.org/2000/svg">
<path d="M13.8933 29.3031C13.8786 29.3041 13.8639 29.3046 13.8491 29.3047C11.048 29.3201 8.25634 28.9787 5.54152 28.2886M13.8933 29.3031L5.72394 27.5611M13.8933 29.3031C14.5282 29.2622 15.168 29.2248 15.8091 29.1874C16.8073 29.1291 17.809 29.0706 18.8015 28.998L18.8015 28.9981L18.8143 28.9969C20.4 28.8536 21.9585 28.4929 23.4459 27.9249C23.8121 27.8056 24.1284 27.5675 24.3442 27.2479C24.5586 26.9304 24.6614 26.5509 24.637 26.1692V26.1686V26.1651V26.1616V26.1581V26.1546V26.1511V26.1476V26.1441V26.1406V26.1371V26.1336V26.1301V26.1266V26.1231V26.1196V26.1161V26.1126V26.1091V26.1056V26.1021V26.0986V26.0951V26.0916V26.0881V26.0846V26.0811V26.0776V26.0741V26.0706V26.0671V26.0636V26.0601V26.0566V26.0531V26.0496V26.0461V26.0426V26.0391V26.0356V26.0321V26.0285V26.025V26.0215V26.018V26.0145V26.011V26.0075V26.004V26.0005V25.997V25.9935V25.99V25.9865V25.9829V25.9794V25.9759V25.9724V25.9689V25.9654V25.9619V25.9584V25.9549V25.9513V25.9478V25.9443V25.9408V25.9373V25.9338V25.9303V25.9268V25.9232V25.9197V25.9162V25.9127V25.9092V25.9057V25.9022V25.8987V25.8951V25.8916V25.8881V25.8846V25.8811V25.8776V25.874V25.8705V25.867V25.8635V25.86V25.8565V25.8529V25.8494V25.8459V25.8424V25.8389V25.8354V25.8318V25.8283V25.8248V25.8213V25.8178V25.8142V25.8107V25.8072V25.8037V25.8002V25.7966V25.7931V25.7896V25.7861V25.7826V25.779V25.7755V25.772V25.7685V25.765V25.7614V25.7579V25.7544V25.7509V25.7474V25.7438V25.7403V25.7368V25.7333V25.7297V25.7262V25.7227V25.7192V25.7156V25.7121V25.7086V25.7051V25.7015V25.698V25.6945V25.691V25.6875V25.6839V25.6804V25.6769V25.6734V25.6698V25.6663V25.6628V25.6593V25.6557V25.6522V25.6487V25.6451V25.6416V25.6381V25.6346V25.631V25.6275V25.624V25.6205V25.6169V25.6134V25.6099V25.6064V25.6028V25.5993V25.5958V25.5922V25.5887V25.5852V25.5817V25.5781V25.5746V25.5711V25.5675V25.564V25.5605V25.557V25.5534V25.5499V25.5464V25.5428V25.5393V25.5358V25.5323V25.5287V25.5252V25.5217V25.5181V25.5146V25.5111V25.5075V25.504V25.5005V25.497V25.4934V25.4899V25.4864V25.4828V25.4793V25.4758V25.4722V25.4687V25.4652V25.4617V25.4581V25.4546V25.4511V25.4475V25.444V25.4405V25.4369V25.4334V25.4299V25.4263V25.4228V25.4193V25.4158V25.4122V25.4087V25.4052V25.4016V25.3981V25.3946V25.391V25.3875V25.384V25.3804V25.3769V25.3734V25.3698V25.3663V25.3628V25.3592V25.3557V25.3522V25.3487V25.3451V25.3416V25.3381V25.3345V25.331V25.3275V25.3239V25.3204V25.3169V25.3133V25.3098V25.3063V25.3027V25.2992V25.2957V25.2921V25.2886V25.2851V25.2815V25.278V25.2745V25.271V25.2674V25.2639V25.2604V25.2568V25.2533V25.2498V25.2462V25.2427V25.2392V25.2356V25.2321V25.2286V25.225V25.2215V25.218V25.2144V25.2109V25.2074V25.2038V25.2003V25.1968V25.1933V25.1897V25.1862V25.1827V25.1791V25.1756V25.1721V25.1685V25.165V25.1615V25.1579V25.1544V25.1509V25.1473V25.1438V25.1403V25.1368V25.1332V25.1297V25.1262V25.1226V25.1191V25.1156V25.112V25.1085V25.105V25.1014V25.0979V25.0944V25.0909V25.0873V25.0838V25.0803V25.0767V25.0732V25.0697V25.0662V25.0626V25.0591V25.0556V25.052V25.0485V25.045V25.0414V25.0379V25.0344V25.0309V25.0273V25.0238V25.0203V25.0167V25.0132V25.0097V25.0062V25.0026V24.9991V24.9956V24.9921V24.9885V24.985V24.9815V24.9779V24.9744V24.9709V24.9674V24.9638V24.9603V24.9568V24.9533V24.9497V24.9462V24.9427V24.9392V24.9356V24.9321V24.9286V24.925V24.9215V24.918V24.9145V24.9109V24.9074V24.9039V24.9004V24.8968V24.8933V24.8898V24.8863V24.8828V24.8792V24.8757V24.8722V24.8687V24.8651V24.8616V24.8581V24.8546V24.851V24.8475V24.844V24.8405V24.837V24.8334V24.8299V24.8264V24.8229V24.8193V24.8158V24.8123V24.8088V24.8053V24.8017V24.7982V24.7947V24.7912V24.7877V24.7841V24.7806V24.7771V24.7736V24.7701V24.7665V24.763V24.7595V24.756V24.7525V24.749V24.7454V24.7419V24.7384V24.7349V24.7314V24.7279V24.7243V24.7208V24.7173V24.7138V24.7103V24.7068V24.7032V24.6997V24.6962V24.6927V24.6892V24.6857V24.6822V24.6786V24.6751V24.6716V24.6681V24.6646V24.6611V24.6576V24.654V24.6505V24.647V24.6435V24.64V24.6365V24.633V24.6295V24.626V24.6224V24.6189V24.6154V24.6119V24.6084V24.6049V24.6014V24.5979V24.5944V24.5909V24.5874V24.5838V24.5803V24.5768V24.5733V24.5698V24.5663V24.5628V24.5593V24.5558V24.5523V24.5488V24.5453V24.5418V24.5383V24.5348V24.5313V24.5278V24.5243V24.5207V24.5172V24.5137V24.5102V24.5067V24.5032V24.4997V24.4962V24.4927V24.4892V24.4857V24.4822V24.4787V24.4752V24.4717V24.4682V24.4647V24.4612V24.4577V24.4542V24.4507V24.4472V24.4437V24.4402V24.4367V24.4332V24.4298V24.4263V24.4228V24.4193V24.4158V24.4123V24.4088V24.4053V24.4018V24.3983V24.3948L24.6367 24.3739C24.5948 22.8708 24.0361 21.4282 23.0549 20.2889C22.076 19.1522 20.7361 18.3867 19.26 18.1207C19.0011 18.0679 18.7341 18.0692 18.4758 18.1246C18.2178 18.1798 17.9741 18.2878 17.7599 18.4416C16.6027 19.2263 15.2367 19.6459 13.8384 19.6459C12.4413 19.6459 11.0765 19.2271 9.91998 18.4437M13.8933 29.3031L9.48638 19.0558M5.54152 28.2886C5.54072 28.2884 5.53991 28.2882 5.53911 28.288L5.72394 27.5611M5.54152 28.2886C5.54237 28.2888 5.54321 28.289 5.54406 28.2892L5.72394 27.5611M5.54152 28.2886C5.07265 28.1726 4.61682 28.009 4.18117 27.8003L4.16964 27.7948L4.16969 27.7947C3.97652 27.6981 3.79285 27.5468 3.6543 27.3896C3.54818 27.2692 3.33984 27.0027 3.31953 26.6497M5.72394 27.5611C5.30382 27.4573 4.8954 27.3108 4.5051 27.1239C4.31963 27.0312 4.06793 26.7795 4.06793 26.594M3.31953 26.6497C3.32052 26.6587 3.32152 26.6678 3.32253 26.6769L4.06793 26.594M3.31953 26.6497C3.31848 26.6314 3.31793 26.6128 3.31793 26.594H4.06793M3.31953 26.6497C3.16583 25.2378 3.26742 23.8097 3.61954 22.4336C3.62328 22.419 3.62746 22.4045 3.63207 22.3902C3.97866 21.3114 4.61035 20.3463 5.4603 19.5969C6.30647 18.8509 7.33768 18.3464 8.44575 18.136M4.06793 26.594C3.91995 25.2633 4.0142 23.9167 4.34613 22.6196C4.65137 21.6694 5.20771 20.8195 5.95629 20.1595C6.70487 19.4995 7.61789 19.0541 8.59878 18.8704M8.44575 18.136C8.43971 18.1374 8.43367 18.1387 8.42764 18.1402L8.59878 18.8704M8.44575 18.136C8.45073 18.1351 8.45571 18.1341 8.46069 18.1332L8.59878 18.8704M8.44575 18.136C8.69925 18.0793 8.96203 18.0774 9.21653 18.1306C9.47073 18.1837 9.71055 18.2905 9.91998 18.4437M8.59878 18.8704C8.75131 18.8346 8.90978 18.8327 9.06312 18.8647C9.21646 18.8968 9.36094 18.962 9.48638 19.0558M9.48638 19.0558L9.90826 18.4357C9.91216 18.4384 9.91607 18.4411 9.91998 18.4437M9.48638 19.0558L9.93561 18.4553C9.93042 18.4514 9.92521 18.4475 9.91998 18.4437" stroke="#07C8B9" stroke-width="1.5" stroke-linejoin="round"/>
<path d="M7.17287 12.9095C7.17008 11.5942 7.55768 10.3076 8.28659 9.21272C9.01566 8.1176 10.0534 7.26353 11.2683 6.75871C12.4832 6.25389 13.8205 6.12103 15.111 6.37697C16.4015 6.6329 17.587 7.26611 18.5172 8.19639L17.9869 8.72672L18.5172 8.19639C19.4475 9.12666 20.0807 10.3121 20.3367 11.6026C20.5926 12.8931 20.4597 14.2305 19.9549 15.4454C19.4501 16.6603 18.596 17.698 17.5009 18.427C16.406 19.1559 15.1195 19.5435 13.8042 19.5408M7.17287 12.9095C7.17309 14.6681 7.87181 16.3547 9.11537 17.5983C10.3589 18.8418 12.0455 19.5405 13.8042 19.5408M7.17287 12.9095C7.17287 12.9092 7.17287 12.9089 7.17287 12.9086H7.92287L7.17287 12.9103C7.17287 12.91 7.17287 12.9097 7.17287 12.9095ZM13.8042 19.5408C13.8045 19.5408 13.8047 19.5408 13.805 19.5408V18.7908L13.8033 19.5408C13.8036 19.5408 13.8039 19.5408 13.8042 19.5408Z" stroke="#07C8B9" stroke-width="1.5" stroke-linejoin="round"/>
<path d="M24.4576 23.0901C24.4576 23.4957 24.78 23.8278 25.1854 23.8398C26.6894 23.8842 28.1943 23.794 29.6821 23.5702C30.6703 23.4806 31.637 23.2283 32.543 22.8234C32.7445 22.7363 32.9212 22.6003 33.057 22.4277C33.1322 22.3322 33.1829 22.2199 33.205 22.1004C33.2273 21.9797 33.2329 21.8567 33.2215 21.7349C33.2733 21.0694 33.2363 20.3999 33.1116 19.744C33.1082 19.7261 33.1041 19.7083 33.0994 19.6907C32.9228 19.0289 32.5978 18.4159 32.149 17.8984C31.7039 17.385 31.1486 16.9788 30.5247 16.7101C30.0944 16.5064 29.6162 16.4251 29.1426 16.4754C29.1076 16.4791 29.0729 16.4853 29.0388 16.4939C28.6238 16.5983 28.2273 16.7653 27.8628 16.9892C27.3813 17.2257 26.8544 17.3559 26.3179 17.3709C25.786 17.3857 25.2573 17.2869 24.7669 17.0812C24.2915 16.8013 23.7684 16.6113 23.2237 16.521C23.2029 16.5176 23.1819 16.515 23.1608 16.5133C22.5889 16.4677 22.017 16.6011 21.5244 16.8952C21.5167 16.8998 21.509 16.9046 21.5014 16.9095L21.2762 17.0552C21.043 17.2061 20.9123 17.4734 20.9364 17.7501C20.9606 18.0268 21.1356 18.2674 21.3914 18.3756C22.2819 18.7524 23.0449 19.378 23.5888 20.1775C24.131 20.9746 24.4326 21.9107 24.4576 22.8743V23.0901Z" stroke="#07C8B9" stroke-width="1.5" stroke-linejoin="round"/>
<path d="M30.6138 13.2248L30.6138 13.2248L30.6136 13.2167C30.5886 12.0745 30.1183 10.9873 29.3031 10.187C28.4878 9.38662 27.3921 8.93652 26.2496 8.93262V8.93258L26.2415 8.93264C25.3825 8.93903 24.5446 9.20019 23.8341 9.6831C23.1236 10.166 22.5724 10.8489 22.2503 11.6453C21.9281 12.4417 21.8496 13.3158 22.0246 14.1569C22.1996 14.9979 22.6202 15.7681 23.2333 16.37C23.8463 16.9718 24.6242 17.3781 25.4684 17.5376C26.3125 17.697 27.185 17.6023 27.9753 17.2655C28.7656 16.9287 29.4382 16.365 29.9079 15.6457C30.3776 14.9264 30.6233 14.0838 30.6138 13.2248Z" stroke="#07C8B9" stroke-width="1.5" stroke-linejoin="round"/>
</svg>
