<svg width="30" height="30" viewBox="0 0 30 30" fill="none" xmlns="http://www.w3.org/2000/svg">
<path d="M26.25 14.0625V24.375C26.25 25.4105 25.4105 26.25 24.375 26.25H6.5625C5.52697 26.25 4.6875 25.4105 4.6875 24.375V14.0625M15 6.09375C15 4.28157 13.5309 2.8125 11.7188 2.8125C9.90657 2.8125 8.4375 4.28157 8.4375 6.09375C8.4375 7.90593 9.90657 9.375 11.7188 9.375C12.6369 9.375 15 9.375 15 9.375M15 6.09375C15 6.9878 15 9.375 15 9.375M15 6.09375C15 4.28157 16.4691 2.8125 18.2812 2.8125C20.0934 2.8125 21.5625 4.28157 21.5625 6.09375C21.5625 7.90593 20.0934 9.375 18.2812 9.375C17.3631 9.375 15 9.375 15 9.375M15 9.375V26.25M4.21875 14.0625H26.7188C27.4954 14.0625 28.125 13.4329 28.125 12.6562V10.7812C28.125 10.0046 27.4954 9.375 26.7188 9.375H4.21875C3.4421 9.375 2.8125 10.0046 2.8125 10.7812V12.6562C2.8125 13.4329 3.4421 14.0625 4.21875 14.0625Z" stroke="#1A1D1F" stroke-width="1.5" stroke-linecap="round" stroke-linejoin="round"/>
</svg>
