<svg width="31" height="31" viewBox="0 0 31 31" fill="none" xmlns="http://www.w3.org/2000/svg">
<path d="M14.5545 24.492L14.5581 24.4941C14.8374 24.6641 15.1581 24.754 15.4851 24.754C15.8122 24.754 16.1329 24.6641 16.4122 24.4941L16.4158 24.492C20.3871 22.0505 22.6361 19.5836 23.8883 17.4112C25.1435 15.2337 25.3688 13.4011 25.3688 12.2794C25.3688 9.3181 22.9462 6.93327 19.9777 6.93327C18.4245 6.93327 17.0986 7.76597 16.2278 8.48778C15.9427 8.72406 15.6931 8.95951 15.4851 9.17075C15.2772 8.95951 15.0276 8.72406 14.7425 8.48778C13.8717 7.76597 12.5458 6.93327 10.9926 6.93327C8.02415 6.93327 5.60149 9.3181 5.60149 12.2794C5.60149 13.4011 5.82684 15.2337 7.08202 17.4112C8.33424 19.5836 10.5832 22.0505 14.5545 24.492Z" fill="#222222" fill-opacity="0.1" stroke="#596066" stroke-width="1.79703" stroke-linecap="round" stroke-linejoin="round"/>
</svg>
