<svg width="35" height="35" viewBox="0 0 35 35" fill="none" xmlns="http://www.w3.org/2000/svg">
<path d="M16.6653 27.2619L16.6675 27.2633C16.9134 27.4129 17.1957 27.492 17.4835 27.492C17.7713 27.492 18.0535 27.4129 18.2994 27.2633L18.3016 27.2619C22.7513 24.5264 25.2409 21.7813 26.6157 19.3963C27.9924 17.008 28.2333 15.0116 28.2333 13.8058C28.2333 10.7034 25.6942 8.19847 22.575 8.19847C20.972 8.19847 19.5712 9.06236 18.6133 9.85632C18.1388 10.2496 17.7538 10.6417 17.4835 10.9404C17.2132 10.6417 16.8282 10.2496 16.3536 9.85632C15.3957 9.06236 13.9949 8.19847 12.3919 8.19847C9.27277 8.19847 6.73363 10.7034 6.73363 13.8058C6.73363 15.0116 6.97455 17.008 8.35121 19.3963C9.72601 21.7813 12.2157 24.5264 16.6653 27.2619Z" fill="url(#paint0_linear_747_1645)" stroke="#F55420" stroke-width="1.13333" stroke-linecap="round" stroke-linejoin="round"/>
<defs>
<linearGradient id="paint0_linear_747_1645" x1="5.22535" y1="30.0501" x2="13.1511" y2="9.58254" gradientUnits="userSpaceOnUse">
<stop stop-color="#E83F43"/>
<stop offset="0.51" stop-color="#F35526"/>
<stop offset="1" stop-color="#D92866"/>
</linearGradient>
</defs>
</svg>
