<svg width="63" height="103" viewBox="0 0 63 103" fill="none" xmlns="http://www.w3.org/2000/svg">
<path d="M6.69178 4.93043e-05C7.95912 -0.00285092 9.2235 0.122206 10.4657 0.373285C12.3085 0.723599 14.1286 1.18409 15.9163 1.75229C17.9061 2.35007 19.9876 3.10918 21.4491 4.65582C23.6287 6.96471 24.4291 10.5103 24.8656 13.5118C25.3844 17.1238 25.4256 20.8528 25.3496 24.5059C25.2974 28.8309 24.6274 33.1263 23.3598 37.2618C23.0657 38.3533 22.5794 39.3836 21.9236 40.3045C21.8837 40.3525 21.8327 40.3901 21.775 40.4141C21.7173 40.438 21.6546 40.4476 21.5924 40.442C21.5302 40.4364 21.4702 40.4158 21.4177 40.3819C21.3652 40.3481 21.3217 40.3019 21.291 40.2475L5.84717 12.5092C4.39515 9.903 2.92095 7.24303 2.47807 4.28575C2.34264 3.50003 2.46007 2.6916 2.81341 1.97684C3.56631 0.525085 5.08476 0.053818 6.69178 4.93043e-05Z" fill="url(#paint0_linear_209_21006)"/>
<path d="M25.4383 8.25205C26.7954 10.8045 29.5507 16.9784 28.8389 24.0126C28.7809 24.5761 28.8665 25.1452 29.0878 25.6667C29.309 26.1882 29.6588 26.6452 30.1043 26.9952C35.0962 30.8792 50.1952 44.7072 44.9945 66.5721C44.9945 66.5721 41.6129 80.514 29.4052 81.4376C29.4052 81.4376 18.6085 83.174 17.0109 70.007C15.9607 61.3313 22.9961 56.2802 27.0326 49.7393C30.2878 44.47 31.7778 36.974 28.6871 31.284C28.6607 31.2341 28.6205 31.1928 28.5713 31.1652C28.5221 31.1375 28.466 31.1245 28.4096 31.1278C28.3532 31.1312 28.299 31.1506 28.2535 31.184C28.2079 31.2173 28.1728 31.263 28.1525 31.3156C26.5866 35.3135 24.8783 39.2829 22.6734 42.9771C20.614 46.4278 17.7733 49.3029 15.0622 52.2285C12.2174 55.282 9.65806 58.5894 7.41624 62.1093C4.00607 67.4862 -0.274091 73.6854 0.0137811 80.4065C0.390229 89.136 4.33504 102.939 26.6846 102.562C49.0342 102.186 58.7966 81.4376 58.7966 81.4376C58.7966 81.4376 80.3079 36.5628 26.0045 7.66372C25.923 7.62244 25.8304 7.60841 25.7402 7.62368C25.6501 7.63896 25.5672 7.68274 25.5038 7.74858C25.4405 7.81443 25.3999 7.89888 25.3881 7.98951C25.3763 8.08013 25.3939 8.17216 25.4383 8.25205Z" fill="url(#paint1_linear_209_21006)"/>
<defs>
<linearGradient id="paint0_linear_209_21006" x1="18.7191" y1="38.5016" x2="15.5504" y2="19.9133" gradientUnits="userSpaceOnUse">
<stop stop-color="#A52AA3"/>
<stop offset="1" stop-color="#12C7B8"/>
</linearGradient>
<linearGradient id="paint1_linear_209_21006" x1="-6.40798" y1="118.921" x2="50.042" y2="32.7329" gradientUnits="userSpaceOnUse">
<stop stop-color="#E83F43"/>
<stop offset="0.51" stop-color="#F35526"/>
<stop offset="1" stop-color="#D92866"/>
</linearGradient>
</defs>
</svg>
