<svg width="42" height="69" viewBox="0 0 42 69" fill="none" xmlns="http://www.w3.org/2000/svg">
<path d="M4.46135 3.28695e-05C5.30624 -0.00190061 6.14916 0.0814707 6.97731 0.248856C8.20584 0.482398 9.41926 0.789393 10.611 1.16819C11.9376 1.56671 13.3252 2.07278 14.2996 3.10387C15.7526 4.64313 16.2862 7.00685 16.5773 9.00788C16.9231 11.4159 16.9505 13.9019 16.8999 16.3373C16.8651 19.2206 16.4184 22.0842 15.5734 24.8412C15.3773 25.5688 15.0531 26.2557 14.6159 26.8696C14.5893 26.9016 14.5553 26.9267 14.5168 26.9427C14.4783 26.9586 14.4366 26.965 14.3951 26.9613C14.3536 26.9576 14.3136 26.9438 14.2786 26.9212C14.2436 26.8987 14.2146 26.8679 14.1941 26.8316L3.89827 8.33946C2.93027 6.60199 1.94746 4.82868 1.65221 2.85716C1.56192 2.33335 1.64021 1.7944 1.87577 1.31789C2.3777 0.350056 3.39 0.0358786 4.46135 3.28695e-05Z" fill="#CED2D6"/>
<path d="M16.9588 5.50128C17.8636 7.2029 19.7005 11.3188 19.226 16.0083C19.1873 16.384 19.2444 16.7634 19.3919 17.111C19.5394 17.4587 19.7725 17.7634 20.0695 17.9967C23.3975 20.586 33.4635 29.8047 29.9964 44.3813C29.9964 44.3813 27.7419 53.6759 19.6035 54.2916C19.6035 54.2916 12.4056 55.4492 11.3406 46.6712C10.6405 40.8874 15.3307 37.52 18.0218 33.1594C20.1919 29.6466 21.1852 24.6492 19.1247 20.8559C19.1072 20.8226 19.0804 20.7951 19.0476 20.7767C19.0148 20.7582 18.9773 20.7495 18.9397 20.7518C18.9022 20.754 18.866 20.767 18.8356 20.7892C18.8052 20.8114 18.7819 20.8419 18.7683 20.877C17.7244 23.5422 16.5856 26.1885 15.1156 28.6513C13.7427 30.9518 11.8488 32.8685 10.0415 34.8189C8.14491 36.8545 6.4387 39.0595 4.94416 41.4061C2.67071 44.9907 -0.182727 49.1235 0.00918739 53.6042C0.260152 59.4239 2.89003 68.6257 17.7898 68.3748C32.6895 68.1238 39.1977 54.2916 39.1977 54.2916C39.1977 54.2916 53.5386 24.3751 17.3364 5.10907C17.282 5.08154 17.2202 5.07219 17.1602 5.08237C17.1001 5.09256 17.0448 5.12174 17.0026 5.16564C16.9603 5.20954 16.9333 5.26584 16.9254 5.32626C16.9175 5.38667 16.9293 5.44803 16.9588 5.50128Z" fill="#CED2D6"/>
</svg>
