<svg width="25" height="25" viewBox="0 0 25 25" fill="none" xmlns="http://www.w3.org/2000/svg">
<path d="M6.11122 5.27783H19.4446C19.7512 5.27783 20.0001 5.52672 20.0001 5.83339V19.1667C20.0001 19.4734 19.7512 19.7223 19.4446 19.7223H6.11122C5.80455 19.7223 5.55566 19.4734 5.55566 19.1667V5.83339C5.55566 5.52672 5.80455 5.27783 6.11122 5.27783Z" fill="white" stroke="#24292E" stroke-width="1.11111"/>
<path d="M20.0001 9.72217H5.55566" stroke="#24292E" stroke-width="1.11111"/>
<path d="M17.7772 6.94458C18.0839 6.94458 18.3328 7.19347 18.3328 7.50014C18.3328 7.8068 18.0839 8.05569 17.7772 8.05569C17.4706 8.05569 17.2217 7.8068 17.2217 7.50014C17.2217 7.19347 17.4706 6.94458 17.7772 6.94458Z" fill="#3C3C3C"/>
<path d="M14.4442 6.94434C14.7509 6.94434 14.9998 7.19322 14.9998 7.49989C14.9998 7.80656 14.7509 8.05545 14.4442 8.05545C14.1376 8.05545 13.8887 7.80656 13.8887 7.49989C13.8887 7.19322 14.1376 6.94434 14.4442 6.94434Z" fill="#3C3C3C"/>
<path d="M11.1112 6.94434C11.4179 6.94434 11.6668 7.19322 11.6668 7.49989C11.6668 7.80656 11.4179 8.05545 11.1112 8.05545C10.8046 8.05545 10.5557 7.80656 10.5557 7.49989C10.5557 7.19322 10.8046 6.94434 11.1112 6.94434Z" fill="#24292E"/>
<path d="M7.77724 6.94458C8.0839 6.94458 8.33279 7.19347 8.33279 7.50014C8.33279 7.8068 8.0839 8.05569 7.77724 8.05569C7.47057 8.05569 7.22168 7.8068 7.22168 7.50014C7.22168 7.19347 7.47057 6.94458 7.77724 6.94458Z" fill="#3C3C3C"/>
<path d="M7.77832 11.9446H17.7783V17.5001H7.77832V11.9446Z" stroke="#24292E" stroke-width="1.11111"/>
<path d="M20.0001 9.72217H5.55566H20.0001Z" fill="#24292E"/>
<path d="M20.0001 9.72217H5.55566" stroke="#3C3C3C" stroke-width="1.11111"/>
</svg>
