<svg width="20" height="21" viewBox="0 0 20 21" fill="none" xmlns="http://www.w3.org/2000/svg">
<g clip-path="url(#clip0_575_23739)">
<path d="M9.72721 9.87644C8.94565 9.87644 8.18165 10.1082 7.53181 10.5424C6.88197 10.9766 6.37549 11.5938 6.0764 12.3158C5.77731 13.0379 5.69906 13.8324 5.85153 14.599C6.004 15.3655 6.38036 16.0696 6.933 16.6223C7.48564 17.1749 8.18975 17.5512 8.95629 17.7037C9.72282 17.8562 10.5174 17.7779 11.2394 17.4789C11.9615 17.1798 12.5786 16.6733 13.0128 16.0234C13.4471 15.3736 13.6788 14.6096 13.6788 13.828C13.6775 12.7804 13.2608 11.7761 12.52 11.0353C11.7792 10.2945 10.7748 9.87773 9.72721 9.87644ZM9.72721 17.1717C9.06589 17.1717 8.41943 16.9756 7.86957 16.6082C7.3197 16.2408 6.89114 15.7186 6.63806 15.1076C6.38499 14.4966 6.31877 13.8243 6.44779 13.1757C6.5768 12.5271 6.89526 11.9313 7.36288 11.4637C7.8305 10.9961 8.42628 10.6776 9.07489 10.5486C9.7235 10.4196 10.3958 10.4858 11.0068 10.7389C11.6177 10.992 12.14 11.4205 12.5074 11.9704C12.8748 12.5203 13.0709 13.1667 13.0709 13.828C13.0697 14.7145 12.7171 15.5643 12.0903 16.1911C11.4635 16.8179 10.6137 17.1706 9.72721 17.1717ZM15.5142 9.26181L13.9013 7.54074C13.9013 7.5377 13.894 7.53648 13.891 7.53344C13.9509 7.41115 13.9823 7.27688 13.9828 7.14071C13.9828 6.89886 13.8867 6.66691 13.7157 6.49589C13.5447 6.32488 13.3127 6.2288 13.0709 6.2288H12.9195L14.3001 2.93134C14.3871 2.75765 14.4163 2.56075 14.3835 2.36931C14.3507 2.17787 14.2577 2.00189 14.1179 1.86702C13.9781 1.73215 13.799 1.64542 13.6065 1.61947C13.414 1.59352 13.2183 1.62971 13.0478 1.72276L12.2033 2.18236C12.0305 2.27655 11.8318 2.31229 11.637 2.28424C11.4422 2.25618 11.2617 2.16585 11.1224 2.02673L10.802 1.70573C10.517 1.42081 10.1305 1.26074 9.72751 1.26074C9.3245 1.26074 8.93799 1.42081 8.65298 1.70573L8.33259 2.02673C8.19289 2.1653 8.01231 2.25524 7.81755 2.28327C7.62279 2.3113 7.42417 2.27592 7.25107 2.18236L6.40725 1.72276C6.23835 1.63081 6.04471 1.59462 5.854 1.61934C5.66329 1.64407 5.48528 1.72845 5.34541 1.86043C5.20554 1.9924 5.11098 2.16522 5.07523 2.35417C5.03949 2.54313 5.06439 2.73854 5.14638 2.91249L6.53492 6.2288H6.38354C6.19367 6.22809 6.00835 6.28691 5.85364 6.39698C5.69892 6.50704 5.58259 6.66283 5.521 6.84244C5.45941 7.02204 5.45566 7.21643 5.51027 7.39828C5.56488 7.58013 5.6751 7.7403 5.82545 7.85626L4.3822 9.21439C3.31686 10.2205 2.53943 11.4927 2.13021 12.8997C1.72099 14.3067 1.69482 15.7974 2.0544 17.2179C2.26712 18.0735 2.76024 18.8331 3.45509 19.3757C4.14994 19.9182 5.00648 20.2125 5.88807 20.2114H13.5663C14.4478 20.2125 15.3043 19.9184 15.9992 19.3759C16.694 18.8335 17.1872 18.0739 17.4 17.2185L17.4888 16.8653C17.8247 15.5341 17.8198 14.1397 17.4747 12.8108C17.1296 11.4819 16.4554 10.2614 15.5142 9.26181ZM5.69839 2.65898C5.66929 2.60106 5.65946 2.53535 5.67035 2.47145C5.68124 2.40754 5.71227 2.34879 5.75892 2.30378C5.80556 2.25876 5.86538 2.22984 5.92963 2.22123C5.99388 2.21262 6.0592 2.22477 6.11605 2.25592L6.95926 2.71552C7.24746 2.87173 7.57822 2.93117 7.90278 2.88509C8.22733 2.839 8.52848 2.68983 8.7618 2.45958L9.08218 2.13859C9.25319 1.96763 9.4851 1.87159 9.7269 1.87159C9.96871 1.87159 10.2006 1.96763 10.3716 2.13859L10.692 2.45958C10.9248 2.69059 11.2258 2.84056 11.5504 2.88731C11.875 2.93406 12.206 2.87511 12.4945 2.71917L13.3384 2.25957C13.3947 2.22707 13.4602 2.21416 13.5247 2.22285C13.5891 2.23154 13.6489 2.26134 13.6946 2.30759C13.7442 2.35478 13.7763 2.4173 13.7859 2.48504C13.7955 2.55278 13.782 2.62178 13.7475 2.68087L12.2605 6.2288H7.19392L5.69839 2.65898ZM6.38354 6.83674H13.0709C13.1515 6.83674 13.2288 6.86877 13.2858 6.92577C13.3428 6.98278 13.3748 7.06009 13.3748 7.14071C13.3748 7.22133 13.3428 7.29865 13.2858 7.35565C13.2288 7.41266 13.1515 7.44468 13.0709 7.44468H6.38354C6.30292 7.44468 6.22561 7.41266 6.1686 7.35565C6.1116 7.29865 6.07957 7.22133 6.07957 7.14071C6.07957 7.06009 6.1116 6.98278 6.1686 6.92577C6.22561 6.86877 6.30292 6.83674 6.38354 6.83674ZM16.9009 16.7176L16.8121 17.0708C16.6321 17.795 16.2145 18.438 15.6262 18.8971C15.0378 19.3562 14.3126 19.6049 13.5663 19.6035H5.88807C5.13617 19.6025 4.40647 19.3485 3.8164 18.8825C3.22633 18.4165 2.8102 17.7655 2.63499 17.0343C2.30806 15.7233 2.33624 14.3489 2.71662 13.0524C3.097 11.7559 3.81585 10.5841 4.79925 9.65758L6.50513 8.05262H13.5469L15.0704 9.67703C15.9423 10.6024 16.5671 11.7324 16.887 12.963C17.207 14.1935 17.2117 15.4847 16.9009 16.7176ZM9.42324 12.3082H10.0312C10.1924 12.3082 10.347 12.3722 10.4611 12.4863C10.5751 12.6003 10.6391 12.7549 10.6391 12.9161C10.6391 12.9968 10.6711 13.0741 10.7281 13.1311C10.7852 13.1881 10.8625 13.2201 10.9431 13.2201C11.0237 13.2201 11.101 13.1881 11.158 13.1311C11.215 13.0741 11.2471 12.9968 11.2471 12.9161C11.2471 12.5937 11.119 12.2844 10.8909 12.0564C10.6629 11.8284 10.3536 11.7003 10.0312 11.7003V11.3963C10.0312 11.3157 9.99915 11.2384 9.94215 11.1813C9.88514 11.1243 9.80782 11.0923 9.72721 11.0923C9.64659 11.0923 9.56927 11.1243 9.51227 11.1813C9.45526 11.2384 9.42324 11.3157 9.42324 11.3963V11.7003C9.10077 11.7003 8.7915 11.8284 8.56348 12.0564C8.33546 12.2844 8.20736 12.5937 8.20736 12.9161C8.20736 13.2386 8.33546 13.5479 8.56348 13.7759C8.7915 14.0039 9.10077 14.132 9.42324 14.132H10.0312C10.1924 14.132 10.347 14.1961 10.4611 14.3101C10.5751 14.4241 10.6391 14.5787 10.6391 14.74C10.6391 14.9012 10.5751 15.0558 10.4611 15.1698C10.347 15.2838 10.1924 15.3479 10.0312 15.3479H9.42324C9.262 15.3479 9.10737 15.2838 8.99336 15.1698C8.87935 15.0558 8.8153 14.9012 8.8153 14.74C8.8153 14.6593 8.78327 14.582 8.72627 14.525C8.66926 14.468 8.59195 14.436 8.51133 14.436C8.43071 14.436 8.35339 14.468 8.29639 14.525C8.23938 14.582 8.20736 14.6593 8.20736 14.74C8.20736 15.0624 8.33546 15.3717 8.56348 15.5997C8.7915 15.8277 9.10077 15.9558 9.42324 15.9558V16.2598C9.42324 16.3404 9.45526 16.4177 9.51227 16.4747C9.56927 16.5317 9.64659 16.5638 9.72721 16.5638C9.80782 16.5638 9.88514 16.5317 9.94215 16.4747C9.99915 16.4177 10.0312 16.3404 10.0312 16.2598V15.9558C10.3536 15.9558 10.6629 15.8277 10.8909 15.5997C11.119 15.3717 11.2471 15.0624 11.2471 14.74C11.2471 14.4175 11.119 14.1082 10.8909 13.8802C10.6629 13.6522 10.3536 13.5241 10.0312 13.5241H9.42324C9.262 13.5241 9.10737 13.46 8.99336 13.346C8.87935 13.232 8.8153 13.0774 8.8153 12.9161C8.8153 12.7549 8.87935 12.6003 8.99336 12.4863C9.10737 12.3722 9.262 12.3082 9.42324 12.3082Z" fill="#07C8B9"/>
</g>
<defs>
<clipPath id="clip0_575_23739">
<rect width="19.4541" height="19.4541" fill="white" transform="translate(0 0.757324)"/>
</clipPath>
</defs>
</svg>
