<svg width="25" height="25" viewBox="0 0 25 25" fill="none" xmlns="http://www.w3.org/2000/svg">
<path d="M17.7783 16.4587H20.0005V18.1254C20.0005 18.4321 19.7517 18.681 19.445 18.681H18.3339C18.0272 18.681 17.7783 18.4321 17.7783 18.1254V16.4587Z" fill="white" stroke="#24292E" stroke-width="1.11111"/>
<path d="M5.55566 16.4585H7.77789V18.1252C7.77789 18.4318 7.529 18.6807 7.22233 18.6807H6.11122C5.80455 18.6807 5.55566 18.4318 5.55566 18.1252V16.4585Z" stroke="#24292E" stroke-width="1.11111"/>
<path d="M7.77789 10.9031H17.7779C19.0051 10.9031 20.0001 11.8981 20.0001 13.1253V15.9031C20.0001 16.2097 19.7512 16.4586 19.4446 16.4586H6.11122C5.80455 16.4586 5.55566 16.2097 5.55566 15.9031V13.1253C5.55566 11.8981 6.55066 10.9031 7.77789 10.9031Z" stroke="#24292E" stroke-width="1.11111"/>
<path d="M17.7772 13.1252C18.0839 13.1252 18.3328 13.3741 18.3328 13.6808C18.3328 13.9875 18.0839 14.2364 17.7772 14.2364C17.4706 14.2364 17.2217 13.9875 17.2217 13.6808C17.2217 13.3741 17.4706 13.1252 17.7772 13.1252Z" fill="#24292E"/>
<path d="M7.77724 13.1252C8.0839 13.1252 8.33279 13.3741 8.33279 13.6808C8.33279 13.9875 8.0839 14.2364 7.77724 14.2364C7.47057 14.2364 7.22168 13.9875 7.22168 13.6808C7.22168 13.3741 7.47057 13.1252 7.77724 13.1252Z" fill="#24292E"/>
<path d="M8.71768 6.45874H16.8366C17.0682 6.45874 17.2755 6.60263 17.3566 6.8193L18.8882 10.9032H6.66602L8.19768 6.8193C8.27879 6.60263 8.48602 6.45874 8.71768 6.45874Z" stroke="#3C3C3C" stroke-width="1.11111"/>
<path d="M5 9.23633H6.66667V10.3474H5V9.23633Z" fill="#3C3C3C"/>
<path d="M18.8887 9.23633H20.5553V10.3474H18.8887V9.23633Z" fill="#3C3C3C"/>
<path d="M9.44434 13.6809H16.111" stroke="#3C3C3C" stroke-width="1.11111"/>
</svg>
