<svg width="73" height="73" viewBox="0 0 73 73" fill="none" xmlns="http://www.w3.org/2000/svg">
<rect x="6.95508" y="6.32666" width="59.4715" height="59.4715" rx="29.7358" fill="#07C8B9" fill-opacity="0.5"/>
<rect x="17.0762" y="16.4497" width="39.2259" height="39.2259" rx="19.613" fill="#07C8B9"/>
<rect x="0.628418" width="72.1251" height="72.1251" rx="36.0625" fill="#07C8B9" fill-opacity="0.5"/>
<rect x="12.9033" y="12.2766" width="47.5718" height="47.5718" rx="23.7859" fill="#07C8B9"/>
<path fill-rule="evenodd" clip-rule="evenodd" d="M27.6809 22.4353V23.5652C26.3168 23.7604 24.967 23.9997 23.6328 24.2818C23.1142 24.3914 22.7743 24.8907 22.8626 25.4135C23.5354 29.399 26.8558 32.4837 30.9537 32.7942C31.9892 33.6399 33.22 34.2575 34.5684 34.569C34.4381 36.1088 33.9159 37.5355 33.1017 38.7513H32.129C30.7641 38.7513 29.6576 39.8578 29.6576 41.2227V44.6826H28.669C27.0311 44.6826 25.7033 46.0104 25.7033 47.6483C25.7033 48.1943 26.1459 48.6368 26.6918 48.6368H46.463C47.0089 48.6368 47.4515 48.1943 47.4515 47.6483C47.4515 46.0104 46.1237 44.6826 44.4858 44.6826H43.4974V41.2227C43.4974 39.8578 42.391 38.7513 41.026 38.7513H40.0527C39.2388 37.5357 38.7169 36.1089 38.5867 34.5691C39.9354 34.2578 41.1664 33.64 42.2021 32.7942C46.3 32.4837 49.6204 29.399 50.2932 25.4135C50.3814 24.8907 50.0416 24.3914 49.5229 24.2818C48.1888 23.9997 46.8389 23.7604 45.4749 23.5652V22.4353C45.4749 21.9367 45.1035 21.5161 44.6087 21.4544C41.9774 21.1262 39.2971 20.9573 36.5779 20.9573C33.8586 20.9573 31.1783 21.1262 28.5471 21.4544C28.0523 21.5161 27.6809 21.9367 27.6809 22.4353ZM27.6809 25.9001C27.6809 27.4767 28.0914 28.9579 28.8108 30.2421C27.022 29.4413 25.6347 27.9032 25.0367 26.0146C25.9114 25.845 26.793 25.6944 27.6809 25.5631V25.9001ZM45.4749 25.9001V25.5631C46.3628 25.6944 47.2443 25.845 48.1191 26.0146C47.521 27.9032 46.1338 29.4413 44.345 30.2421C45.0643 28.9579 45.4749 27.4767 45.4749 25.9001Z" fill="#07C8B9" stroke="#FAFAFA" stroke-width="1.26535" stroke-linejoin="round"/>
</svg>
