<svg width="35" height="26" viewBox="0 0 35 26" fill="none" xmlns="http://www.w3.org/2000/svg">
<path d="M29.4184 0.908936H6.52012C3.82139 0.908936 1 2.13154 1 4.42137V16.9132C1 19.2071 3.82139 21.7627 6.52012 21.7627H21.1464L26.045 24.719C26.045 24.719 28.805 26.645 28.805 23.8685C28.805 22.2616 28.805 22.1716 28.805 21.7627H29.4184C32.1171 21.7627 33.7118 19.2071 33.7118 16.9173V4.42137C33.7118 2.13154 32.1171 0.908936 29.4184 0.908936Z" stroke="black" stroke-miterlimit="10"/>
<path d="M28.0895 25.5C27.1776 25.5 26.1227 24.8171 26.0777 24.7844L21.0891 21.7627H6.52012C3.73961 21.7627 1 19.3461 1 16.9172V4.42133C1 2.10697 3.53925 0.5 6.52012 0.5H29.4184C32.2602 0.5 34.1207 2.03337 34.1207 4.42133V16.9131C34.1207 19.432 32.0762 21.5582 29.2139 21.5582V23.8685C29.2139 25.2874 28.5474 25.5 28.0895 25.5ZM6.52012 0.908898C3.81322 0.908898 1.4089 2.37275 1.4089 4.42133V16.9131C1.4089 19.1294 3.95224 21.3538 6.52012 21.3538H21.2077L26.3598 24.441C26.3803 24.4573 27.3126 25.1402 28.0936 25.1402C28.4452 25.1402 28.8091 24.9603 28.8091 23.8685V21.3538H29.4184C32.1089 21.3538 33.7118 18.9617 33.7118 16.9172V4.42133C33.7118 2.26644 32.0231 0.908898 29.4184 0.908898H6.52012Z" stroke="black" stroke-miterlimit="10"/>
<path d="M11.5006 10.0315C11.5006 9.69621 11.2553 9.42224 10.9363 9.36909C10.9363 9.36909 10.9363 9.36909 10.9323 9.36909L9.50929 9.17691L8.88367 7.91341C8.78554 7.6599 8.54429 7.47998 8.25397 7.47998C7.95548 7.47998 7.70605 7.67216 7.61609 7.94204L7.01501 9.18099L5.62067 9.365V9.36909C5.2772 9.4018 5.00732 9.68803 5.00732 10.0397C5.00732 10.2605 5.11364 10.4568 5.2772 10.5794L6.2422 11.5526L6.00912 12.8406C6.00912 12.8406 6.00912 12.8406 6.01321 12.8406C5.98868 12.9142 5.97232 12.9878 5.97232 13.0696C5.97232 13.4417 6.27491 13.7443 6.647 13.7443C6.77376 13.7443 6.89234 13.7075 6.99048 13.6502L8.26215 13.0205L9.48066 13.6298C9.58698 13.7034 9.71782 13.7443 9.86094 13.7443C10.233 13.7443 10.5356 13.4417 10.5356 13.0696C10.5356 13.0492 10.5356 13.0328 10.5315 13.0124C10.5315 13.0124 10.5356 13.0124 10.5356 13.0083L10.278 11.5526L11.2675 10.5549C11.2675 10.5549 11.2675 10.5508 11.2635 10.5508C11.4107 10.4159 11.5006 10.236 11.5006 10.0315Z" fill="black"/>
<path d="M9.86501 13.9365C9.68918 13.9365 9.51745 13.8833 9.37024 13.7852L8.26622 13.2332L7.08859 13.8179C6.96593 13.8915 6.81054 13.9365 6.65516 13.9365C6.17266 13.9365 5.77603 13.5439 5.77603 13.0573C5.77603 12.9674 5.7883 12.8815 5.81692 12.7915L6.03364 11.6057L5.14224 10.7103C4.94188 10.563 4.81104 10.3054 4.81104 10.0274C4.81104 9.63485 5.06455 9.30364 5.42438 9.18915V9.1728L6.88824 8.98062L7.44025 7.84388C7.55065 7.50858 7.88595 7.26733 8.26213 7.26733C8.63014 7.26733 8.94908 7.48814 9.07993 7.83161L9.64829 8.9847L11.0099 9.1728C11.4188 9.25458 11.7091 9.61032 11.7091 10.0315C11.7091 10.2523 11.6274 10.4608 11.4802 10.6244V10.6285L10.5029 11.6139L10.7605 13.0819L10.7441 13.0982C10.7237 13.5644 10.3352 13.9365 9.86501 13.9365ZM8.26622 12.7793L9.57878 13.4376C9.95497 13.687 10.3352 13.4172 10.3352 13.0655L10.3271 12.9755L10.0613 11.479L11.0099 10.5262L11.0017 10.514L11.1367 10.3913C11.2389 10.3014 11.3002 10.1705 11.3002 10.0356C11.3002 9.80659 11.1367 9.61032 10.9077 9.57352L10.8505 9.56534L9.37842 9.36907L8.70783 8.00744C8.63014 7.80708 8.4584 7.6885 8.26213 7.6885C8.06177 7.6885 7.88186 7.81935 7.81643 8.00744L7.15811 9.36907L5.64519 9.57352C5.40394 9.59805 5.21993 9.79841 5.21993 10.0397C5.21993 10.1869 5.28945 10.3259 5.40803 10.4158L6.47116 11.4831L6.25036 12.6893L6.28716 12.6975L6.20947 12.9101C6.18902 12.9633 6.18084 13.0164 6.18084 13.0696C6.18084 13.3272 6.39347 13.5398 6.65107 13.5398C6.73694 13.5398 6.81872 13.5153 6.89232 13.4744L8.26622 12.7793Z" fill="black"/>
<path d="M28.8992 13.9365C28.7234 13.9365 28.5516 13.8834 28.4044 13.7852L27.3004 13.2332L26.1228 13.8179C26.0001 13.8915 25.8447 13.9365 25.6893 13.9365C25.2068 13.9365 24.8102 13.544 24.8102 13.0574C24.8102 12.9674 24.8225 12.8816 24.8511 12.7957V12.7916L25.0678 11.6099L24.1764 10.7144C23.9761 10.5672 23.8452 10.3096 23.8452 10.0315C23.8452 9.639 24.0987 9.30779 24.4586 9.1933V9.17695L25.9224 8.98476L26.4744 7.84803C26.5848 7.51273 26.9201 7.27148 27.2963 7.27148C27.6561 7.27148 27.9873 7.49638 28.1141 7.83576L28.6825 8.98476L30.0645 9.17695C30.4612 9.2669 30.7433 9.61856 30.7433 10.0315C30.7433 10.2523 30.6615 10.4609 30.5143 10.6244V10.6285L29.5371 11.614L29.7988 13.0819L29.7824 13.0983C29.7579 13.5644 29.3735 13.9365 28.8992 13.9365ZM27.3004 12.7793L28.613 13.4377C28.9891 13.6871 29.3694 13.4172 29.3694 13.0656L29.3653 13.0001L29.0955 11.479L30.0441 10.5222L30.0359 10.5059L30.1709 10.3873C30.2731 10.2973 30.3344 10.1665 30.3344 10.0315C30.3344 9.80256 30.1709 9.60629 29.9419 9.56949L29.8846 9.56131L28.4126 9.36504L27.742 8.00341C27.6643 7.80305 27.4926 7.68447 27.2963 7.68447C27.0959 7.68447 26.916 7.81532 26.8506 8.00341L26.1923 9.36504L24.6794 9.56949C24.4381 9.59402 24.2541 9.79438 24.2541 10.0356C24.2541 10.1828 24.3236 10.3219 24.4422 10.4118L25.5053 11.479L25.2845 12.6853L25.3213 12.6935L25.2436 12.9061C25.2232 12.9592 25.215 13.0124 25.215 13.0656C25.215 13.3232 25.4276 13.5358 25.6853 13.5358C25.7711 13.5358 25.8529 13.5154 25.9265 13.4704L27.3004 12.7793Z" fill="black"/>
<path d="M17.765 7.47583V13.0123L16.5015 13.642C16.4034 13.6993 16.2848 13.7361 16.1581 13.7361C15.786 13.7361 15.4834 13.4335 15.4834 13.0614C15.4834 12.9837 15.4997 12.906 15.5243 12.8324L15.7573 11.5444L14.7923 10.5712C14.6288 10.4485 14.5225 10.2522 14.5225 10.0314C14.5225 9.68388 14.7882 9.39356 15.1317 9.36085L16.5261 9.17684L17.1271 7.93788C17.2171 7.6721 17.4665 7.47583 17.765 7.47583Z" fill="black"/>
<path d="M19.3717 13.9404C19.1999 13.9404 19.0282 13.8873 18.8769 13.7891L17.7729 13.2371L16.5912 13.8259C16.4685 13.8995 16.3131 13.9404 16.1577 13.9404C15.6711 13.9404 15.2786 13.5479 15.2786 13.0613C15.2786 12.9672 15.295 12.8691 15.3318 12.7669L15.5403 11.6138L14.6489 10.7183C14.4526 10.5711 14.3218 10.3094 14.3218 10.0354C14.3218 9.58157 14.6653 9.20539 15.115 9.16041L16.3949 8.99276L16.9469 7.85194C17.0573 7.51664 17.3926 7.27539 17.7688 7.27539C18.1286 7.27539 18.4598 7.50028 18.5907 7.83967L19.159 8.99276L20.4798 9.17268C20.9132 9.24219 21.2199 9.60611 21.2199 10.0395C21.2199 10.2603 21.1381 10.4689 20.9909 10.6365L20.9337 10.702L20.0177 11.6261L20.2753 13.0817L20.259 13.0981C20.2385 13.5561 19.8501 13.9404 19.3717 13.9404ZM17.7647 12.7832L17.8628 12.8241L19.0813 13.4334C19.4821 13.6951 19.8419 13.4129 19.8419 13.0613C19.8378 13.0408 19.8378 13.0204 19.8378 13.004V12.9959L19.5679 11.4748L20.6392 10.3912C20.7456 10.2971 20.8028 10.1663 20.8028 10.0314C20.8028 9.80238 20.6392 9.6102 20.4103 9.56931L18.881 9.36486L18.2104 7.99914C18.1327 7.80287 17.9569 7.6802 17.7647 7.6802C17.5643 7.6802 17.3844 7.81105 17.319 8.00323L16.6607 9.36486L15.1559 9.56522C14.9106 9.58975 14.7225 9.7942 14.7225 10.0314C14.7225 10.1827 14.792 10.3176 14.9106 10.4075L15.9737 11.4748L15.7202 12.8691C15.6916 12.9591 15.6834 13.0122 15.6834 13.0613C15.6834 13.3189 15.896 13.5315 16.1536 13.5315C16.26 13.5315 16.3417 13.4947 16.3949 13.4661L17.7647 12.7832Z" fill="black"/>
<path d="M17.5605 13.0285V7.30396H17.9694V13.0122L17.5605 13.0285Z" fill="black"/>
</svg>
