<svg width="73" height="73" viewBox="0 0 73 73" fill="none" xmlns="http://www.w3.org/2000/svg">
<rect x="6.44189" y="6.32666" width="59.4715" height="59.4715" rx="29.7358" fill="#F55420" fill-opacity="0.5"/>
<rect x="16.564" y="16.4497" width="39.2259" height="39.2259" rx="19.613" fill="#F55420"/>
<rect x="0.115234" width="72.1251" height="72.1251" rx="36.0625" fill="#F55420" fill-opacity="0.5"/>
<rect x="12.3906" y="12.2766" width="47.5718" height="47.5718" rx="23.7859" fill="#F55420"/>
<path d="M37.1395 20.6771C36.8365 19.7445 35.5171 19.7445 35.2141 20.6771L32.2847 29.6929C32.1491 30.11 31.7605 30.3923 31.3219 30.3923H21.8422C20.8616 30.3923 20.4538 31.6472 21.2472 32.2236L28.9164 37.7956C29.2712 38.0534 29.4197 38.5103 29.2842 38.9274L26.3548 47.9432C26.0517 48.8758 27.1192 49.6513 27.9125 49.0749L35.5818 43.5029C35.9366 43.2451 36.417 43.2451 36.7718 43.5029L44.4411 49.0749C45.2344 49.6513 46.3018 48.8758 45.9988 47.9432L43.0694 38.9274C42.9339 38.5103 43.0823 38.0534 43.4371 37.7956L51.1064 32.2236C51.8997 31.6472 51.492 30.3923 50.5114 30.3923H41.0317C40.5931 30.3923 40.2044 30.11 40.0689 29.6929L37.1395 20.6771Z" fill="#F55420" stroke="#FAFAFA" stroke-width="1.89803"/>
</svg>
