<svg width="22" height="23" viewBox="0 0 22 23" fill="none" xmlns="http://www.w3.org/2000/svg">
<mask id="mask0_747_696" style="mask-type:luminance" maskUnits="userSpaceOnUse" x="0" y="0" width="21" height="22">
<path fill-rule="evenodd" clip-rule="evenodd" d="M1 0.530518H20.2231V21.1518H1V0.530518Z" fill="white" stroke="white" stroke-width="0.5"/>
</mask>
<g mask="url(#mask0_747_696)">
<path fill-rule="evenodd" clip-rule="evenodd" d="M10.6121 2.11868C6.12827 2.11868 2.48042 6.03077 2.48042 10.8407C2.48042 15.6506 6.12827 19.5637 10.6121 19.5637C15.0949 19.5637 18.7428 15.6506 18.7428 10.8407C18.7428 6.03077 15.0949 2.11868 10.6121 2.11868ZM10.6121 21.1518C5.31208 21.1518 1 16.5261 1 10.8406C1 5.15515 5.31208 0.530518 10.6121 0.530518C15.9122 0.530518 20.2233 5.15515 20.2233 10.8406C20.2233 16.5261 15.9122 21.1518 10.6121 21.1518Z" fill="#1A1D1F"/>
<path d="M10.6121 1.86868C5.974 1.86868 2.23042 5.90948 2.23042 10.8407H2.73042C2.73042 6.15206 6.28255 2.36868 10.6121 2.36868V1.86868ZM2.23042 10.8407C2.23042 15.7718 5.97396 19.8137 10.6121 19.8137V19.3137C6.28258 19.3137 2.73042 15.5293 2.73042 10.8407H2.23042ZM10.6121 19.8137C15.2492 19.8137 18.9928 15.7718 18.9928 10.8407H18.4928C18.4928 15.5294 14.9406 19.3137 10.6121 19.3137V19.8137ZM18.9928 10.8407C18.9928 5.9095 15.2492 1.86868 10.6121 1.86868V2.36868C14.9406 2.36868 18.4928 6.15204 18.4928 10.8407H18.9928ZM10.6121 20.9018C5.46639 20.9018 1.25 16.4049 1.25 10.8406H0.75C0.75 16.6474 5.15777 21.4018 10.6121 21.4018V20.9018ZM1.25 10.8406C1.25 5.27643 5.46636 0.780518 10.6121 0.780518V0.280518C5.1578 0.280518 0.75 5.03386 0.75 10.8406H1.25ZM10.6121 0.780518C15.7578 0.780518 19.9733 5.2764 19.9733 10.8406H20.4733C20.4733 5.03389 16.0665 0.280518 10.6121 0.280518V0.780518ZM19.9733 10.8406C19.9733 16.4049 15.7578 20.9018 10.6121 20.9018V21.4018C16.0665 21.4018 20.4733 16.6474 20.4733 10.8406H19.9733Z" fill="#1A1D1F"/>
</g>
<mask id="mask1_747_696" style="mask-type:luminance" maskUnits="userSpaceOnUse" x="15" y="16" width="7" height="7">
<path fill-rule="evenodd" clip-rule="evenodd" d="M16.0415 17.1602H21.0001V22.4695H16.0415V17.1602Z" fill="white" stroke="white" stroke-width="0.5"/>
</mask>
<g mask="url(#mask1_747_696)">
<path fill-rule="evenodd" clip-rule="evenodd" d="M20.2601 22.4695C20.0716 22.4695 19.8821 22.3922 19.737 22.2377L16.2589 18.5172C15.9697 18.207 15.9687 17.7041 16.2579 17.3939C16.5461 17.0815 17.0149 17.0837 17.3051 17.3918L20.7832 21.1133C21.0723 21.4235 21.0733 21.9253 20.7842 22.2355C20.6401 22.3922 20.4496 22.4695 20.2601 22.4695Z" fill="#1A1D1F"/>
<path d="M20.2601 22.4695C20.0716 22.4695 19.8821 22.3922 19.737 22.2377L16.2589 18.5172C15.9697 18.207 15.9687 17.7041 16.2579 17.3939C16.5461 17.0815 17.0149 17.0837 17.3051 17.3918L20.7832 21.1133C21.0723 21.4235 21.0733 21.9253 20.7842 22.2355C20.6401 22.3922 20.4496 22.4695 20.2601 22.4695" stroke="#1A1D1F" stroke-width="0.5"/>
</g>
</svg>
