<svg width="24" height="24" viewBox="0 0 24 24" fill="none" xmlns="http://www.w3.org/2000/svg">
<g clip-path="url(#clip0_626_10414)">
<path d="M16.7942 9.27766L16.9426 9.50002H17.21H22C22.2662 9.50002 22.4873 9.71365 22.4995 9.97709L22.4774 10.1758L19.9492 19.4027C19.949 19.4035 19.9488 19.4043 19.9485 19.4051C19.7667 20.0374 19.1875 20.5 18.5 20.5H5.5C4.81066 20.5 4.23418 20.0359 4.06225 19.408L4.06223 19.4079L1.52223 10.1379L1.51864 10.1248L1.51434 10.1119C1.50588 10.0865 1.5 10.0528 1.5 10C1.5 9.72616 1.72614 9.50002 2 9.50002H6.79H7.05714L7.20563 9.27796L11.5856 2.72796L11.5857 2.72797L11.5882 2.72403C11.6717 2.59666 11.821 2.52002 12 2.52002C12.1803 2.52002 12.3323 2.59801 12.4154 2.71956C12.4157 2.71996 12.416 2.72037 12.4163 2.72077L16.7942 9.27766ZM8.58689 8.71835L8.05393 9.50002H9H15H15.9461L15.4131 8.71835L12.4131 4.31835L12 3.71245L11.5869 4.31835L8.58689 8.71835ZM9.5 15C9.5 16.3762 10.6239 17.5 12 17.5C13.3761 17.5 14.5 16.3762 14.5 15C14.5 13.6239 13.3761 12.5 12 12.5C10.6239 12.5 9.5 13.6239 9.5 15Z" stroke="#676E76"/>
</g>
<defs>
<clipPath id="clip0_626_10414">
<rect width="24" height="24" fill="white"/>
</clipPath>
</defs>
</svg>
