<svg width="25" height="25" viewBox="0 0 25 25" fill="none" xmlns="http://www.w3.org/2000/svg">
<path d="M15.4339 6.11211V5.001C15.4339 4.38712 14.9367 3.88989 14.3228 3.88989H8.2117C7.59781 3.88989 7.10059 4.38712 7.10059 5.001V20.001" fill="white"/>
<path d="M15.4339 6.11211V5.001C15.4339 4.38712 14.9367 3.88989 14.3228 3.88989H8.2117C7.59781 3.88989 7.10059 4.38712 7.10059 5.001V20.001" stroke="#24292E" stroke-width="1.11111"/>
<path d="M18.7673 6.1123H12.1006V8.33453H18.7673V6.1123Z" stroke="#24292E" stroke-width="1.11111" stroke-linejoin="round"/>
<path d="M10.4346 8.33447H20.4346" stroke="#24292E" stroke-width="1.11111" stroke-linejoin="round"/>
<path d="M15.4339 10.001C15.1273 10.001 14.8784 10.2499 14.8784 10.5565C14.8784 10.8632 15.1273 11.1121 15.4339 11.1121C15.7406 11.1121 15.9895 10.8632 15.9895 10.5565C15.9895 10.2499 15.7406 10.001 15.4339 10.001ZM12.6561 10.001C12.3495 10.001 12.1006 10.2499 12.1006 10.5565C12.1006 10.8632 12.3495 11.1121 12.6561 11.1121C12.9628 11.1121 13.2117 10.8632 13.2117 10.5565C13.2117 10.2499 12.9628 10.001 12.6561 10.001ZM18.2117 10.001C17.905 10.001 17.6561 10.2499 17.6561 10.5565C17.6561 10.8632 17.905 11.1121 18.2117 11.1121C18.5184 11.1121 18.7673 10.8632 18.7673 10.5565C18.7673 10.2499 18.5184 10.001 18.2117 10.001ZM15.4339 12.2232C15.1273 12.2232 14.8784 12.4721 14.8784 12.7788C14.8784 13.0854 15.1273 13.3343 15.4339 13.3343C15.7406 13.3343 15.9895 13.0854 15.9895 12.7788C15.9895 12.4721 15.7406 12.2232 15.4339 12.2232ZM18.2117 12.2232C17.905 12.2232 17.6561 12.4721 17.6561 12.7788C17.6561 13.0854 17.905 13.3343 18.2117 13.3343C18.5184 13.3343 18.7673 13.0854 18.7673 12.7788C18.7673 12.4721 18.5184 12.2232 18.2117 12.2232ZM12.6561 12.2232C12.3495 12.2232 12.1006 12.4721 12.1006 12.7788C12.1006 13.0854 12.3495 13.3343 12.6561 13.3343C12.9628 13.3343 13.2117 13.0854 13.2117 12.7788C13.2117 12.4721 12.9628 12.2232 12.6561 12.2232ZM15.4339 14.4454C15.1273 14.4454 14.8784 14.6943 14.8784 15.001C14.8784 15.3076 15.1273 15.5565 15.4339 15.5565C15.7406 15.5565 15.9895 15.3076 15.9895 15.001C15.9895 14.6943 15.7406 14.4454 15.4339 14.4454ZM18.2117 14.4454C17.905 14.4454 17.6561 14.6943 17.6561 15.001C17.6561 15.3076 17.905 15.5565 18.2117 15.5565C18.5184 15.5565 18.7673 15.3076 18.7673 15.001C18.7673 14.6943 18.5184 14.4454 18.2117 14.4454ZM12.6561 14.4454C12.3495 14.4454 12.1006 14.6943 12.1006 15.001C12.1006 15.3076 12.3495 15.5565 12.6561 15.5565C12.9628 15.5565 13.2117 15.3076 13.2117 15.001C13.2117 14.6943 12.9628 14.4454 12.6561 14.4454ZM15.4339 16.6676C15.1273 16.6676 14.8784 16.9165 14.8784 17.2232C14.8784 17.5299 15.1273 17.7788 15.4339 17.7788C15.7406 17.7788 15.9895 17.5299 15.9895 17.2232C15.9895 16.9165 15.7406 16.6676 15.4339 16.6676ZM18.2117 16.6676C17.905 16.6676 17.6561 16.9165 17.6561 17.2232C17.6561 17.5299 17.905 17.7788 18.2117 17.7788C18.5184 17.7788 18.7673 17.5299 18.7673 17.2232C18.7673 16.9165 18.5184 16.6676 18.2117 16.6676ZM12.6561 16.6676C12.3495 16.6676 12.1006 16.9165 12.1006 17.2232C12.1006 17.5299 12.3495 17.7788 12.6561 17.7788C12.9628 17.7788 13.2117 17.5299 13.2117 17.2232C13.2117 16.9165 12.9628 16.6676 12.6561 16.6676ZM15.4339 18.8899C15.1273 18.8899 14.8784 19.1388 14.8784 19.4454C14.8784 19.7521 15.1273 20.001 15.4339 20.001C15.7406 20.001 15.9895 19.7521 15.9895 19.4454C15.9895 19.1388 15.7406 18.8899 15.4339 18.8899ZM18.2117 18.8899C17.905 18.8899 17.6561 19.1388 17.6561 19.4454C17.6561 19.7521 17.905 20.001 18.2117 20.001C18.5184 20.001 18.7673 19.7521 18.7673 19.4454C18.7673 19.1388 18.5184 18.8899 18.2117 18.8899ZM12.6561 18.8899C12.3495 18.8899 12.1006 19.1388 12.1006 19.4454C12.1006 19.7521 12.3495 20.001 12.6561 20.001C12.9628 20.001 13.2117 19.7521 13.2117 19.4454C13.2117 19.1388 12.9628 18.8899 12.6561 18.8899Z" fill="#24292E"/>
<path d="M18.2103 10.0015C17.9036 10.0015 17.6547 10.2504 17.6547 10.557C17.6547 10.8637 17.9036 11.1126 18.2103 11.1126C18.517 11.1126 18.7658 10.8637 18.7658 10.557C18.7658 10.2504 18.517 10.0015 18.2103 10.0015ZM15.4325 10.0015C15.1258 10.0015 14.877 10.2504 14.877 10.557C14.877 10.8637 15.1258 11.1126 15.4325 11.1126C15.7392 11.1126 15.9881 10.8637 15.9881 10.557C15.9881 10.2504 15.7392 10.0015 15.4325 10.0015ZM18.2103 12.2237C17.9036 12.2237 17.6547 12.4726 17.6547 12.7792C17.6547 13.0859 17.9036 13.3348 18.2103 13.3348C18.517 13.3348 18.7658 13.0859 18.7658 12.7792C18.7658 12.4726 18.517 12.2237 18.2103 12.2237ZM15.4325 12.2237C15.1258 12.2237 14.877 12.4726 14.877 12.7792C14.877 13.0859 15.1258 13.3348 15.4325 13.3348C15.7392 13.3348 15.9881 13.0859 15.9881 12.7792C15.9881 12.4726 15.7392 12.2237 15.4325 12.2237ZM18.2103 14.4459C17.9036 14.4459 17.6547 14.6948 17.6547 15.0015C17.6547 15.3081 17.9036 15.557 18.2103 15.557C18.517 15.557 18.7658 15.3081 18.7658 15.0015C18.7658 14.6948 18.517 14.4459 18.2103 14.4459ZM15.4325 14.4459C15.1258 14.4459 14.877 14.6948 14.877 15.0015C14.877 15.3081 15.1258 15.557 15.4325 15.557C15.7392 15.557 15.9881 15.3081 15.9881 15.0015C15.9881 14.6948 15.7392 14.4459 15.4325 14.4459ZM18.2103 16.6681C17.9036 16.6681 17.6547 16.917 17.6547 17.2237C17.6547 17.5304 17.9036 17.7792 18.2103 17.7792C18.517 17.7792 18.7658 17.5304 18.7658 17.2237C18.7658 16.917 18.517 16.6681 18.2103 16.6681ZM15.4325 16.6681C15.1258 16.6681 14.877 16.917 14.877 17.2237C14.877 17.5304 15.1258 17.7792 15.4325 17.7792C15.7392 17.7792 15.9881 17.5304 15.9881 17.2237C15.9881 16.917 15.7392 16.6681 15.4325 16.6681ZM18.2103 18.8904C17.9036 18.8904 17.6547 19.1392 17.6547 19.4459C17.6547 19.7526 17.9036 20.0015 18.2103 20.0015C18.517 20.0015 18.7658 19.7526 18.7658 19.4459C18.7658 19.1392 18.517 18.8904 18.2103 18.8904ZM15.4325 18.8904C15.1258 18.8904 14.877 19.1392 14.877 19.4459C14.877 19.7526 15.1258 20.0015 15.4325 20.0015C15.7392 20.0015 15.9881 19.7526 15.9881 19.4459C15.9881 19.1392 15.7392 18.8904 15.4325 18.8904Z" fill="#24292E"/>
</svg>
