<svg width="30" height="30" viewBox="0 0 30 30" fill="none" xmlns="http://www.w3.org/2000/svg">
<path d="M24.542 5.07068L25.138 6.26268L23.5067 7.07868V23.6667C23.5067 24.3693 22.9627 24.9453 22.2727 24.996L22.1733 25H7.50666C6.80399 25 6.22799 24.456 6.17732 23.766L6.17333 23.6667V15.7453L5.13799 16.2627L4.54199 15.0707L6.17333 14.2553V9.00001H7.50666V13.5887L24.542 5.07068ZM22.1733 7.74534L7.50666 15.0787V23.6667H11.5067V17C11.5067 16.2973 12.0507 15.7213 12.7407 15.67L12.84 15.6667H16.84C17.5427 15.6667 18.1187 16.2107 18.17 16.9007L18.1733 17V23.6667H22.1733V7.74534ZM16.84 17H12.84V23.6667H16.84V17ZM20.1733 11.6667C20.5413 11.6667 20.84 11.9653 20.84 12.3333C20.84 12.7013 20.5413 13 20.1733 13C19.8053 13 19.5067 12.7013 19.5067 12.3333C19.5067 11.9653 19.8053 11.6667 20.1733 11.6667Z" fill="#3C3C3C"/>
</svg>
