<svg width="52" height="52" viewBox="0 0 52 52" fill="none" xmlns="http://www.w3.org/2000/svg">
<path d="M46.1299 23.9202C45.7999 26.3902 43.5899 28.2502 40.9899 28.2502H30.2399C29.9699 28.2502 29.7199 28.3602 29.5399 28.5602C29.3499 28.7502 29.2599 29.0102 29.2799 29.2802L30.4899 48.0002H31.3199C31.8699 48.0002 32.3199 48.4502 32.3199 49.0002C32.3199 49.5502 31.8699 50.0002 31.3199 50.0002H20.6899C20.1399 50.0002 19.6899 49.5502 19.6899 49.0002C19.6899 48.4502 20.1399 48.0002 20.6899 48.0002H21.5099L22.7199 29.2802C22.7313 29.1486 22.714 29.016 22.6691 28.8916C22.6242 28.7673 22.5528 28.6542 22.4599 28.5602C22.3692 28.4625 22.2593 28.3846 22.1372 28.3313C22.015 28.2779 21.8832 28.2503 21.7499 28.2502H11.0099C8.40988 28.2502 6.19988 26.3902 5.86988 23.9202C5.67988 22.4402 6.13988 20.9902 7.13988 19.9102C6.98988 19.4402 6.91988 18.9702 6.91988 18.4902C6.91988 16.2102 8.48988 14.2502 10.6099 13.6702C10.4799 12.6102 10.7199 11.5702 11.3199 10.5602C11.8299 9.72023 12.5799 9.03023 13.4399 8.62023C14.2899 8.21023 15.1799 8.05023 16.0699 8.15023C16.5699 5.58023 19.1099 3.68023 21.8599 4.21023C22.3149 3.52959 22.9308 2.97164 23.6529 2.58577C24.375 2.19991 25.1811 1.99805 25.9999 1.99805C26.8186 1.99805 27.6248 2.19991 28.3469 2.58577C29.069 2.97164 29.6848 3.52959 30.1399 4.21023C32.8899 3.68023 35.4199 5.58023 35.9299 8.15023C36.8199 8.05023 37.7099 8.21023 38.5599 8.62023C39.4398 9.04366 40.1742 9.71887 40.6699 10.5602C41.2799 11.5602 41.5199 12.6102 41.3899 13.6702C43.5099 14.2502 45.0799 16.2102 45.0799 18.4902C45.0799 18.9702 44.9999 19.4402 44.8599 19.9102C45.352 20.445 45.7208 21.0813 45.9402 21.7742C46.1597 22.4671 46.2244 23.1996 46.1299 23.9202Z" fill="#008000"/>
</svg>
