<svg width="18" height="16" viewBox="0 0 18 16" fill="none" xmlns="http://www.w3.org/2000/svg">
<path d="M1 0V16H17V0H1ZM16.3333 10.6667C16.3333 11.4 15.7333 12 15 12H3C2.26667 12 1.66667 11.4 1.66667 10.6667V5.33333C1.66667 4.6 2.26667 4 3 4H15C15.7333 4 16.3333 4.6 16.3333 5.33333V10.6667Z" fill="white"/>
<path d="M6.33366 7.83333H7.83366V8.16667H6.33366H5.83366V8.66667V10.1667H5.50033V8.66667V8.16667H5.00033H3.50033V7.83333H5.00033H5.50033V7.33333V5.83333H5.83366V7.33333V7.83333H6.33366ZM15.0003 3.5H3.00033C1.99085 3.5 1.16699 4.32386 1.16699 5.33333V10.6667C1.16699 11.6761 1.99085 12.5 3.00033 12.5H15.0003C16.0098 12.5 16.8337 11.6761 16.8337 10.6667V5.33333C16.8337 4.32386 16.0098 3.5 15.0003 3.5ZM11.3337 9.5C11.0565 9.5 10.8337 9.27719 10.8337 9C10.8337 8.72281 11.0565 8.5 11.3337 8.5C11.6109 8.5 11.8337 8.72281 11.8337 9C11.8337 9.27719 11.6109 9.5 11.3337 9.5ZM14.0003 7.5C13.7231 7.5 13.5003 7.27719 13.5003 7C13.5003 6.72281 13.7231 6.5 14.0003 6.5C14.2775 6.5 14.5003 6.72281 14.5003 7C14.5003 7.27719 14.2775 7.5 14.0003 7.5Z" stroke="#24292E"/>
</svg>
