<svg width="46" height="45" viewBox="0 0 46 45" fill="none" xmlns="http://www.w3.org/2000/svg">
<path d="M36.8759 34.4028C36.3933 34.4181 35.9102 34.4069 35.383 34.4069C35.9918 33.4288 35.9701 32.4905 35.41 31.5781C35.6947 31.435 35.9877 31.3195 36.2466 31.1524C36.8295 30.7747 36.853 30.2387 36.3229 29.7849C35.0313 28.6801 33.7398 27.5774 32.4482 26.4769C32.0934 26.183 31.8288 25.7949 31.685 25.3575C31.1079 23.6199 30.5203 21.8859 29.9396 20.1496C29.5704 19.0454 28.87 18.2361 27.7992 17.767C27.4792 17.6269 27.1381 17.5324 26.8041 17.4275C26.0473 17.1859 25.2894 16.949 24.5004 16.7003C24.5938 16.6182 24.6589 16.5625 24.7229 16.5051C25.3798 15.9186 25.7644 15.1921 25.7885 14.3066C25.8096 13.5173 25.8137 12.7262 25.7843 11.9369C25.7256 10.38 24.4464 9.09521 22.8959 9.0049C21.2833 8.91166 19.8244 10.0382 19.6353 11.6127C19.535 12.4495 19.5766 13.3056 19.5766 14.153C19.5766 15.0455 19.9154 15.8031 20.5641 16.4183C20.6318 16.4695 20.7051 16.513 20.7825 16.5479C19.7205 16.9484 18.7213 17.2715 17.7168 17.5782C16.3665 17.9887 15.4818 18.8683 15.0391 20.2088C14.4744 21.9194 13.8902 23.6235 13.322 25.3328C13.1777 25.7801 12.9099 26.1775 12.5494 26.4793C11.2402 27.5911 9.93436 28.7068 8.63184 29.8265C8.16981 30.2223 8.18273 30.7647 8.68526 31.1031C8.9788 31.3007 9.31402 31.4368 9.64219 31.6068C9.20189 32.5374 9.25472 33.4757 9.83064 34.4063H8.906C8.60366 34.4063 8.30073 34.3993 7.9978 34.4063C7.62853 34.4175 7.41073 34.706 7.53519 35.0056C7.64027 35.2578 7.85338 35.2842 8.09291 35.2836C17.7017 35.2836 27.3101 35.2836 36.9182 35.2836C37.1812 35.2836 37.3702 35.2056 37.4988 34.9798V34.6866C37.3532 34.4691 37.143 34.3946 36.8759 34.4028ZM30.08 23.3379C30.33 24.0779 30.5842 24.791 30.8097 25.5123C31.0151 26.1777 31.4125 26.7679 31.9521 27.2088C33.1633 28.2244 34.3591 29.2612 35.5609 30.2856C35.6119 30.329 35.6583 30.3777 35.7294 30.4457C35.1059 30.8228 34.503 30.8105 33.8959 30.4733C32.7617 29.8447 31.6375 29.1973 30.4909 28.5874C29.8574 28.249 29.4171 27.7917 29.1741 27.1014C28.8671 26.2295 28.4925 25.3815 28.1479 24.5213C28.1121 24.4327 28.0821 24.3418 28.0399 24.2281L30.08 23.3379ZM30.003 29.3779C29.4665 29.2168 28.9297 29.055 28.3927 28.8923C28.0105 28.7751 27.626 28.6689 27.2508 28.5352C27.2051 28.5126 27.1654 28.4797 27.1348 28.4389C27.1042 28.3982 27.0836 28.3508 27.0747 28.3007C27.0642 27.0053 27.0677 25.7099 27.0689 24.4145C27.0763 24.3724 27.0875 24.331 27.1023 24.2908C27.1792 24.4708 27.2409 24.608 27.2972 24.7476C27.6894 25.7216 28.0956 26.6904 28.4678 27.6726C28.7267 28.3552 29.1847 28.8407 29.8046 29.1973C29.8857 29.2395 29.9542 29.3024 30.003 29.3796V29.3779ZM20.476 14.3658C20.4073 13.4825 20.4197 12.5946 20.513 11.7135C20.6463 10.5747 21.7059 9.80124 22.8531 9.87806C23.3981 9.91797 23.9094 10.1569 24.2894 10.5493C24.6693 10.9417 24.8914 11.4601 24.9131 12.0056C24.9296 12.3844 24.9131 12.7679 24.9131 13.1449C24.9131 13.515 24.9272 13.8856 24.9131 14.255C24.8597 15.419 23.9304 16.3409 22.7891 16.3749C21.5809 16.4148 20.557 15.5703 20.476 14.3699V14.3658ZM16.282 19.6435C16.5362 19.1157 17.0235 18.7457 17.5823 18.5598C18.8393 18.1423 20.1015 17.733 21.3801 17.387C22.3635 17.1231 23.3562 17.2533 24.3231 17.5629C25.2331 17.852 26.143 18.1411 27.0554 18.4232C28.0823 18.7399 28.7661 19.4045 29.1066 20.417C29.3361 21.099 29.5616 21.7827 29.7993 22.497L27.7041 23.4124C27.4851 22.8699 27.2761 22.3674 27.0788 21.8601C26.9814 21.608 26.8375 21.4186 26.5428 21.4737C26.2481 21.5288 26.1818 21.7516 26.183 22.0255C26.1873 24.0146 26.1873 26.0041 26.183 27.994V28.3528H18.8158V22.1815C18.8158 22.0935 18.8158 22.0056 18.8158 21.9182C18.8158 21.6807 18.6919 21.5241 18.4635 21.4766C18.2352 21.4291 18.0614 21.5353 17.971 21.7487C17.8172 22.117 17.6704 22.4882 17.5195 22.8582C17.4796 22.9567 17.4373 23.0541 17.3827 23.1831L15.2693 22.1275C15.6086 21.2907 15.8969 20.4445 16.282 19.6447V19.6435ZM9.26764 30.451C9.35042 30.3742 9.41441 30.3103 9.48251 30.2516C10.6989 29.2117 11.9161 28.173 13.1341 27.1355C13.6019 26.7469 13.9503 26.2343 14.1392 25.6565C14.3975 24.8702 14.6675 24.0873 14.9317 23.3033C14.9622 23.213 14.9957 23.1233 15.0403 22.9995L17.0575 24.0035C16.9554 24.2603 16.855 24.5007 16.764 24.7441C16.6595 25.022 16.7446 25.2631 16.9724 25.3622C17.2184 25.4689 17.4497 25.3581 17.5788 25.069C17.634 24.9441 17.6827 24.8168 17.7344 24.6907C17.782 24.5734 17.8289 24.4562 17.9076 24.265C17.9228 24.4093 17.9358 24.4773 17.9358 24.5453C17.9358 25.7768 17.9317 27.0029 17.9416 28.2315C17.9416 28.4367 17.8782 28.5123 17.6833 28.5681C16.8397 28.8079 16.0025 29.0683 15.1624 29.3204C15.1074 29.3409 15.0475 29.3443 14.9904 29.3304C15.1143 29.2553 15.2376 29.1785 15.3626 29.1052C16.1194 28.6595 16.4927 27.9429 16.7329 27.1407C16.7998 26.9167 16.6835 26.7349 16.4681 26.6482C16.4214 26.6254 16.3708 26.6121 16.319 26.6089C16.2672 26.6058 16.2153 26.6128 16.1662 26.6297C16.1171 26.6466 16.0719 26.673 16.033 26.7073C15.9942 26.7417 15.9625 26.7833 15.9397 26.8299C15.8456 27.0008 15.7687 27.1805 15.7102 27.3665C15.5569 27.8262 15.2499 28.1587 14.8401 28.3904C13.5756 29.1054 12.3067 29.8126 11.0336 30.512C10.4588 30.8251 9.87819 30.7988 9.26764 30.451ZM34.8681 33.4962C34.736 33.8739 34.4695 34.1383 34.1519 34.3577C34.084 34.3939 34.0073 34.4103 33.9306 34.4052C30.9435 34.4052 27.9561 34.4052 24.9683 34.4052C24.9316 34.404 24.8949 34.4007 24.8585 34.3952C24.69 34.0304 24.5327 33.6915 24.366 33.3297L25.0816 33.2857C25.3975 33.2658 25.59 33.0893 25.5812 32.8289C25.5724 32.5685 25.3716 32.4002 25.0528 32.4102C24.7341 32.4202 24.4071 32.4301 24.0883 32.4688C22.6153 32.636 21.1705 32.3392 19.7164 32.2096C18.3755 32.0924 17.0381 31.9311 15.699 31.7915C15.4055 31.761 15.1977 31.9153 15.1707 32.1692C15.1419 32.4337 15.2881 32.6231 15.5933 32.6565C16.8444 32.7949 18.0966 32.9221 19.3506 33.0558C20.4273 33.1731 21.5058 33.2722 22.5795 33.4077C23.1754 33.4845 23.6679 33.7531 23.918 34.4046H23.5746C19.6792 34.4046 15.7849 34.4059 11.8919 34.4087C11.2578 34.4087 10.7259 34.2503 10.4283 33.6504C10.1113 33.0107 10.1741 32.3797 10.5739 31.7962C10.6746 31.6567 10.8167 31.5523 10.9801 31.4977C13.4036 30.76 15.8301 30.0311 18.2598 29.311C18.4093 29.2698 18.5639 29.2501 18.7189 29.2524C21.1987 29.2489 23.6785 29.2489 26.1583 29.2524C26.4199 29.2547 26.6799 29.2941 26.9303 29.3697C29.189 30.0487 31.4451 30.7344 33.6987 31.4268C34.6967 31.7329 35.181 32.5961 34.8681 33.4962Z" fill="#676E76" stroke="#676E76" stroke-width="0.5"/>
<path d="M30.8215 32.549C30.825 32.8146 30.6419 32.9782 30.319 32.997L27.5785 33.1541C27.2204 33.1747 27.0049 33.0216 26.9914 32.7395C26.9779 32.4575 27.1546 32.3033 27.5063 32.2798C27.9824 32.2487 28.4585 32.2212 28.9347 32.1936C29.3814 32.1684 29.8282 32.135 30.2755 32.1197C30.6149 32.108 30.818 32.2751 30.8215 32.549Z" fill="#676E76"/>
</svg>
